#N canvas 157 158 678 496 10;
#X msg 20 198 devices;
#X msg 80 198 open \$1;
#X msg 107 174 close;
#X obj 80 151 t f b;
#X msg 20 224 close;
#X msg 163 121 analogIns 1 1;
#X obj 80 283 route analog;
#X msg 163 147 analogIns 2 1;
#X msg 163 173 analogIns 3 1;
#X obj 80 49 loadbang;
#X obj 80 311 route 0 1 2 3 4 5;
#X obj 80 71 t b b;
#X obj 80 256 arduino 2;
#X msg 163 199 analogIns 4 1;
#X msg 163 225 analogIns 5 1;
#X msg 163 95 analogIns 0 1;
#X obj 80 462 outlet;
#X obj 96 338 t b f;
#X obj 113 361 t b f;
#X obj 129 383 t b f;
#X obj 146 338 t b f;
#X obj 162 361 t b f;
#X obj 80 439 pack 0 0 0 0 0 0;
#X obj 80 416 0;
#X obj 80 100 \$1;
#X floatatom 80 125 5 0 0 0 port - -;
#X text 20 14 get value from analog pins;
#X obj 212 279 route digital;
#X obj 212 488 outlet;
#X obj 227 336 t b f;
#X obj 243 359 t b f;
#X obj 258 381 t b f;
#X obj 274 403 t b f;
#X obj 290 336 t b f;
#X obj 305 359 t b f;
#X obj 212 442 0;
#X obj 321 381 t b f;
#X obj 337 403 t b f;
#X obj 212 309 route 0 1 2 3 4 5 6 7 8 9 10 11 12 13;
#X obj 352 336 t b f;
#X obj 368 359 t b f;
#X obj 384 381 t b f;
#X obj 399 403 t b f;
#X obj 415 336 t b f;
#X msg 294 139 pinMode 7 0;
#X msg 294 164 pinMode 10 0;
#X obj 212 465 pack f f f f f f f f f f f f f f;
#X obj 249 39 delay 500;
#X connect 0 0 12 0;
#X connect 1 0 12 0;
#X connect 2 0 12 0;
#X connect 3 0 1 0;
#X connect 3 1 2 0;
#X connect 4 0 12 0;
#X connect 5 0 12 0;
#X connect 6 0 10 0;
#X connect 7 0 12 0;
#X connect 8 0 12 0;
#X connect 9 0 11 0;
#X connect 10 0 23 0;
#X connect 10 1 17 0;
#X connect 10 2 18 0;
#X connect 10 3 19 0;
#X connect 10 4 20 0;
#X connect 10 5 21 0;
#X connect 11 0 5 0;
#X connect 11 0 7 0;
#X connect 11 0 8 0;
#X connect 11 0 44 0;
#X connect 11 0 45 0;
#X connect 11 0 47 0;
#X connect 11 1 24 0;
#X connect 12 0 6 0;
#X connect 12 0 27 0;
#X connect 13 0 12 0;
#X connect 14 0 12 0;
#X connect 15 0 12 0;
#X connect 17 0 23 0;
#X connect 17 1 22 1;
#X connect 18 0 23 0;
#X connect 18 1 22 2;
#X connect 19 0 23 0;
#X connect 19 1 22 3;
#X connect 20 0 23 0;
#X connect 20 1 22 4;
#X connect 21 0 23 0;
#X connect 21 1 22 5;
#X connect 22 0 16 0;
#X connect 23 0 22 0;
#X connect 24 0 25 0;
#X connect 25 0 3 0;
#X connect 27 0 38 0;
#X connect 29 0 35 0;
#X connect 29 1 46 1;
#X connect 30 0 35 0;
#X connect 30 1 46 2;
#X connect 31 0 35 0;
#X connect 31 1 46 3;
#X connect 32 0 35 0;
#X connect 32 1 46 4;
#X connect 33 0 35 0;
#X connect 33 1 46 5;
#X connect 34 0 35 0;
#X connect 34 1 46 6;
#X connect 35 0 46 0;
#X connect 36 0 35 0;
#X connect 36 1 46 7;
#X connect 37 0 35 0;
#X connect 37 1 46 8;
#X connect 38 0 35 0;
#X connect 38 1 29 0;
#X connect 38 2 30 0;
#X connect 38 3 31 0;
#X connect 38 4 32 0;
#X connect 38 5 33 0;
#X connect 38 6 34 0;
#X connect 38 7 36 0;
#X connect 38 8 37 0;
#X connect 38 9 39 0;
#X connect 38 10 40 0;
#X connect 38 11 41 0;
#X connect 38 12 42 0;
#X connect 38 13 43 0;
#X connect 39 0 35 0;
#X connect 39 1 46 9;
#X connect 40 0 35 0;
#X connect 40 1 46 10;
#X connect 41 0 35 0;
#X connect 41 1 46 11;
#X connect 42 0 35 0;
#X connect 42 1 46 12;
#X connect 43 0 35 0;
#X connect 43 1 46 13;
#X connect 44 0 12 0;
#X connect 45 0 12 0;
#X connect 46 0 28 0;
#X connect 47 0 15 0;
#X connect 47 0 5 0;
#X connect 47 0 7 0;
#X connect 47 0 8 0;
#X connect 47 0 13 0;
#X connect 47 0 14 0;
#X connect 47 0 44 0;
#X connect 47 0 45 0;
