#N canvas 574 113 134 214 10;
#X obj 52 90 pi;
#X obj 25 112 *;
#X obj 25 65 t f b;
#X obj 25 136 / 180;
#X obj 25 38 inlet;
#X obj 25 161 outlet;
#X connect 0 0 1 1;
#X connect 1 0 3 0;
#X connect 2 0 1 0;
#X connect 2 1 0 0;
#X connect 3 0 5 0;
#X connect 4 0 2 0;
