#N canvas 454 53 679 561 10;
#X declare -lib flatgui;
#X declare -lib flatgui;
#X declare -lib mrpeach;
#X obj 19 -187 loadbang;
#X obj 19 -78 osci 0;
#X obj 19 -122 + 1;
#X floatatom 19 -101 5 0 0 0 - - -;
#X obj 78 -122 + 1;
#X floatatom 78 -101 5 0 0 0 - - -;
#X obj 138 -122 + 1;
#X floatatom 138 -101 5 0 0 0 - - -;
#X obj 196 -122 + 1;
#X floatatom 196 -101 5 0 0 0 - - -;
#X obj 256 -122 + 1;
#X floatatom 256 -101 5 0 0 0 - - -;
#X obj 315 -122 + 1;
#X floatatom 315 -101 5 0 0 0 - - -;
#X obj 19 -206 bng 15 250 50 0 empty empty empty 17 7 0 10 -262144
-1 -1;
#X obj 78 -142 random 8;
#X obj 138 -142 random 8;
#X obj 196 -142 random 8;
#X obj 256 -142 random 8;
#X obj 315 -142 random 8;
#N canvas 390 68 318 277 UI 0;
#X obj 105 124 tgl 30 0 empty empty empty 17 7 0 10 -262144 -1 -1 0
1;
#X obj 101 37 import flatgui;
#X obj 144 119 knob 32 32 0 127 0 0 empty empty 結合強度(K) 0 -8
1 10 -262144 -1 -1 0 1;
#X obj 167 171 / 127;
#N canvas 0 22 450 278 (subpatch) 0;
#X array obj_phase 8 float 2;
#X coords 0 278 1 277 100 70 0;
#X restore 202 37 graph;
#X msg 105 191 1;
#X obj 105 213 s clock;
#X obj 167 192 * 0.5;
#X obj 167 214 s K;
#X obj 105 170 metro 50;
#X obj 144 67 r con;
#X connect 0 0 9 0;
#X connect 2 0 3 0;
#X connect 3 0 7 0;
#X connect 5 0 6 0;
#X connect 7 0 8 0;
#X connect 9 0 5 0;
#X connect 10 0 2 0;
#X coords 0 -1 1 1 100 60 1 100 100;
#X restore 16 -273 pd UI;
#N canvas 635 117 311 387 fly 0;
#X obj 105 -46 cos;
#X floatatom 105 -23 5 0 0 0 - - -;
#X obj 105 27 f;
#X obj 105 0 t f b f;
#X obj 105 51 <;
#X obj 105 74 change;
#X obj 105 120 bng 15 250 50 0 empty empty empty 17 7 0 10 -262144
-1 -1;
#X obj 105 -84 inlet;
#X obj 105 147 outlet;
#X connect 0 0 1 0;
#X connect 1 0 3 0;
#X connect 2 0 4 0;
#X connect 3 0 2 1;
#X connect 3 1 2 0;
#X connect 3 2 4 1;
#X connect 4 0 5 0;
#X connect 5 0 6 0;
#X connect 6 0 8 0;
#X connect 7 0 0 0;
#X coords 0 -1 1 1 25 40 1 100 100;
#X restore 18 31 pd fly;
#N canvas 635 117 311 387 fly 0;
#X obj 105 -46 cos;
#X floatatom 105 -23 5 0 0 0 - - -;
#X obj 105 27 f;
#X obj 105 0 t f b f;
#X obj 105 51 <;
#X obj 105 74 change;
#X obj 105 120 bng 15 250 50 0 empty empty empty 17 7 0 10 -262144
-1 -1;
#X obj 105 -84 inlet;
#X obj 105 147 outlet;
#X connect 0 0 1 0;
#X connect 1 0 3 0;
#X connect 2 0 4 0;
#X connect 3 0 2 1;
#X connect 3 1 2 0;
#X connect 3 2 4 1;
#X connect 4 0 5 0;
#X connect 5 0 6 0;
#X connect 6 0 8 0;
#X connect 7 0 0 0;
#X coords 0 -1 1 1 25 40 1 100 100;
#X restore 77 31 pd fly;
#N canvas 635 117 311 387 fly 0;
#X obj 105 -46 cos;
#X floatatom 105 -23 5 0 0 0 - - -;
#X obj 105 27 f;
#X obj 105 0 t f b f;
#X obj 105 51 <;
#X obj 105 74 change;
#X obj 105 120 bng 15 250 50 0 empty empty empty 17 7 0 10 -262144
-1 -1;
#X obj 105 -84 inlet;
#X obj 105 147 outlet;
#X connect 0 0 1 0;
#X connect 1 0 3 0;
#X connect 2 0 4 0;
#X connect 3 0 2 1;
#X connect 3 1 2 0;
#X connect 3 2 4 1;
#X connect 4 0 5 0;
#X connect 5 0 6 0;
#X connect 6 0 8 0;
#X connect 7 0 0 0;
#X coords 0 -1 1 1 25 40 1 100 100;
#X restore 137 31 pd fly;
#N canvas 635 117 311 387 fly 0;
#X obj 105 -46 cos;
#X floatatom 105 -23 5 0 0 0 - - -;
#X obj 105 27 f;
#X obj 105 0 t f b f;
#X obj 105 51 <;
#X obj 105 74 change;
#X obj 105 120 bng 15 250 50 0 empty empty empty 17 7 0 10 -262144
-1 -1;
#X obj 105 -84 inlet;
#X obj 105 147 outlet;
#X connect 0 0 1 0;
#X connect 1 0 3 0;
#X connect 2 0 4 0;
#X connect 3 0 2 1;
#X connect 3 1 2 0;
#X connect 3 2 4 1;
#X connect 4 0 5 0;
#X connect 5 0 6 0;
#X connect 6 0 8 0;
#X connect 7 0 0 0;
#X coords 0 -1 1 1 25 40 1 100 100;
#X restore 195 31 pd fly;
#N canvas 635 117 311 387 fly 0;
#X obj 105 -46 cos;
#X floatatom 105 -23 5 0 0 0 - - -;
#X obj 105 27 f;
#X obj 105 0 t f b f;
#X obj 105 51 <;
#X obj 105 74 change;
#X obj 105 120 bng 15 250 50 0 empty empty empty 17 7 0 10 -262144
-1 -1;
#X obj 105 -84 inlet;
#X obj 105 147 outlet;
#X connect 0 0 1 0;
#X connect 1 0 3 0;
#X connect 2 0 4 0;
#X connect 3 0 2 1;
#X connect 3 1 2 0;
#X connect 3 2 4 1;
#X connect 4 0 5 0;
#X connect 5 0 6 0;
#X connect 6 0 8 0;
#X connect 7 0 0 0;
#X coords 0 -1 1 1 25 40 1 100 100;
#X restore 255 31 pd fly;
#N canvas 635 117 311 387 fly 0;
#X obj 105 -46 cos;
#X floatatom 105 -23 5 0 0 0 - - -;
#X obj 105 27 f;
#X obj 105 0 t f b f;
#X obj 105 51 <;
#X obj 105 74 change;
#X obj 105 120 bng 15 250 50 0 empty empty empty 17 7 0 10 -262144
-1 -1;
#X obj 105 -84 inlet;
#X obj 105 147 outlet;
#X connect 0 0 1 0;
#X connect 1 0 3 0;
#X connect 2 0 4 0;
#X connect 3 0 2 1;
#X connect 3 1 2 0;
#X connect 3 2 4 1;
#X connect 4 0 5 0;
#X connect 5 0 6 0;
#X connect 6 0 8 0;
#X connect 7 0 0 0;
#X coords 0 -1 1 1 25 40 1 100 100;
#X restore 314 31 pd fly;
#X obj 21 112 mixer;
#X obj 354 112 master;
#X obj 19 -142 random 8;
#X obj 77 78 snd 400;
#X obj 137 78 snd 560;
#X obj 195 78 snd 620;
#X obj 255 78 snd 340;
#X obj 314 78 snd 520;
#X obj 18 78 snd 500;
#X obj 26 -3 gemgraph_oooooo;
#X floatatom 183 -196 5 0 0 2 range - -;
#X obj 522 5 monome;
#X obj 522 -17 r tomonome;
#X obj 382 -122 + 1;
#X floatatom 382 -101 5 0 0 0 - - -;
#X obj 382 -142 random 8;
#X obj 449 -122 + 1;
#X floatatom 449 -101 5 0 0 0 - - -;
#X obj 449 -142 random 8;
#X obj 138 -78 osci 2;
#X obj 78 -78 osci 1;
#X obj 196 -78 osci 3;
#X obj 256 -78 osci 4;
#X obj 315 -78 osci 5;
#X obj 382 -78 osci 6;
#X obj 449 -78 osci 7;
#X obj 30 -50 mono 0;
#N canvas 635 117 311 387 fly 0;
#X obj 105 -46 cos;
#X floatatom 105 -23 5 0 0 0 - - -;
#X obj 105 27 f;
#X obj 105 0 t f b f;
#X obj 105 51 <;
#X obj 105 74 change;
#X obj 105 120 bng 15 250 50 0 empty empty empty 17 7 0 10 -262144
-1 -1;
#X obj 105 -84 inlet;
#X obj 105 147 outlet;
#X connect 0 0 1 0;
#X connect 1 0 3 0;
#X connect 2 0 4 0;
#X connect 3 0 2 1;
#X connect 3 1 2 0;
#X connect 3 2 4 1;
#X connect 4 0 5 0;
#X connect 5 0 6 0;
#X connect 6 0 8 0;
#X connect 7 0 0 0;
#X coords 0 -1 1 1 25 40 1 100 100;
#X restore 370 31 pd fly;
#N canvas 635 117 311 387 fly 0;
#X obj 105 -46 cos;
#X floatatom 105 -23 5 0 0 0 - - -;
#X obj 105 27 f;
#X obj 105 0 t f b f;
#X obj 105 51 <;
#X obj 105 74 change;
#X obj 105 120 bng 15 250 50 0 empty empty empty 17 7 0 10 -262144
-1 -1;
#X obj 105 -84 inlet;
#X obj 105 147 outlet;
#X connect 0 0 1 0;
#X connect 1 0 3 0;
#X connect 2 0 4 0;
#X connect 3 0 2 1;
#X connect 3 1 2 0;
#X connect 3 2 4 1;
#X connect 4 0 5 0;
#X connect 5 0 6 0;
#X connect 6 0 8 0;
#X connect 7 0 0 0;
#X coords 0 -1 1 1 25 40 1 100 100;
#X restore 429 31 pd fly;
#X obj 370 78 snd 200;
#X obj 429 78 snd 260;
#X obj 89 -50 mono 1;
#X obj 152 -50 mono 2;
#X obj 206 -50 mono 3;
#X obj 265 -50 mono 4;
#X obj 328 -50 mono 5;
#X obj 382 -50 mono 6;
#X obj 449 -49 mono 7;
#N canvas 668 338 295 139 get_analog_in 0;
#X obj 18 43 unpack 0 1 2 3 4 5;
#X obj 18 73 * 127;
#X obj 60 73 * 127;
#X obj 102 73 * 127;
#X obj 18 18 inlet;
#X obj 146 73 * 127;
#X obj 188 73 * 127;
#X obj 230 73 * 127;
#X obj 18 100 outlet;
#X obj 60 100 outlet;
#X obj 102 100 outlet;
#X obj 146 100 outlet;
#X obj 188 100 outlet;
#X obj 230 100 outlet;
#X connect 0 0 1 0;
#X connect 0 1 2 0;
#X connect 0 2 3 0;
#X connect 0 3 5 0;
#X connect 0 4 6 0;
#X connect 0 5 7 0;
#X connect 1 0 8 0;
#X connect 2 0 9 0;
#X connect 3 0 10 0;
#X connect 4 0 0 0;
#X connect 5 0 11 0;
#X connect 6 0 12 0;
#X connect 7 0 13 0;
#X restore 511 -214 pd get_analog_in;
#X obj 511 -237 arduino_uno 4;
#X floatatom 529 -183 5 0 0 0 - - -;
#X obj 529 -158 s con;
#X connect 0 0 15 0;
#X connect 0 0 16 0;
#X connect 0 0 17 0;
#X connect 0 0 18 0;
#X connect 0 0 19 0;
#X connect 0 0 29 0;
#X connect 0 0 42 0;
#X connect 0 0 45 0;
#X connect 1 0 21 0;
#X connect 1 0 36 0;
#X connect 1 0 53 0;
#X connect 2 0 3 0;
#X connect 3 0 1 0;
#X connect 4 0 5 0;
#X connect 5 0 47 0;
#X connect 6 0 7 0;
#X connect 7 0 46 0;
#X connect 8 0 9 0;
#X connect 9 0 48 0;
#X connect 10 0 11 0;
#X connect 11 0 49 0;
#X connect 12 0 13 0;
#X connect 13 0 50 0;
#X connect 14 0 0 0;
#X connect 15 0 4 0;
#X connect 16 0 6 0;
#X connect 17 0 8 0;
#X connect 18 0 10 0;
#X connect 19 0 12 0;
#X connect 21 0 35 0;
#X connect 22 0 30 0;
#X connect 23 0 31 0;
#X connect 24 0 32 0;
#X connect 25 0 33 0;
#X connect 26 0 34 0;
#X connect 27 0 28 0;
#X connect 27 1 28 1;
#X connect 27 2 28 0;
#X connect 27 3 28 1;
#X connect 27 4 28 0;
#X connect 27 5 28 1;
#X connect 27 6 28 0;
#X connect 27 7 28 1;
#X connect 29 0 2 0;
#X connect 30 0 27 0;
#X connect 30 0 27 1;
#X connect 31 0 27 2;
#X connect 31 0 27 3;
#X connect 32 0 27 2;
#X connect 32 0 27 3;
#X connect 33 0 27 4;
#X connect 33 0 27 5;
#X connect 34 0 27 4;
#X connect 34 0 27 5;
#X connect 35 0 27 0;
#X connect 35 0 27 1;
#X connect 37 0 29 1;
#X connect 37 0 15 1;
#X connect 37 0 16 1;
#X connect 37 0 17 1;
#X connect 37 0 18 1;
#X connect 37 0 19 1;
#X connect 39 0 38 0;
#X connect 40 0 41 0;
#X connect 41 0 51 0;
#X connect 42 0 40 0;
#X connect 43 0 44 0;
#X connect 44 0 52 0;
#X connect 45 0 43 0;
#X connect 46 0 23 0;
#X connect 46 0 36 2;
#X connect 46 0 59 0;
#X connect 47 0 22 0;
#X connect 47 0 36 1;
#X connect 47 0 58 0;
#X connect 48 0 24 0;
#X connect 48 0 36 3;
#X connect 48 0 60 0;
#X connect 49 0 25 0;
#X connect 49 0 36 4;
#X connect 49 0 61 0;
#X connect 50 0 26 0;
#X connect 50 0 36 5;
#X connect 50 0 62 0;
#X connect 51 0 54 0;
#X connect 51 0 63 0;
#X connect 52 0 55 0;
#X connect 52 0 64 0;
#X connect 54 0 56 0;
#X connect 55 0 57 0;
#X connect 56 0 27 6;
#X connect 56 0 27 7;
#X connect 57 0 27 6;
#X connect 57 0 27 7;
#X connect 65 1 67 0;
#X connect 66 0 65 0;
#X connect 67 0 68 0;
#X coords 0 561 1 560 85 60 0;
