#N canvas 913 172 401 332 10;
#X declare -lib flatgui;
#X declare -lib flatgui;
#X obj 136 -272 gemgraph;
#X obj 19 -416 loadbang;
#X obj 19 -307 osci 0;
#X obj 19 -351 + 1;
#X floatatom 19 -330 5 0 0 0 - - -;
#X obj 78 -351 + 1;
#X floatatom 78 -330 5 0 0 0 - - -;
#X obj 138 -351 + 1;
#X floatatom 138 -330 5 0 0 0 - - -;
#X obj 196 -351 + 1;
#X floatatom 196 -330 5 0 0 0 - - -;
#X obj 256 -351 + 1;
#X floatatom 256 -330 5 0 0 0 - - -;
#X obj 315 -351 + 1;
#X floatatom 315 -330 5 0 0 0 - - -;
#X obj 19 -435 bng 15 250 50 0 empty empty empty 17 7 0 10 -262144
-1 -1;
#X obj 78 -371 random 8;
#X obj 138 -371 random 8;
#X obj 196 -371 random 8;
#X obj 256 -371 random 8;
#X obj 315 -371 random 8;
#N canvas 390 68 318 277 UI 0;
#X obj 105 124 tgl 30 0 empty empty empty 17 7 0 10 -262144 -1 -1 1
1;
#X obj 103 73 import flatgui;
#X obj 144 119 knob 32 32 0 127 0 0 empty empty 結合強度(K) 0 -8
1 10 -262144 -1 -1 1100 1;
#X obj 167 171 / 127;
#N canvas 0 22 450 278 (subpatch) 0;
#X array obj_phase 8 float 2;
#X coords 0 278 1 277 100 70 0;
#X restore 204 73 graph;
#X msg 105 191 1;
#X obj 105 213 s clock;
#X obj 105 170 metro 30;
#X obj 167 192 * 0.5;
#X obj 167 214 s K;
#X connect 0 0 7 0;
#X connect 2 0 3 0;
#X connect 3 0 8 0;
#X connect 5 0 6 0;
#X connect 7 0 5 0;
#X connect 8 0 9 0;
#X coords 0 -1 1 1 100 60 1 100 100;
#X restore 16 -502 pd UI;
#N canvas 635 117 311 387 fly 0;
#X obj 105 -46 cos;
#X floatatom 105 -23 5 0 0 0 - - -;
#X obj 105 27 f;
#X obj 105 0 t f b f;
#X obj 105 51 <;
#X obj 105 74 change;
#X obj 105 120 bng 15 250 50 0 empty empty empty 17 7 0 10 -262144
-1 -1;
#X obj 105 -84 inlet;
#X obj 105 147 outlet;
#X connect 0 0 1 0;
#X connect 1 0 3 0;
#X connect 2 0 4 0;
#X connect 3 0 2 1;
#X connect 3 1 2 0;
#X connect 3 2 4 1;
#X connect 4 0 5 0;
#X connect 5 0 6 0;
#X connect 6 0 8 0;
#X connect 7 0 0 0;
#X coords 0 -1 1 1 25 40 1 100 100;
#X restore 19 -247 pd fly;
#N canvas 635 117 311 387 fly 0;
#X obj 105 -46 cos;
#X floatatom 105 -23 5 0 0 0 - - -;
#X obj 105 27 f;
#X obj 105 0 t f b f;
#X obj 105 51 <;
#X obj 105 74 change;
#X obj 105 120 bng 15 250 50 0 empty empty empty 17 7 0 10 -262144
-1 -1;
#X obj 105 -84 inlet;
#X obj 105 147 outlet;
#X connect 0 0 1 0;
#X connect 1 0 3 0;
#X connect 2 0 4 0;
#X connect 3 0 2 1;
#X connect 3 1 2 0;
#X connect 3 2 4 1;
#X connect 4 0 5 0;
#X connect 5 0 6 0;
#X connect 6 0 8 0;
#X connect 7 0 0 0;
#X coords 0 -1 1 1 25 40 1 100 100;
#X restore 78 -247 pd fly;
#N canvas 635 117 311 387 fly 0;
#X obj 105 -46 cos;
#X floatatom 105 -23 5 0 0 0 - - -;
#X obj 105 27 f;
#X obj 105 0 t f b f;
#X obj 105 51 <;
#X obj 105 74 change;
#X obj 105 120 bng 15 250 50 0 empty empty empty 17 7 0 10 -262144
-1 -1;
#X obj 105 -84 inlet;
#X obj 105 147 outlet;
#X connect 0 0 1 0;
#X connect 1 0 3 0;
#X connect 2 0 4 0;
#X connect 3 0 2 1;
#X connect 3 1 2 0;
#X connect 3 2 4 1;
#X connect 4 0 5 0;
#X connect 5 0 6 0;
#X connect 6 0 8 0;
#X connect 7 0 0 0;
#X coords 0 -1 1 1 25 40 1 100 100;
#X restore 138 -247 pd fly;
#N canvas 635 117 311 387 fly 0;
#X obj 105 -46 cos;
#X floatatom 105 -23 5 0 0 0 - - -;
#X obj 105 27 f;
#X obj 105 0 t f b f;
#X obj 105 51 <;
#X obj 105 74 change;
#X obj 105 120 bng 15 250 50 0 empty empty empty 17 7 0 10 -262144
-1 -1;
#X obj 105 -84 inlet;
#X obj 105 147 outlet;
#X connect 0 0 1 0;
#X connect 1 0 3 0;
#X connect 2 0 4 0;
#X connect 3 0 2 1;
#X connect 3 1 2 0;
#X connect 3 2 4 1;
#X connect 4 0 5 0;
#X connect 5 0 6 0;
#X connect 6 0 8 0;
#X connect 7 0 0 0;
#X coords 0 -1 1 1 25 40 1 100 100;
#X restore 196 -247 pd fly;
#N canvas 635 117 311 387 fly 0;
#X obj 105 -46 cos;
#X floatatom 105 -23 5 0 0 0 - - -;
#X obj 105 27 f;
#X obj 105 0 t f b f;
#X obj 105 51 <;
#X obj 105 74 change;
#X obj 105 120 bng 15 250 50 0 empty empty empty 17 7 0 10 -262144
-1 -1;
#X obj 105 -84 inlet;
#X obj 105 147 outlet;
#X connect 0 0 1 0;
#X connect 1 0 3 0;
#X connect 2 0 4 0;
#X connect 3 0 2 1;
#X connect 3 1 2 0;
#X connect 3 2 4 1;
#X connect 4 0 5 0;
#X connect 5 0 6 0;
#X connect 6 0 8 0;
#X connect 7 0 0 0;
#X coords 0 -1 1 1 25 40 1 100 100;
#X restore 256 -247 pd fly;
#N canvas 635 117 311 387 fly 0;
#X obj 105 -46 cos;
#X floatatom 105 -23 5 0 0 0 - - -;
#X obj 105 27 f;
#X obj 105 0 t f b f;
#X obj 105 51 <;
#X obj 105 74 change;
#X obj 105 120 bng 15 250 50 0 empty empty empty 17 7 0 10 -262144
-1 -1;
#X obj 105 -84 inlet;
#X obj 105 147 outlet;
#X connect 0 0 1 0;
#X connect 1 0 3 0;
#X connect 2 0 4 0;
#X connect 3 0 2 1;
#X connect 3 1 2 0;
#X connect 3 2 4 1;
#X connect 4 0 5 0;
#X connect 5 0 6 0;
#X connect 6 0 8 0;
#X connect 7 0 0 0;
#X coords 0 -1 1 1 25 40 1 100 100;
#X restore 315 -247 pd fly;
#X obj 22 -166 mixer;
#X obj 22 0 master;
#X obj 19 -371 random 8;
#X text 16 -393;
#X obj 78 -200 snd 400;
#X obj 138 -200 snd 560;
#X obj 196 -200 snd 620;
#X obj 256 -200 snd 340;
#X obj 315 -200 snd 520;
#X obj 19 -200 snd 500;
#X obj 138 -307 osci 2;
#X obj 78 -307 osci 1;
#X obj 196 -307 osci 3;
#X obj 256 -307 osci 4;
#X obj 315 -307 osci 5;
#X connect 1 0 16 0;
#X connect 1 0 17 0;
#X connect 1 0 18 0;
#X connect 1 0 19 0;
#X connect 1 0 20 0;
#X connect 1 0 30 0;
#X connect 2 0 0 0;
#X connect 2 0 22 0;
#X connect 3 0 4 0;
#X connect 4 0 2 0;
#X connect 5 0 6 0;
#X connect 6 0 39 0;
#X connect 7 0 8 0;
#X connect 8 0 38 0;
#X connect 9 0 10 0;
#X connect 10 0 40 0;
#X connect 11 0 12 0;
#X connect 12 0 41 0;
#X connect 13 0 14 0;
#X connect 14 0 42 0;
#X connect 15 0 1 0;
#X connect 16 0 5 0;
#X connect 17 0 7 0;
#X connect 18 0 9 0;
#X connect 19 0 11 0;
#X connect 20 0 13 0;
#X connect 22 0 37 0;
#X connect 23 0 32 0;
#X connect 24 0 33 0;
#X connect 25 0 34 0;
#X connect 26 0 35 0;
#X connect 27 0 36 0;
#X connect 28 0 29 0;
#X connect 28 1 29 1;
#X connect 28 2 29 0;
#X connect 28 3 29 1;
#X connect 28 4 29 0;
#X connect 28 5 29 1;
#X connect 28 6 29 0;
#X connect 28 7 29 1;
#X connect 30 0 3 0;
#X connect 32 0 28 0;
#X connect 32 0 28 1;
#X connect 33 0 28 2;
#X connect 33 0 28 3;
#X connect 34 0 28 2;
#X connect 34 0 28 3;
#X connect 35 0 28 4;
#X connect 35 0 28 5;
#X connect 36 0 28 4;
#X connect 36 0 28 5;
#X connect 37 0 28 0;
#X connect 37 0 28 1;
#X connect 38 0 0 2;
#X connect 38 0 24 0;
#X connect 39 0 0 1;
#X connect 39 0 23 0;
#X connect 40 0 0 3;
#X connect 40 0 25 0;
#X connect 41 0 0 4;
#X connect 41 0 26 0;
#X connect 42 0 0 5;
#X connect 42 0 27 0;
#X coords 0 332 1 331 85 60 0;
