#N canvas 356 22 584 377 10;
#X msg 27 37 create;
#X msg 42 56 destroy;
#X obj -12 114 tgl 15 0 empty empty empty 17 7 0 10 -262144 -1 -1 1
1;
#X msg 7 79 lighting 1;
#X obj 7 283 inlet;
#X obj -12 -7 loadbang;
#X obj 175 19 hsl 64 8 0 127 0 0 empty empty empty -2 -8 0 10 -262144
-1 -1 0 1;
#X obj 173 66 / 127;
#X obj 173 89 * 360;
#X floatatom 173 110 5 0 0 0 - - -;
#X obj 348 37 gemhead;
#X obj 7 148 gemwin;
#X msg 53 127 fullscreen 1;
#X obj 173 131 s x;
#X obj 215 131 s y;
#X obj 254 131 s z;
#X obj 175 33 hsl 64 8 0 127 0 0 empty empty empty -2 -8 0 10 -262144
-1 -1 600 1;
#X obj 215 66 / 127;
#X obj 215 89 * 360;
#X floatatom 215 110 5 0 0 0 - - -;
#X obj 175 46 hsl 64 8 0 127 0 0 empty empty empty -2 -8 0 10 -262144
-1 -1 0 1;
#X obj 254 66 / 127;
#X obj 254 89 * 360;
#X floatatom 254 110 5 0 0 0 - - -;
#X obj 348 224 square 5;
#X obj 348 60 world_light;
#X obj -12 14 t b b b b;
#X obj 207 195 color 0.25 0.25 0.25;
#X obj 348 113 rotateXYZ 110 0 0;
#X obj 348 136 rotateXYZ 0 0 45;
#X obj 348 88 translateXYZ 0 0 -5.5;
#X msg 53 106 dimen 800 480;
#X obj 348 188 ambientRGB 0.5 0.5 0.5;
#X obj 348 166 diffuseRGB 0.15 0.15 0.15;
#X obj 7 307 gemball -2.5;
#X obj 89 283 inlet;
#X obj 89 307 gemball -1.5;
#X obj 172 283 inlet;
#X obj 172 307 gemball -0.5;
#X obj 256 282 inlet;
#X obj 338 282 inlet;
#X obj 421 282 inlet;
#X obj 256 306 gemball 0.5;
#X obj 338 306 gemball 1.5;
#X obj 421 306 gemball 2.5;
#X connect 0 0 11 0;
#X connect 1 0 11 0;
#X connect 2 0 11 0;
#X connect 3 0 11 0;
#X connect 4 0 34 0;
#X connect 5 0 26 0;
#X connect 6 0 7 0;
#X connect 7 0 8 0;
#X connect 8 0 9 0;
#X connect 9 0 13 0;
#X connect 10 0 25 0;
#X connect 12 0 11 0;
#X connect 16 0 17 0;
#X connect 17 0 18 0;
#X connect 18 0 19 0;
#X connect 19 0 14 0;
#X connect 20 0 21 0;
#X connect 21 0 22 0;
#X connect 22 0 23 0;
#X connect 23 0 15 0;
#X connect 25 0 30 0;
#X connect 26 0 2 0;
#X connect 26 1 3 0;
#X connect 26 2 0 0;
#X connect 26 3 31 0;
#X connect 28 0 29 0;
#X connect 29 0 33 0;
#X connect 30 0 28 0;
#X connect 31 0 11 0;
#X connect 32 0 24 0;
#X connect 33 0 32 0;
#X connect 35 0 36 0;
#X connect 37 0 38 0;
#X connect 39 0 42 0;
#X connect 40 0 43 0;
#X connect 41 0 44 0;
