#N canvas 794 137 1007 458 10;
#X msg 27 37 create;
#X msg 42 56 destroy;
#X obj -5 288 gemhead;
#X obj -12 114 tgl 15 0 empty empty empty 17 7 0 10 -262144 -1 -1 1
1;
#X obj -5 313 world_light;
#X msg 7 79 lighting 1;
#X obj 145 287 gemhead;
#X obj 145 312 world_light;
#X obj 272 286 gemhead;
#X obj 272 311 world_light;
#X obj -5 410 sphere 0.2 40;
#X obj 145 409 sphere 0.2 40;
#X obj 272 408 sphere 0.2 40;
#X obj 108 220 inlet;
#X obj 157 220 inlet;
#X obj -12 -7 loadbang;
#X obj 175 19 hsl 64 8 0 127 0 0 empty empty empty -2 -8 0 10 -262144
-1 -1 0 1;
#X obj 173 66 / 127;
#X obj 173 89 * 360;
#X floatatom 173 110 5 0 0 0 - - -;
#X obj -5 360 rotateXYZ 0 50 30;
#X obj 145 359 rotateXYZ 0 50 30;
#X obj 272 358 rotateXYZ 0 50 30;
#X obj 348 37 gemhead;
#X obj 7 148 gemwin;
#X msg 53 127 fullscreen 1;
#N canvas 619 112 158 187 prm 0;
#X obj 30 27 inlet;
#X obj 30 67 sin;
#X obj 58 67 cos;
#X obj 30 92 * 2;
#X obj 58 92 * 2;
#X obj 30 120 abs;
#X obj 30 147 outlet;
#X obj 74 147 outlet;
#X connect 0 0 1 0;
#X connect 0 0 2 0;
#X connect 1 0 3 0;
#X connect 2 0 4 0;
#X connect 3 0 5 0;
#X connect 4 0 7 0;
#X connect 5 0 6 0;
#X restore 108 247 pd prm;
#N canvas 619 112 158 187 prm 0;
#X obj 30 27 inlet;
#X obj 30 67 sin;
#X obj 58 67 cos;
#X obj 30 92 * 2;
#X obj 58 92 * 2;
#X obj 30 120 abs;
#X obj 30 147 outlet;
#X obj 74 147 outlet;
#X connect 0 0 1 0;
#X connect 0 0 2 0;
#X connect 1 0 3 0;
#X connect 2 0 4 0;
#X connect 3 0 5 0;
#X connect 4 0 7 0;
#X connect 5 0 6 0;
#X restore 157 246 pd prm;
#X obj 204 219 inlet;
#N canvas 619 112 158 187 prm 0;
#X obj 30 27 inlet;
#X obj 30 67 sin;
#X obj 58 67 cos;
#X obj 30 92 * 2;
#X obj 58 92 * 2;
#X obj 30 120 abs;
#X obj 30 147 outlet;
#X obj 74 147 outlet;
#X connect 0 0 1 0;
#X connect 0 0 2 0;
#X connect 1 0 3 0;
#X connect 2 0 4 0;
#X connect 3 0 5 0;
#X connect 4 0 7 0;
#X connect 5 0 6 0;
#X restore 204 245 pd prm;
#X obj 28 336 r x;
#X obj 61 336 r y;
#X obj 94 336 r z;
#X obj 178 335 r x;
#X obj 211 335 r y;
#X obj 244 335 r z;
#X obj 305 334 r x;
#X obj 338 334 r y;
#X obj 371 333 r z;
#X obj 173 135 s x;
#X obj 206 135 s y;
#X obj 239 135 s z;
#X obj 175 33 hsl 64 8 0 127 0 0 empty empty empty -2 -8 0 10 -262144
-1 -1 0 1;
#X obj 215 66 / 127;
#X obj 215 89 * 360;
#X floatatom 215 110 5 0 0 0 - - -;
#X obj 175 46 hsl 64 8 0 127 0 0 empty empty empty -2 -8 0 10 -262144
-1 -1 0 1;
#X obj 254 65 / 127;
#X obj 254 88 * 360;
#X floatatom 254 109 5 0 0 0 - - -;
#X obj 408 286 gemhead;
#X obj 408 311 world_light;
#X obj 408 408 sphere 0.2 40;
#X obj 408 358 rotateXYZ 0 50 30;
#X obj 441 334 r x;
#X obj 474 334 r y;
#X obj 507 333 r z;
#X obj 261 218 inlet;
#N canvas 619 112 158 187 prm 0;
#X obj 30 27 inlet;
#X obj 30 67 sin;
#X obj 58 67 cos;
#X obj 30 92 * 2;
#X obj 58 92 * 2;
#X obj 30 120 abs;
#X obj 30 147 outlet;
#X obj 74 147 outlet;
#X connect 0 0 1 0;
#X connect 0 0 2 0;
#X connect 1 0 3 0;
#X connect 2 0 4 0;
#X connect 3 0 5 0;
#X connect 4 0 7 0;
#X connect 5 0 6 0;
#X restore 261 244 pd prm;
#X obj 145 384 translateXYZ -1 0 0;
#X obj -5 385 translateXYZ -2 0 0;
#X obj 272 383 translateXYZ 0 0 0;
#X obj 408 383 translateXYZ 1 0 0;
#X obj 554 284 gemhead;
#X obj 554 309 world_light;
#X obj 554 406 sphere 0.2 40;
#X obj 554 356 rotateXYZ 0 50 30;
#X obj 587 332 r x;
#X obj 620 332 r y;
#X obj 653 331 r z;
#X obj 517 215 inlet;
#N canvas 619 112 158 187 prm 0;
#X obj 30 27 inlet;
#X obj 30 67 sin;
#X obj 58 67 cos;
#X obj 30 92 * 2;
#X obj 58 92 * 2;
#X obj 30 120 abs;
#X obj 30 147 outlet;
#X obj 74 147 outlet;
#X connect 0 0 1 0;
#X connect 0 0 2 0;
#X connect 1 0 3 0;
#X connect 2 0 4 0;
#X connect 3 0 5 0;
#X connect 4 0 7 0;
#X connect 5 0 6 0;
#X restore 517 241 pd prm;
#X obj 554 381 translateXYZ 2 0 0;
#X obj 701 285 gemhead;
#X obj 701 310 world_light;
#X obj 701 407 sphere 0.2 40;
#X obj 701 357 rotateXYZ 0 50 30;
#X obj 734 333 r x;
#X obj 767 333 r y;
#X obj 800 332 r z;
#X obj 664 216 inlet;
#N canvas 619 112 158 187 prm 0;
#X obj 30 27 inlet;
#X obj 30 67 sin;
#X obj 58 67 cos;
#X obj 30 92 * 2;
#X obj 58 92 * 2;
#X obj 30 120 abs;
#X obj 30 147 outlet;
#X obj 74 147 outlet;
#X connect 0 0 1 0;
#X connect 0 0 2 0;
#X connect 1 0 3 0;
#X connect 2 0 4 0;
#X connect 3 0 5 0;
#X connect 4 0 7 0;
#X connect 5 0 6 0;
#X restore 664 242 pd prm;
#X obj 701 382 translateXYZ 3 0 0;
#X msg 53 106 dimen 1024 600;
#X floatatom 415 37 5 0 0 0 - - -;
#X floatatom 458 38 5 0 0 0 - - -;
#X obj 348 122 rotateXYZ 0 50 30;
#X obj 348 88 translateXYZ 0 0 -3;
#X obj 348 198 square 5;
#X obj 348 175 color 0.2 0.2 0.2;
#X obj 348 148 rotateXYZ -80 0 0;
#X obj 348 60 world_light;
#X obj -12 14 t b b b b;
#X connect 0 0 24 0;
#X connect 1 0 24 0;
#X connect 2 0 4 0;
#X connect 3 0 24 0;
#X connect 4 0 20 0;
#X connect 5 0 24 0;
#X connect 6 0 7 0;
#X connect 7 0 21 0;
#X connect 8 0 9 0;
#X connect 9 0 22 0;
#X connect 13 0 26 0;
#X connect 14 0 27 0;
#X connect 15 0 92 0;
#X connect 16 0 17 0;
#X connect 17 0 18 0;
#X connect 18 0 19 0;
#X connect 19 0 39 0;
#X connect 20 0 60 0;
#X connect 21 0 59 0;
#X connect 22 0 61 0;
#X connect 23 0 91 0;
#X connect 26 0 60 2;
#X connect 26 1 60 3;
#X connect 27 0 59 2;
#X connect 27 1 59 3;
#X connect 28 0 29 0;
#X connect 29 0 61 2;
#X connect 29 1 61 3;
#X connect 30 0 20 1;
#X connect 31 0 20 2;
#X connect 32 0 20 3;
#X connect 33 0 21 1;
#X connect 34 0 21 2;
#X connect 35 0 21 3;
#X connect 36 0 22 1;
#X connect 37 0 22 2;
#X connect 38 0 22 3;
#X connect 42 0 43 0;
#X connect 43 0 44 0;
#X connect 44 0 45 0;
#X connect 45 0 40 0;
#X connect 46 0 47 0;
#X connect 47 0 48 0;
#X connect 48 0 49 0;
#X connect 49 0 41 0;
#X connect 50 0 51 0;
#X connect 51 0 53 0;
#X connect 53 0 62 0;
#X connect 54 0 53 1;
#X connect 55 0 53 2;
#X connect 56 0 53 3;
#X connect 57 0 58 0;
#X connect 58 0 62 2;
#X connect 58 1 62 3;
#X connect 59 0 11 0;
#X connect 60 0 10 0;
#X connect 61 0 12 0;
#X connect 62 0 52 0;
#X connect 63 0 64 0;
#X connect 64 0 66 0;
#X connect 66 0 72 0;
#X connect 67 0 66 1;
#X connect 68 0 66 2;
#X connect 69 0 66 3;
#X connect 70 0 71 0;
#X connect 71 0 72 2;
#X connect 71 1 72 3;
#X connect 72 0 65 0;
#X connect 73 0 74 0;
#X connect 74 0 76 0;
#X connect 76 0 82 0;
#X connect 77 0 76 1;
#X connect 78 0 76 2;
#X connect 79 0 76 3;
#X connect 80 0 81 0;
#X connect 81 0 82 2;
#X connect 81 1 82 3;
#X connect 82 0 75 0;
#X connect 83 0 24 0;
#X connect 84 0 90 1;
#X connect 85 0 86 2;
#X connect 86 0 90 0;
#X connect 87 0 86 0;
#X connect 89 0 88 0;
#X connect 90 0 89 0;
#X connect 91 0 87 0;
#X connect 92 0 3 0;
#X connect 92 1 5 0;
#X connect 92 2 0 0;
#X connect 92 3 83 0;
