#N canvas 0 22 426 550 10;
#X obj 23 76 sin;
#X obj 23 97 abs;
#X floatatom 23 119 5 0 0 0 - - -;
#X floatatom 23 185 5 0 0 0 - - -;
#X obj 23 163 i;
#X obj 23 141 * 8;
#N canvas 119 180 432 461 radiobuttonmode_v 0;
#X floatatom 156 248 5 0 0 0 - - -;
#X obj 243 176 hradio 15 1 0 8 empty empty empty 0 -8 0 10 -262144
-1 -1 3;
#X obj 156 199 until;
#X obj 156 224 counter 0 7;
#X msg 194 176 clear;
#X msg 156 176 8;
#X obj 175 149 t b b f;
#X text 184 359 押下したボタンはon それ以外はoff;
#X obj 23 342 f;
#X text 91 247 0~7でループ;
#X obj 156 279 t b f f;
#X obj 68 82 t l l;
#X text 36 102 row;
#X text 116 102 col;
#X text 21 323 row;
#X obj 68 52 inlet;
#X obj 23 433 outlet;
#X text 20 27 radio button モード;
#X text 110 52 0 0 0;
#X text 71 432 0 0 0;
#X obj 199 311 ==;
#X obj 38 121 unpack f;
#X obj 118 121 unpack f f;
#X obj 23 406 pack f f f;
#X connect 0 0 10 0;
#X connect 2 0 3 0;
#X connect 3 0 0 0;
#X connect 4 0 3 0;
#X connect 5 0 2 0;
#X connect 6 0 5 0;
#X connect 6 1 4 0;
#X connect 6 2 1 0;
#X connect 6 2 20 1;
#X connect 8 0 23 0;
#X connect 10 0 8 0;
#X connect 10 1 23 1;
#X connect 10 2 20 0;
#X connect 11 0 22 0;
#X connect 11 1 21 0;
#X connect 15 0 11 0;
#X connect 20 0 23 2;
#X connect 21 0 8 1;
#X connect 22 1 6 0;
#X connect 23 0 16 0;
#X restore 23 308 pd radiobuttonmode_v;
#X text 23 325 ラジオボタン（縦）;
#X obj 23 206 change;
#X obj 23 228 t b f;
#X obj 23 280 pack 0 f 1;
#X obj 23 342 s tomonome;
#X obj 23 48 inlet;
#X obj 23 254 \$1;
#N canvas 659 276 432 461 fadermode 0;
#X floatatom 156 248 5 0 0 0 - - -;
#X obj 156 199 until;
#X obj 156 224 counter 0 7;
#X msg 194 176 clear;
#X msg 156 176 8;
#X obj 175 149 t b b f;
#X obj 23 406 pack 0 0 0;
#X obj 23 342 f;
#X text 91 247 0~7でループ;
#X obj 156 279 t b f f;
#X obj 68 82 t l l;
#X obj 38 121 unpack 0;
#X text 36 102 row;
#X obj 118 121 unpack 0 0;
#X text 116 102 col;
#X text 21 323 row;
#X obj 68 52 inlet;
#X obj 23 433 outlet;
#X text 110 52 0 0 0;
#X text 71 432 0 0 0;
#X text 20 27 fader モード;
#X obj 247 176 expr ($f1/7)*127;
#X obj 250 202 hsl 128 8 0 127 0 0 empty empty empty -2 -8 0 10 -262144
-1 -1 3629 1;
#X obj 199 311 >=;
#X text 198 336 押下した座標はon それ以下の座標はoff
;
#X connect 0 0 9 0;
#X connect 1 0 2 0;
#X connect 2 0 0 0;
#X connect 3 0 2 0;
#X connect 4 0 1 0;
#X connect 5 0 4 0;
#X connect 5 1 3 0;
#X connect 5 2 21 0;
#X connect 5 2 23 1;
#X connect 6 0 17 0;
#X connect 7 0 6 0;
#X connect 9 0 7 0;
#X connect 9 1 6 1;
#X connect 9 2 23 0;
#X connect 10 0 13 0;
#X connect 10 1 11 0;
#X connect 11 0 7 1;
#X connect 13 1 5 0;
#X connect 16 0 10 0;
#X connect 21 0 22 0;
#X connect 23 0 6 2;
#X restore 155 308 pd fadermode;
#X connect 0 0 1 0;
#X connect 1 0 2 0;
#X connect 2 0 5 0;
#X connect 3 0 8 0;
#X connect 4 0 3 0;
#X connect 5 0 4 0;
#X connect 6 0 11 0;
#X connect 8 0 9 0;
#X connect 9 0 13 0;
#X connect 9 1 10 1;
#X connect 10 0 6 0;
#X connect 12 0 0 0;
#X connect 13 0 10 0;
#X connect 14 0 11 0;
