#N canvas 622 196 403 476 10;
#X declare -lib mrpeach;
#N canvas 0 22 450 278 (subpatch) 0;
#X array ar_push 256 float 2;
#X coords 0 278 1 277 512 20 0;
#X restore 13 71 graph;
#X text 12 28 monome;
#X obj 14 336 vradio 12 1 0 8 empty empty empty 0 -8 0 10 -262144 -1
-1 0;
#X text 28 331 push;
#X text 28 345 toggle;
#N canvas 0 22 450 278 (subpatch) 0;
#X array ar_toggle 256 float 2;
#X coords 0 278 1 277 512 20 0;
#X restore 13 94 graph;
#N canvas 0 22 450 278 (subpatch) 0;
#X array ar_fader1 256 float 2;
#X coords 0 278 1 277 512 20 0;
#X restore 13 116 graph;
#N canvas 0 22 450 278 (subpatch) 0;
#X array ar_fader2 256 float 2;
#X coords 0 278 1 277 512 20 0;
#X restore 14 139 graph;
#N canvas 0 22 450 278 (subpatch) 0;
#X array ar_global 256 float 2;
#X coords 0 278 1 277 512 20 0;
#X restore 13 47 graph;
#X text 52 46 global;
#X text 53 69 push;
#X text 53 94 toggle;
#N canvas 196 54 278 227 sendMonome 0;
#X obj 28 177 udpsend;
#X msg 99 124 connect 127.0.0.1 8080;
#X msg 99 147 disconnect;
#X obj 28 98 packOSC;
#X obj 28 74 prepend send /pd_mlr/led;
#X obj 99 99 loadbang;
#X obj 28 52 r toMonome;
#X connect 1 0 0 0;
#X connect 2 0 0 0;
#X connect 3 0 0 0;
#X connect 4 0 3 0;
#X connect 5 0 1 0;
#X connect 6 0 4 0;
#X restore 13 285 pd sendMonome;
#N canvas 807 302 207 146 fromMonome 0;
#X obj 31 52 unpackOSC;
#X obj 31 76 routeOSC /pd_mlr/press;
#X obj 31 24 udpreceive 8000;
#X obj 31 103 s fromMonome;
#X connect 0 0 1 0;
#X connect 1 0 3 0;
#X connect 2 0 0 0;
#X restore 13 259 pd fromMonome;
#N canvas 470 78 330 578 monome_toggle 0;
#X floatatom 73 166 5 0 0 2 col - -;
#X floatatom 107 166 5 0 0 2 row - -;
#X floatatom 142 166 5 0 0 2 val - -;
#X floatatom 73 238 5 0 0 2 index - -;
#X obj 73 432 i;
#X obj 100 291 spigot;
#X floatatom 100 384 5 0 0 0 - - -;
#X text 71 185 array上のindexを計算;
#X text 80 453 monomeのステータスをarrayに格納;
#X text 6 493 arrayから全ボタンのステータスを取得;
#X text 108 314 指定したindexのステータスを反転;
#X text 144 244 ボタン押下時のみ処理を続行;
#X obj 106 72 r mode;
#X obj 73 112 spigot;
#X obj 106 92 == 1;
#X obj 8 472 r gate1;
#X obj 8 537 s toMonome;
#X obj 73 47 r fromMonome;
#X obj 100 336 tabread ar_toggle;
#X obj 73 472 tabwrite ar_toggle;
#N canvas 397 45 345 425 readData 0;
#X floatatom 113 181 5 0 0 2 index - -;
#X floatatom 198 282 5 0 0 2 val - -;
#X obj 113 121 until;
#X floatatom 152 282 5 0 0 2 row - -;
#X obj 152 251 i;
#X floatatom 36 282 5 0 0 2 col - -;
#X obj 180 334 i;
#X obj 208 334 i;
#X text 112 78 arrayから全ボタンのステータスを取得;
#X obj 113 41 inlet;
#X msg 113 98 240;
#X obj 113 146 counter 16 255;
#X text 111 63 グローバルエリア以外;
#X obj 180 388 outlet;
#X obj 198 251 tabread ar_toggle;
#X obj 152 227 expr $f1/16;
#X obj 36 251 expr $f1-($f2*16);
#X obj 180 360 pack f f f;
#X obj 198 303 t b b f;
#X obj 113 203 t f f f;
#X connect 0 0 19 0;
#X connect 1 0 18 0;
#X connect 2 0 11 0;
#X connect 3 0 7 1;
#X connect 3 0 16 1;
#X connect 4 0 3 0;
#X connect 5 0 6 1;
#X connect 6 0 17 0;
#X connect 7 0 17 1;
#X connect 9 0 10 0;
#X connect 10 0 2 0;
#X connect 11 0 0 0;
#X connect 14 0 1 0;
#X connect 15 0 4 0;
#X connect 16 0 5 0;
#X connect 17 0 13 0;
#X connect 18 0 6 0;
#X connect 18 1 7 0;
#X connect 18 2 17 2;
#X connect 19 0 14 0;
#X connect 19 1 16 0;
#X connect 19 2 15 0;
#X restore 8 514 pd readData;
#X obj 73 134 unpack f f f;
#X obj 133 265 expr if($f1==1 \, 1 \, 0);
#X obj 73 262 t f f;
#X obj 100 360 expr if($f1==1 \, 0 \, 1);
#X obj 73 405 t b f;
#X obj 73 204 expr $f1+($f2*16);
#X connect 0 0 26 0;
#X connect 1 0 26 1;
#X connect 2 0 22 0;
#X connect 3 0 23 0;
#X connect 4 0 19 0;
#X connect 5 0 18 0;
#X connect 6 0 4 1;
#X connect 12 0 14 0;
#X connect 13 0 21 0;
#X connect 14 0 13 1;
#X connect 15 0 20 0;
#X connect 17 0 13 0;
#X connect 18 0 24 0;
#X connect 20 0 16 0;
#X connect 21 0 0 0;
#X connect 21 1 1 0;
#X connect 21 2 2 0;
#X connect 22 0 5 1;
#X connect 23 0 25 0;
#X connect 23 1 5 0;
#X connect 24 0 6 0;
#X connect 25 0 4 0;
#X connect 25 0 20 0;
#X connect 25 1 19 1;
#X connect 26 0 3 0;
#X restore 156 89 pd monome_toggle;
#N canvas 534 161 340 441 monome_push 0;
#X floatatom -1786 170 5 0 0 2 col - -;
#X floatatom -1752 170 5 0 0 2 row - -;
#X floatatom -1717 170 5 0 0 2 val - -;
#X floatatom -1786 242 5 0 0 2 index - -;
#X obj -1786 296 i;
#X text -1788 189 array上のindexを計算;
#X text -1779 317 monomeのステータスをarrayに格納;
#X text -1853 357 arrayから全ボタンのステータスを取得
;
#X obj -1753 76 r mode;
#X obj -1786 116 spigot;
#X obj -1851 401 s toMonome;
#X obj -1786 51 r fromMonome;
#X obj -1753 96 == 0;
#X obj -1851 336 r gate0;
#X obj -1786 336 tabwrite ar_push;
#N canvas 397 45 345 425 readData 0;
#X floatatom 113 181 5 0 0 2 index - -;
#X floatatom 198 282 5 0 0 2 val - -;
#X obj 113 121 until;
#X floatatom 152 282 5 0 0 2 row - -;
#X obj 152 251 i;
#X floatatom 36 282 5 0 0 2 col - -;
#X obj 180 334 i;
#X obj 208 334 i;
#X text 112 78 arrayから全ボタンのステータスを取得;
#X obj 113 41 inlet;
#X msg 113 98 240;
#X obj 113 146 counter 16 255;
#X text 111 63 グローバルエリア以外;
#X obj 180 388 outlet;
#X obj 198 251 tabread ar_push;
#X obj 113 203 t f f f;
#X obj 152 227 expr $f1/16;
#X obj 36 251 expr $f1-($f2*16);
#X obj 198 303 t b b f;
#X obj 180 360 pack f f f;
#X connect 0 0 15 0;
#X connect 1 0 18 0;
#X connect 2 0 11 0;
#X connect 3 0 7 1;
#X connect 3 0 17 1;
#X connect 4 0 3 0;
#X connect 5 0 6 1;
#X connect 6 0 19 0;
#X connect 7 0 19 1;
#X connect 9 0 10 0;
#X connect 10 0 2 0;
#X connect 11 0 0 0;
#X connect 14 0 1 0;
#X connect 15 0 14 0;
#X connect 15 1 17 0;
#X connect 15 2 16 0;
#X connect 16 0 4 0;
#X connect 17 0 5 0;
#X connect 18 0 6 0;
#X connect 18 1 7 0;
#X connect 18 2 19 2;
#X connect 19 0 13 0;
#X restore -1851 378 pd readData;
#X obj -1786 138 unpack f f f;
#X obj -1786 208 expr $f1+($f2*16);
#X obj -1786 269 t b f;
#X connect 0 0 17 0;
#X connect 1 0 17 1;
#X connect 2 0 4 1;
#X connect 3 0 18 0;
#X connect 4 0 14 0;
#X connect 8 0 12 0;
#X connect 9 0 16 0;
#X connect 11 0 9 0;
#X connect 12 0 9 1;
#X connect 13 0 15 0;
#X connect 15 0 10 0;
#X connect 16 0 0 0;
#X connect 16 1 1 0;
#X connect 16 2 2 0;
#X connect 17 0 3 0;
#X connect 18 0 4 0;
#X connect 18 0 15 0;
#X connect 18 1 14 1;
#X restore 156 66 pd monome_push;
#N canvas 565 99 374 527 global 0;
#X floatatom 61 127 5 0 0 2 col - -;
#X floatatom 95 127 5 0 0 2 row - -;
#X floatatom 130 127 5 0 0 2 val - -;
#X obj 95 148 == 0;
#X obj 61 194 spigot;
#X obj 130 148 == 1;
#X floatatom 61 219 5 0 0 0 - - -;
#X text 77 422 arrayから全ボタンのステータスを取得;
#X obj 79 270 until;
#X msg 79 246 16;
#X obj 79 294 counter 0 15;
#X obj 46 350 ==;
#X obj 79 401 sel 0;
#X obj 95 171 &&;
#X obj 79 466 s toMonome;
#X obj 61 62 r fromMonome;
#X obj 46 375 tabwrite ar_global;
#N canvas 397 45 352 428 readData 0;
#X floatatom 113 181 5 0 0 2 index - -;
#X floatatom 198 282 5 0 0 2 val - -;
#X obj 113 121 until;
#X floatatom 152 282 5 0 0 2 row - -;
#X obj 152 251 i;
#X floatatom 36 282 5 0 0 2 col - -;
#X obj 180 334 i;
#X obj 208 334 i;
#X text 112 78 arrayから全ボタンのステータスを取得;
#X obj 113 37 inlet;
#X msg 113 98 16;
#X obj 113 146 counter 0 15;
#X obj 180 385 outlet;
#X obj 198 251 tabread ar_global;
#X text 111 63 グローバルエリア;
#X obj 113 203 t f f f;
#X obj 198 303 t b b f;
#X obj 180 360 pack f f f;
#X obj 152 227 expr $f1/16;
#X obj 36 251 expr $f1-($f2*16);
#X connect 0 0 15 0;
#X connect 1 0 16 0;
#X connect 2 0 11 0;
#X connect 3 0 7 1;
#X connect 3 0 19 1;
#X connect 4 0 3 0;
#X connect 5 0 6 1;
#X connect 6 0 17 0;
#X connect 7 0 17 1;
#X connect 9 0 10 0;
#X connect 10 0 2 0;
#X connect 11 0 0 0;
#X connect 13 0 1 0;
#X connect 15 0 13 0;
#X connect 15 1 19 0;
#X connect 15 2 18 0;
#X connect 16 0 6 0;
#X connect 16 1 7 0;
#X connect 16 2 17 2;
#X connect 17 0 12 0;
#X connect 18 0 4 0;
#X connect 19 0 5 0;
#X restore 79 443 pd readData;
#X obj 178 249 change;
#X obj 178 325 s gate0;
#X obj 196 348 s gate1;
#X obj 215 375 s gate2;
#X obj 234 323 s gate3;
#X obj 190 274 s mode;
#X obj 178 299 route 0 1 2 3 4 5 6;
#X obj 248 348 s gate4;
#X obj 266 375 s gate5;
#X obj 79 317 t f f;
#X obj 61 95 unpack f f f;
#X connect 0 0 4 0;
#X connect 1 0 3 0;
#X connect 2 0 5 0;
#X connect 3 0 13 0;
#X connect 4 0 6 0;
#X connect 5 0 13 1;
#X connect 6 0 11 1;
#X connect 6 0 9 0;
#X connect 6 0 18 0;
#X connect 8 0 10 0;
#X connect 9 0 8 0;
#X connect 10 0 27 0;
#X connect 11 0 16 0;
#X connect 12 0 17 0;
#X connect 13 0 4 1;
#X connect 15 0 28 0;
#X connect 17 0 14 0;
#X connect 18 0 23 0;
#X connect 18 0 24 0;
#X connect 24 0 19 0;
#X connect 24 1 20 0;
#X connect 24 2 21 0;
#X connect 24 3 22 0;
#X connect 24 4 25 0;
#X connect 24 5 26 0;
#X connect 27 0 11 0;
#X connect 27 0 12 0;
#X connect 27 1 16 1;
#X connect 28 0 0 0;
#X connect 28 1 1 0;
#X connect 28 2 2 0;
#X restore 156 42 pd global;
#X obj 14 313 r mode;
#X text 28 358 fader1;
#X text 28 370 fader2;
#X text 28 382 radio button;
#N canvas 393 104 380 594 monome_fader1 0;
#X floatatom 152 132 5 0 0 2 col - -;
#X floatatom 186 132 5 0 0 2 row - -;
#X floatatom 221 132 5 0 0 2 val - -;
#X obj 152 220 spigot;
#X obj 221 176 == 1;
#X obj 186 176 > 0;
#X floatatom 152 243 5 0 0 0 - - -;
#X obj 152 314 until;
#X msg 152 290 16;
#X obj 152 338 counter 0 15;
#X obj 185 37 r mode;
#X obj 152 77 spigot;
#X obj 185 57 == 2;
#X floatatom 33 255 5 0 0 2 index - -;
#X text 32 202 array上のindexを計算;
#X obj 186 198 &&;
#X text 171 512 arrayから全ボタンのステータスを取得
;
#X obj 173 488 r gate2;
#X obj 152 361 * 16;
#X obj 152 383 +;
#X obj 86 439 >=;
#X obj 173 557 s toMonome;
#X obj 152 15 r fromMonome;
#X obj 86 464 tabwrite ar_fader1;
#N canvas 397 45 326 418 readData 0;
#X floatatom 113 181 5 0 0 2 index - -;
#X floatatom 198 282 5 0 0 2 val - -;
#X obj 113 121 until;
#X floatatom 152 282 5 0 0 2 row - -;
#X obj 152 251 i;
#X floatatom 36 282 5 0 0 2 col - -;
#X obj 180 334 i;
#X obj 208 334 i;
#X text 112 78 arrayから全ボタンのステータスを取得;
#X obj 113 41 inlet;
#X msg 113 98 240;
#X obj 113 146 counter 16 255;
#X text 111 63 グローバルエリア以外;
#X obj 180 385 outlet;
#X obj 198 251 tabread ar_fader1;
#X obj 113 203 t f f f;
#X obj 152 227 expr $f1/16;
#X obj 36 251 expr $f1-($f2*16);
#X obj 198 303 t b b f;
#X obj 180 360 pack f f f;
#X connect 0 0 15 0;
#X connect 1 0 18 0;
#X connect 2 0 11 0;
#X connect 3 0 7 1;
#X connect 3 0 17 1;
#X connect 4 0 3 0;
#X connect 5 0 6 1;
#X connect 6 0 19 0;
#X connect 7 0 19 1;
#X connect 9 0 10 0;
#X connect 10 0 2 0;
#X connect 11 0 0 0;
#X connect 14 0 1 0;
#X connect 15 0 14 0;
#X connect 15 1 17 0;
#X connect 15 2 16 0;
#X connect 16 0 4 0;
#X connect 17 0 5 0;
#X connect 18 0 6 0;
#X connect 18 1 7 0;
#X connect 18 2 19 2;
#X connect 19 0 13 0;
#X restore 173 532 pd readData;
#X obj 152 100 unpack f f f;
#X obj 33 221 expr $f1+($f2*16);
#X obj 152 265 t f f;
#X obj 152 406 t f f;
#X obj 152 155 t f f;
#X obj 186 155 t f f;
#X connect 0 0 29 0;
#X connect 1 0 30 0;
#X connect 2 0 4 0;
#X connect 3 0 6 0;
#X connect 4 0 15 1;
#X connect 5 0 15 0;
#X connect 6 0 27 0;
#X connect 7 0 9 0;
#X connect 8 0 7 0;
#X connect 9 0 18 0;
#X connect 10 0 12 0;
#X connect 11 0 25 0;
#X connect 12 0 11 1;
#X connect 13 0 20 1;
#X connect 15 0 3 1;
#X connect 17 0 24 0;
#X connect 18 0 19 0;
#X connect 19 0 28 0;
#X connect 20 0 23 0;
#X connect 22 0 11 0;
#X connect 24 0 21 0;
#X connect 25 0 0 0;
#X connect 25 1 1 0;
#X connect 25 2 2 0;
#X connect 26 0 13 0;
#X connect 27 0 8 0;
#X connect 27 1 19 1;
#X connect 28 0 24 0;
#X connect 28 0 20 0;
#X connect 28 1 23 1;
#X connect 29 0 3 0;
#X connect 29 1 26 0;
#X connect 30 0 5 0;
#X connect 30 1 26 1;
#X restore 156 113 pd monome_fader1;
#N canvas 393 104 380 594 monome_fader2 0;
#X floatatom 152 127 5 0 0 2 col - -;
#X floatatom 186 127 5 0 0 2 row - -;
#X floatatom 221 127 5 0 0 2 val - -;
#X obj 152 220 spigot;
#X obj 221 176 == 1;
#X obj 186 176 > 0;
#X floatatom 152 243 5 0 0 0 - - -;
#X obj 152 314 until;
#X msg 152 290 16;
#X obj 152 338 counter 0 15;
#X obj 185 32 r mode;
#X obj 152 72 spigot;
#X floatatom 33 255 5 0 0 2 index - -;
#X text 32 202 array上のindexを計算;
#X obj 186 198 &&;
#X text 171 512 arrayから全ボタンのステータスを取得
;
#X obj 152 361 * 16;
#X obj 152 383 +;
#X obj 86 439 >=;
#X obj 173 557 s toMonome;
#X obj 152 10 r fromMonome;
#X obj 185 52 == 3;
#X obj 173 488 r gate3;
#X obj 86 464 tabwrite ar_fader2;
#N canvas 397 45 326 418 readData 0;
#X floatatom 113 181 5 0 0 2 index - -;
#X floatatom 198 282 5 0 0 2 val - -;
#X obj 113 121 until;
#X floatatom 152 282 5 0 0 2 row - -;
#X obj 152 251 i;
#X floatatom 36 282 5 0 0 2 col - -;
#X obj 180 334 i;
#X obj 208 334 i;
#X text 112 78 arrayから全ボタンのステータスを取得;
#X obj 113 41 inlet;
#X msg 113 98 240;
#X obj 113 146 counter 16 255;
#X text 111 63 グローバルエリア以外;
#X obj 180 385 outlet;
#X obj 198 251 tabread ar_fader2;
#X obj 113 203 t f f f;
#X obj 36 251 expr $f1-($f2*16);
#X obj 152 227 expr $f1/16;
#X obj 198 303 t b b f;
#X obj 180 360 pack f f f;
#X connect 0 0 15 0;
#X connect 1 0 18 0;
#X connect 2 0 11 0;
#X connect 3 0 7 1;
#X connect 3 0 16 1;
#X connect 4 0 3 0;
#X connect 5 0 6 1;
#X connect 6 0 19 0;
#X connect 7 0 19 1;
#X connect 9 0 10 0;
#X connect 10 0 2 0;
#X connect 11 0 0 0;
#X connect 14 0 1 0;
#X connect 15 0 14 0;
#X connect 15 1 16 0;
#X connect 15 2 17 0;
#X connect 16 0 5 0;
#X connect 17 0 4 0;
#X connect 18 0 6 0;
#X connect 18 1 7 0;
#X connect 18 2 19 2;
#X connect 19 0 13 0;
#X restore 173 532 pd readData;
#X obj 152 95 unpack f f f;
#X obj 33 221 expr $f1+($f2*16);
#X obj 152 265 t f f;
#X obj 152 406 t f f;
#X obj 152 151 t f f;
#X obj 186 151 t f f;
#X connect 0 0 29 0;
#X connect 1 0 30 0;
#X connect 2 0 4 0;
#X connect 3 0 6 0;
#X connect 4 0 14 1;
#X connect 5 0 14 0;
#X connect 6 0 27 0;
#X connect 7 0 9 0;
#X connect 8 0 7 0;
#X connect 9 0 16 0;
#X connect 10 0 21 0;
#X connect 11 0 25 0;
#X connect 12 0 18 1;
#X connect 14 0 3 1;
#X connect 16 0 17 0;
#X connect 17 0 28 0;
#X connect 18 0 23 0;
#X connect 20 0 11 0;
#X connect 21 0 11 1;
#X connect 22 0 24 0;
#X connect 24 0 19 0;
#X connect 25 0 0 0;
#X connect 25 1 1 0;
#X connect 25 2 2 0;
#X connect 26 0 12 0;
#X connect 27 0 8 0;
#X connect 27 1 17 1;
#X connect 28 0 24 0;
#X connect 28 0 18 0;
#X connect 28 1 23 1;
#X connect 29 0 3 0;
#X connect 29 1 26 0;
#X connect 30 0 5 0;
#X connect 30 1 26 1;
#X restore 156 137 pd monome_fader2;
#N canvas 368 22 356 649 radio 0;
#X floatatom 72 144 5 0 0 2 col - -;
#X floatatom 106 144 5 0 0 2 row - -;
#X floatatom 141 144 5 0 0 2 val - -;
#X obj 72 242 spigot;
#X obj 141 196 == 1;
#X text 70 568 arrayから全ボタンのステータスを取得;
#X obj 72 442 until;
#X msg 72 418 16;
#X obj 72 466 counter 0 15;
#X obj 84 518 ==;
#X obj 106 219 &&;
#X obj 72 612 s toMonome;
#N canvas 397 45 352 428 readData 0;
#X floatatom 113 181 5 0 0 2 index - -;
#X floatatom 198 282 5 0 0 2 val - -;
#X obj 113 121 until;
#X floatatom 152 282 5 0 0 2 row - -;
#X obj 152 251 i;
#X floatatom 36 282 5 0 0 2 col - -;
#X obj 180 334 i;
#X obj 208 334 i;
#X text 112 78 arrayから全ボタンのステータスを取得;
#X obj 113 37 inlet;
#X obj 180 385 outlet;
#X obj 198 251 tabread ar_radio;
#X text 111 63 グローバルエリア以外;
#X msg 113 98 240;
#X obj 113 146 counter 16 255;
#X obj 152 227 expr $f1/16;
#X obj 113 203 t f f f;
#X obj 36 251 expr $f1-($f2*16);
#X obj 198 303 t b b f;
#X obj 180 360 pack f f f;
#X connect 0 0 16 0;
#X connect 1 0 18 0;
#X connect 2 0 14 0;
#X connect 3 0 7 1;
#X connect 3 0 17 1;
#X connect 4 0 3 0;
#X connect 5 0 6 1;
#X connect 6 0 19 0;
#X connect 7 0 19 1;
#X connect 9 0 13 0;
#X connect 11 0 1 0;
#X connect 13 0 2 0;
#X connect 14 0 0 0;
#X connect 15 0 4 0;
#X connect 16 0 11 0;
#X connect 16 1 17 0;
#X connect 16 2 15 0;
#X connect 17 0 5 0;
#X connect 18 0 6 0;
#X connect 18 1 7 0;
#X connect 18 2 19 2;
#X connect 19 0 10 0;
#X restore 72 589 pd readData;
#X obj 84 543 tabwrite ar_radio;
#X obj 106 196 > 0;
#X obj 18 548 r gate4;
#X floatatom 118 303 5 0 0 2 index - -;
#X text 117 246 array上のindexを計算;
#X obj 105 48 r mode;
#X obj 72 88 spigot;
#X obj 72 26 r fromMonome;
#X obj 105 68 == 4;
#X floatatom 118 384 5 0 0 2 row - -;
#X obj 118 353 i;
#X floatatom 118 442 5 0 0 2 low - -;
#X obj 118 405 * 16;
#X obj 162 405 + 15;
#X floatatom 162 442 5 0 0 2 high - -;
#X obj 72 112 unpack f f f;
#X obj 72 170 t f f;
#X obj 118 269 expr $f1+($f2*16);
#X obj 118 329 expr $f1/16;
#X obj 72 489 t f f;
#X connect 0 0 29 0;
#X connect 1 0 14 0;
#X connect 1 0 30 1;
#X connect 2 0 4 0;
#X connect 3 0 7 0;
#X connect 4 0 10 1;
#X connect 6 0 8 0;
#X connect 7 0 6 0;
#X connect 8 0 32 0;
#X connect 9 0 13 0;
#X connect 10 0 3 1;
#X connect 12 0 11 0;
#X connect 14 0 10 0;
#X connect 15 0 12 0;
#X connect 16 0 9 1;
#X connect 16 0 31 0;
#X connect 18 0 21 0;
#X connect 19 0 28 0;
#X connect 20 0 19 0;
#X connect 21 0 19 1;
#X connect 22 0 25 0;
#X connect 23 0 22 0;
#X connect 24 0 8 2;
#X connect 25 0 24 0;
#X connect 25 0 26 0;
#X connect 26 0 27 0;
#X connect 27 0 8 3;
#X connect 28 0 0 0;
#X connect 28 1 1 0;
#X connect 28 2 2 0;
#X connect 29 0 3 0;
#X connect 29 1 30 0;
#X connect 30 0 16 0;
#X connect 31 0 23 0;
#X connect 32 0 9 0;
#X connect 32 0 12 0;
#X connect 32 1 13 1;
#X restore 155 165 pd radio;
#N canvas 0 22 450 278 (subpatch) 0;
#X array ar_radio 256 float 2;
#X coords 0 278 1 277 512 20 0;
#X restore 14 162 graph;
#X text 53 162 radio;
#X text 53 119 fader1;
#X text 53 139 fader2;
#N canvas 0 22 450 278 (subpatch) 0;
#X array ar_clock 256 float 2;
#X coords 0 278 1 277 512 20 0;
#X restore 15 188 graph;
#X text 54 188 clock;
#N canvas 0 22 450 278 (subpatch) 0;
#X array ar_sequence 256 float 2;
#X coords 0 278 1 277 512 20 0;
#X restore 15 211 graph;
#X text 54 211 sequence;
#N canvas 42 68 682 571 monome_seq 0;
#X floatatom 73 166 5 0 0 2 col - -;
#X floatatom 107 166 5 0 0 2 row - -;
#X floatatom 142 166 5 0 0 2 val - -;
#X floatatom 73 238 5 0 0 2 index - -;
#X obj 73 432 i;
#X obj 100 291 spigot;
#X floatatom 100 384 5 0 0 0 - - -;
#X text 71 185 array上のindexを計算;
#X text 80 453 monomeのステータスをarrayに格納;
#X text 6 493 arrayから全ボタンのステータスを取得;
#X text 108 314 指定したindexのステータスを反転;
#X text 144 244 ボタン押下時のみ処理を続行;
#X obj 106 72 r mode;
#X obj 73 112 spigot;
#X obj 8 537 s toMonome;
#X obj 73 47 r fromMonome;
#N canvas 397 45 345 425 readData 0;
#X floatatom 113 181 5 0 0 2 index - -;
#X floatatom 198 282 5 0 0 2 val - -;
#X obj 113 121 until;
#X floatatom 152 282 5 0 0 2 row - -;
#X obj 152 251 i;
#X floatatom 36 282 5 0 0 2 col - -;
#X obj 180 334 i;
#X obj 208 334 i;
#X text 112 78 arrayから全ボタンのステータスを取得;
#X obj 113 41 inlet;
#X msg 113 98 240;
#X obj 113 146 counter 16 255;
#X text 111 63 グローバルエリア以外;
#X obj 180 388 outlet;
#X obj 198 251 tabread ar_sequence;
#X obj 113 203 t f f f;
#X obj 36 251 expr $f1-($f2*16);
#X obj 198 303 t b b f;
#X obj 180 360 pack f f f;
#X obj 152 227 expr $f1/16;
#X connect 0 0 15 0;
#X connect 1 0 17 0;
#X connect 2 0 11 0;
#X connect 3 0 7 1;
#X connect 3 0 16 1;
#X connect 4 0 3 0;
#X connect 5 0 6 1;
#X connect 6 0 18 0;
#X connect 7 0 18 1;
#X connect 9 0 10 0;
#X connect 10 0 2 0;
#X connect 11 0 0 0;
#X connect 14 0 1 0;
#X connect 15 0 14 0;
#X connect 15 1 16 0;
#X connect 15 2 19 0;
#X connect 16 0 5 0;
#X connect 17 0 6 0;
#X connect 17 1 7 0;
#X connect 17 2 18 2;
#X connect 18 0 13 0;
#X connect 19 0 4 0;
#X restore 8 514 pd readData;
#X obj 8 472 r gate5;
#X obj 106 92 == 5;
#X obj 100 336 tabread ar_sequence;
#X obj 73 472 tabwrite ar_sequence;
#X obj 326 66 metro 500;
#X obj 326 88 bng 15 250 50 0 empty empty empty 17 7 0 10 -262144 -1
-1;
#X obj 326 46 tgl 15 0 empty empty empty 17 7 0 10 -262144 -1 -1 1
1;
#X obj 326 110 counter 0 7;
#X floatatom 326 212 5 0 0 2 col - -;
#X obj 326 379 tabwrite ar_clock;
#X msg 326 267 16;
#X obj 326 309 counter 0 15;
#X obj 326 288 until;
#X obj 326 355 ==;
#X text 446 332 arrayから全ボタンのステータスを取得
;
#X obj 448 377 s toMonome;
#N canvas 778 22 380 495 readData 0;
#X floatatom 113 181 5 0 0 2 index - -;
#X floatatom 198 282 5 0 0 2 val - -;
#X obj 113 121 until;
#X floatatom 152 282 5 0 0 2 row - -;
#X obj 152 251 i;
#X floatatom 36 282 5 0 0 2 col - -;
#X obj 109 394 i;
#X obj 137 394 i;
#X text 112 78 arrayから全ボタンのステータスを取得;
#X obj 113 41 inlet;
#X msg 113 98 240;
#X obj 113 146 counter 16 255;
#X text 111 63 グローバルエリア以外;
#X obj 198 251 tabread ar_sequence;
#X obj 109 445 outlet;
#X obj 36 305 tabread ar_clock;
#X floatatom 36 327 5 0 0 0 - - -;
#X obj 166 394 ||;
#X obj 113 203 t f f f;
#X obj 152 227 expr $f1/16;
#X obj 198 303 t b b f;
#X obj 36 251 expr $f1-($f2*16);
#X obj 109 420 pack f f f;
#X connect 0 0 18 0;
#X connect 1 0 20 0;
#X connect 2 0 11 0;
#X connect 3 0 7 1;
#X connect 3 0 21 1;
#X connect 4 0 3 0;
#X connect 5 0 6 1;
#X connect 5 0 15 0;
#X connect 6 0 22 0;
#X connect 7 0 22 1;
#X connect 9 0 10 0;
#X connect 10 0 2 0;
#X connect 11 0 0 0;
#X connect 13 0 1 0;
#X connect 15 0 16 0;
#X connect 16 0 17 1;
#X connect 17 0 22 2;
#X connect 18 0 13 0;
#X connect 18 1 21 0;
#X connect 18 2 19 0;
#X connect 19 0 4 0;
#X connect 20 0 6 0;
#X connect 20 1 7 0;
#X connect 20 2 17 0;
#X connect 21 0 5 0;
#X connect 22 0 14 0;
#X restore 448 352 pd readData;
#X obj 448 308 r gate5;
#X obj 326 22 loadbang;
#X obj 359 137 r mode;
#X obj 326 177 spigot;
#X obj 359 157 == 5;
#X obj 73 134 unpack f f f;
#X obj 73 204 expr $f1+($f2*16);
#X obj 133 265 expr if($f1==1 \, 1 \, 0);
#X obj 100 360 expr if($f1==1 \, 0 \, 1);
#X obj 73 262 t f f;
#X obj 73 405 t b f;
#X obj 326 332 t f f;
#X obj 326 243 t b f;
#X connect 0 0 40 0;
#X connect 1 0 40 1;
#X connect 2 0 41 0;
#X connect 3 0 43 0;
#X connect 4 0 20 0;
#X connect 5 0 19 0;
#X connect 6 0 4 1;
#X connect 12 0 18 0;
#X connect 13 0 39 0;
#X connect 15 0 13 0;
#X connect 16 0 14 0;
#X connect 17 0 16 0;
#X connect 18 0 13 1;
#X connect 19 0 42 0;
#X connect 21 0 22 0;
#X connect 22 0 24 0;
#X connect 23 0 21 0;
#X connect 24 0 37 0;
#X connect 25 0 33 0;
#X connect 25 0 46 0;
#X connect 27 0 29 0;
#X connect 28 0 45 0;
#X connect 29 0 28 0;
#X connect 30 0 26 0;
#X connect 33 0 32 0;
#X connect 34 0 33 0;
#X connect 35 0 23 0;
#X connect 36 0 38 0;
#X connect 37 0 25 0;
#X connect 38 0 37 1;
#X connect 39 0 0 0;
#X connect 39 1 1 0;
#X connect 39 2 2 0;
#X connect 40 0 3 0;
#X connect 41 0 5 1;
#X connect 42 0 6 0;
#X connect 43 0 44 0;
#X connect 43 1 5 0;
#X connect 44 0 4 0;
#X connect 44 0 16 0;
#X connect 44 1 20 1;
#X connect 45 0 30 0;
#X connect 45 1 26 1;
#X connect 46 0 27 0;
#X connect 46 1 30 1;
#X restore 156 214 pd monome_seq;
#X text 28 395 sequence;
#X obj 155 250 import mrpeach;
#X connect 17 0 2 0;
