#N canvas 153 123 654 529 10;
#X declare -lib mrpeach;
#X declare -lib flatgui;
#X obj 580 236 monome;
#N canvas 195 401 180 239 toggle0 0;
#X obj 27 47 r fromMonome;
#N canvas 842 217 326 249 togglemode 0;
#X obj 14 163 pack f f f;
#X obj 14 52 inlet;
#X obj 14 191 outlet;
#X obj 14 91 unpack f f;
#N canvas 0 383 353 197 GetToggleValue 0;
#N canvas 428 283 437 223 tgl1 0;
#X obj 16 123 tgl 15 0 empty empty empty 17 7 0 10 -262144 -1 -1 1
1;
#X obj 16 102 sel 1;
#X obj 16 65 route 0 1 2 3 4 5 6 7;
#X obj 55 123 tgl 15 0 empty empty empty 17 7 0 10 -262144 -1 -1 0
1;
#X obj 55 102 sel 1;
#X obj 94 123 tgl 15 0 empty empty empty 17 7 0 10 -262144 -1 -1 0
1;
#X obj 94 102 sel 1;
#X obj 132 123 tgl 15 0 empty empty empty 17 7 0 10 -262144 -1 -1 0
1;
#X obj 132 102 sel 1;
#X obj 171 122 tgl 15 0 empty empty empty 17 7 0 10 -262144 -1 -1 0
1;
#X obj 171 101 sel 1;
#X obj 210 122 tgl 15 0 empty empty empty 17 7 0 10 -262144 -1 -1 0
1;
#X obj 210 101 sel 1;
#X obj 249 122 tgl 15 0 empty empty empty 17 7 0 10 -262144 -1 -1 0
1;
#X obj 249 101 sel 1;
#X obj 287 122 tgl 15 0 empty empty empty 17 7 0 10 -262144 -1 -1 0
1;
#X obj 287 101 sel 1;
#X obj 16 12 inlet;
#X obj 16 171 outlet;
#X obj 16 37 route 0 1 2 3 4 5 6 7;
#X connect 0 0 18 0;
#X connect 1 0 0 0;
#X connect 2 0 1 0;
#X connect 2 1 4 0;
#X connect 2 2 6 0;
#X connect 2 3 8 0;
#X connect 2 4 10 0;
#X connect 2 5 12 0;
#X connect 2 6 14 0;
#X connect 2 7 16 0;
#X connect 3 0 18 0;
#X connect 4 0 3 0;
#X connect 5 0 18 0;
#X connect 6 0 5 0;
#X connect 7 0 18 0;
#X connect 8 0 7 0;
#X connect 9 0 18 0;
#X connect 10 0 9 0;
#X connect 11 0 18 0;
#X connect 12 0 11 0;
#X connect 13 0 18 0;
#X connect 14 0 13 0;
#X connect 15 0 18 0;
#X connect 16 0 15 0;
#X connect 17 0 19 0;
#X connect 19 0 2 0;
#X restore 9 77 pd tgl1;
#N canvas 428 283 437 223 tgl2 0;
#X obj 31 124 tgl 15 0 empty empty empty 17 7 0 10 -262144 -1 -1 0
1;
#X obj 31 103 sel 1;
#X obj 31 66 route 0 1 2 3 4 5 6 7;
#X obj 70 124 tgl 15 0 empty empty empty 17 7 0 10 -262144 -1 -1 0
1;
#X obj 70 103 sel 1;
#X obj 109 124 tgl 15 0 empty empty empty 17 7 0 10 -262144 -1 -1 0
1;
#X obj 109 103 sel 1;
#X obj 147 124 tgl 15 0 empty empty empty 17 7 0 10 -262144 -1 -1 0
1;
#X obj 147 103 sel 1;
#X obj 186 123 tgl 15 0 empty empty empty 17 7 0 10 -262144 -1 -1 0
1;
#X obj 186 102 sel 1;
#X obj 225 123 tgl 15 0 empty empty empty 17 7 0 10 -262144 -1 -1 0
1;
#X obj 225 102 sel 1;
#X obj 264 123 tgl 15 0 empty empty empty 17 7 0 10 -262144 -1 -1 0
1;
#X obj 264 102 sel 1;
#X obj 302 123 tgl 15 0 empty empty empty 17 7 0 10 -262144 -1 -1 0
1;
#X obj 302 102 sel 1;
#X obj 16 12 inlet;
#X obj 31 172 outlet;
#X obj 16 37 route 0 1 2 3 4 5 6 7;
#X connect 0 0 18 0;
#X connect 1 0 0 0;
#X connect 2 0 1 0;
#X connect 2 1 4 0;
#X connect 2 2 6 0;
#X connect 2 3 8 0;
#X connect 2 4 10 0;
#X connect 2 5 12 0;
#X connect 2 6 14 0;
#X connect 2 7 16 0;
#X connect 3 0 18 0;
#X connect 4 0 3 0;
#X connect 5 0 18 0;
#X connect 6 0 5 0;
#X connect 7 0 18 0;
#X connect 8 0 7 0;
#X connect 9 0 18 0;
#X connect 10 0 9 0;
#X connect 11 0 18 0;
#X connect 12 0 11 0;
#X connect 13 0 18 0;
#X connect 14 0 13 0;
#X connect 15 0 18 0;
#X connect 16 0 15 0;
#X connect 17 0 19 0;
#X connect 19 1 2 0;
#X restore 60 77 pd tgl2;
#N canvas 428 283 437 223 tgl3 0;
#X obj 46 122 tgl 15 0 empty empty empty 17 7 0 10 -262144 -1 -1 0
1;
#X obj 46 101 sel 1;
#X obj 46 64 route 0 1 2 3 4 5 6 7;
#X obj 85 122 tgl 15 0 empty empty empty 17 7 0 10 -262144 -1 -1 0
1;
#X obj 85 101 sel 1;
#X obj 124 122 tgl 15 0 empty empty empty 17 7 0 10 -262144 -1 -1 0
1;
#X obj 124 101 sel 1;
#X obj 162 122 tgl 15 0 empty empty empty 17 7 0 10 -262144 -1 -1 0
1;
#X obj 162 101 sel 1;
#X obj 201 121 tgl 15 0 empty empty empty 17 7 0 10 -262144 -1 -1 0
1;
#X obj 201 100 sel 1;
#X obj 240 121 tgl 15 0 empty empty empty 17 7 0 10 -262144 -1 -1 0
1;
#X obj 240 100 sel 1;
#X obj 279 121 tgl 15 0 empty empty empty 17 7 0 10 -262144 -1 -1 0
1;
#X obj 279 100 sel 1;
#X obj 317 121 tgl 15 0 empty empty empty 17 7 0 10 -262144 -1 -1 0
1;
#X obj 317 100 sel 1;
#X obj 16 12 inlet;
#X obj 46 170 outlet;
#X obj 16 37 route 0 1 2 3 4 5 6 7;
#X connect 0 0 18 0;
#X connect 1 0 0 0;
#X connect 2 0 1 0;
#X connect 2 1 4 0;
#X connect 2 2 6 0;
#X connect 2 3 8 0;
#X connect 2 4 10 0;
#X connect 2 5 12 0;
#X connect 2 6 14 0;
#X connect 2 7 16 0;
#X connect 3 0 18 0;
#X connect 4 0 3 0;
#X connect 5 0 18 0;
#X connect 6 0 5 0;
#X connect 7 0 18 0;
#X connect 8 0 7 0;
#X connect 9 0 18 0;
#X connect 10 0 9 0;
#X connect 11 0 18 0;
#X connect 12 0 11 0;
#X connect 13 0 18 0;
#X connect 14 0 13 0;
#X connect 15 0 18 0;
#X connect 16 0 15 0;
#X connect 17 0 19 0;
#X connect 19 2 2 0;
#X restore 111 77 pd tgl3;
#N canvas 428 283 437 223 tgl4 0;
#X obj 62 131 tgl 15 0 empty empty empty 17 7 0 10 -262144 -1 -1 0
1;
#X obj 62 102 sel 1;
#X obj 62 65 route 0 1 2 3 4 5 6 7;
#X obj 101 131 tgl 15 0 empty empty empty 17 7 0 10 -262144 -1 -1 0
1;
#X obj 101 102 sel 1;
#X obj 140 131 tgl 15 0 empty empty empty 17 7 0 10 -262144 -1 -1 0
1;
#X obj 140 102 sel 1;
#X obj 178 131 tgl 15 0 empty empty empty 17 7 0 10 -262144 -1 -1 0
1;
#X obj 178 102 sel 1;
#X obj 217 130 tgl 15 0 empty empty empty 17 7 0 10 -262144 -1 -1 0
1;
#X obj 217 101 sel 1;
#X obj 256 130 tgl 15 0 empty empty empty 17 7 0 10 -262144 -1 -1 0
1;
#X obj 256 101 sel 1;
#X obj 295 130 tgl 15 0 empty empty empty 17 7 0 10 -262144 -1 -1 0
1;
#X obj 295 101 sel 1;
#X obj 333 130 tgl 15 0 empty empty empty 17 7 0 10 -262144 -1 -1 0
1;
#X obj 333 101 sel 1;
#X obj 16 12 inlet;
#X obj 62 171 outlet;
#X obj 16 37 route 0 1 2 3 4 5 6 7;
#X connect 0 0 18 0;
#X connect 1 0 0 0;
#X connect 2 0 1 0;
#X connect 2 1 4 0;
#X connect 2 2 6 0;
#X connect 2 3 8 0;
#X connect 2 4 10 0;
#X connect 2 5 12 0;
#X connect 2 6 14 0;
#X connect 2 7 16 0;
#X connect 3 0 18 0;
#X connect 4 0 3 0;
#X connect 5 0 18 0;
#X connect 6 0 5 0;
#X connect 7 0 18 0;
#X connect 8 0 7 0;
#X connect 9 0 18 0;
#X connect 10 0 9 0;
#X connect 11 0 18 0;
#X connect 12 0 11 0;
#X connect 13 0 18 0;
#X connect 14 0 13 0;
#X connect 15 0 18 0;
#X connect 16 0 15 0;
#X connect 17 0 19 0;
#X connect 19 3 2 0;
#X restore 164 77 pd tgl4;
#N canvas 428 283 437 223 tgl5 0;
#X obj 16 126 tgl 15 0 empty empty empty 17 7 0 10 -262144 -1 -1 0
1;
#X obj 16 105 sel 1;
#X obj 16 68 route 0 1 2 3 4 5 6 7;
#X obj 55 126 tgl 15 0 empty empty empty 17 7 0 10 -262144 -1 -1 0
1;
#X obj 55 105 sel 1;
#X obj 94 126 tgl 15 0 empty empty empty 17 7 0 10 -262144 -1 -1 0
1;
#X obj 94 105 sel 1;
#X obj 132 126 tgl 15 0 empty empty empty 17 7 0 10 -262144 -1 -1 0
1;
#X obj 132 105 sel 1;
#X obj 171 125 tgl 15 0 empty empty empty 17 7 0 10 -262144 -1 -1 0
1;
#X obj 171 104 sel 1;
#X obj 210 125 tgl 15 0 empty empty empty 17 7 0 10 -262144 -1 -1 0
1;
#X obj 210 104 sel 1;
#X obj 249 125 tgl 15 0 empty empty empty 17 7 0 10 -262144 -1 -1 0
1;
#X obj 249 104 sel 1;
#X obj 287 125 tgl 15 0 empty empty empty 17 7 0 10 -262144 -1 -1 0
1;
#X obj 287 104 sel 1;
#X obj 16 12 inlet;
#X obj 16 174 outlet;
#X obj 16 37 route 0 1 2 3 4 5 6 7;
#X connect 0 0 18 0;
#X connect 1 0 0 0;
#X connect 2 0 1 0;
#X connect 2 1 4 0;
#X connect 2 2 6 0;
#X connect 2 3 8 0;
#X connect 2 4 10 0;
#X connect 2 5 12 0;
#X connect 2 6 14 0;
#X connect 2 7 16 0;
#X connect 3 0 18 0;
#X connect 4 0 3 0;
#X connect 5 0 18 0;
#X connect 6 0 5 0;
#X connect 7 0 18 0;
#X connect 8 0 7 0;
#X connect 9 0 18 0;
#X connect 10 0 9 0;
#X connect 11 0 18 0;
#X connect 12 0 11 0;
#X connect 13 0 18 0;
#X connect 14 0 13 0;
#X connect 15 0 18 0;
#X connect 16 0 15 0;
#X connect 17 0 19 0;
#X connect 19 4 2 0;
#X restore 89 107 pd tgl5;
#N canvas 428 283 437 223 tgl6 0;
#X obj 16 126 tgl 15 0 empty empty empty 17 7 0 10 -262144 -1 -1 0
1;
#X obj 16 105 sel 1;
#X obj 16 68 route 0 1 2 3 4 5 6 7;
#X obj 55 126 tgl 15 0 empty empty empty 17 7 0 10 -262144 -1 -1 0
1;
#X obj 55 105 sel 1;
#X obj 94 126 tgl 15 0 empty empty empty 17 7 0 10 -262144 -1 -1 0
1;
#X obj 94 105 sel 1;
#X obj 132 126 tgl 15 0 empty empty empty 17 7 0 10 -262144 -1 -1 0
1;
#X obj 132 105 sel 1;
#X obj 171 125 tgl 15 0 empty empty empty 17 7 0 10 -262144 -1 -1 0
1;
#X obj 171 104 sel 1;
#X obj 210 125 tgl 15 0 empty empty empty 17 7 0 10 -262144 -1 -1 0
1;
#X obj 210 104 sel 1;
#X obj 249 125 tgl 15 0 empty empty empty 17 7 0 10 -262144 -1 -1 0
1;
#X obj 249 104 sel 1;
#X obj 287 125 tgl 15 0 empty empty empty 17 7 0 10 -262144 -1 -1 0
1;
#X obj 287 104 sel 1;
#X obj 16 12 inlet;
#X obj 16 174 outlet;
#X obj 16 37 route 0 1 2 3 4 5 6 7;
#X connect 0 0 18 0;
#X connect 1 0 0 0;
#X connect 2 0 1 0;
#X connect 2 1 4 0;
#X connect 2 2 6 0;
#X connect 2 3 8 0;
#X connect 2 4 10 0;
#X connect 2 5 12 0;
#X connect 2 6 14 0;
#X connect 2 7 16 0;
#X connect 3 0 18 0;
#X connect 4 0 3 0;
#X connect 5 0 18 0;
#X connect 6 0 5 0;
#X connect 7 0 18 0;
#X connect 8 0 7 0;
#X connect 9 0 18 0;
#X connect 10 0 9 0;
#X connect 11 0 18 0;
#X connect 12 0 11 0;
#X connect 13 0 18 0;
#X connect 14 0 13 0;
#X connect 15 0 18 0;
#X connect 16 0 15 0;
#X connect 17 0 19 0;
#X connect 19 5 2 0;
#X restore 144 108 pd tgl6;
#N canvas 428 283 437 223 tgl7 0;
#X obj 16 126 tgl 15 0 empty empty empty 17 7 0 10 -262144 -1 -1 0
1;
#X obj 16 105 sel 1;
#X obj 16 68 route 0 1 2 3 4 5 6 7;
#X obj 55 126 tgl 15 0 empty empty empty 17 7 0 10 -262144 -1 -1 0
1;
#X obj 55 105 sel 1;
#X obj 94 126 tgl 15 0 empty empty empty 17 7 0 10 -262144 -1 -1 0
1;
#X obj 94 105 sel 1;
#X obj 132 126 tgl 15 0 empty empty empty 17 7 0 10 -262144 -1 -1 0
1;
#X obj 132 105 sel 1;
#X obj 171 125 tgl 15 0 empty empty empty 17 7 0 10 -262144 -1 -1 0
1;
#X obj 171 104 sel 1;
#X obj 210 125 tgl 15 0 empty empty empty 17 7 0 10 -262144 -1 -1 0
1;
#X obj 210 104 sel 1;
#X obj 249 125 tgl 15 0 empty empty empty 17 7 0 10 -262144 -1 -1 0
1;
#X obj 249 104 sel 1;
#X obj 287 125 tgl 15 0 empty empty empty 17 7 0 10 -262144 -1 -1 0
1;
#X obj 287 104 sel 1;
#X obj 16 12 inlet;
#X obj 16 174 outlet;
#X obj 16 37 route 0 1 2 3 4 5 6 7;
#X connect 0 0 18 0;
#X connect 1 0 0 0;
#X connect 2 0 1 0;
#X connect 2 1 4 0;
#X connect 2 2 6 0;
#X connect 2 3 8 0;
#X connect 2 4 10 0;
#X connect 2 5 12 0;
#X connect 2 6 14 0;
#X connect 2 7 16 0;
#X connect 3 0 18 0;
#X connect 4 0 3 0;
#X connect 5 0 18 0;
#X connect 6 0 5 0;
#X connect 7 0 18 0;
#X connect 8 0 7 0;
#X connect 9 0 18 0;
#X connect 10 0 9 0;
#X connect 11 0 18 0;
#X connect 12 0 11 0;
#X connect 13 0 18 0;
#X connect 14 0 13 0;
#X connect 15 0 18 0;
#X connect 16 0 15 0;
#X connect 17 0 19 0;
#X connect 19 6 2 0;
#X restore 197 108 pd tgl7;
#N canvas 487 316 437 223 tgl8 0;
#X obj 16 126 tgl 15 0 empty empty empty 17 7 0 10 -262144 -1 -1 0
1;
#X obj 16 105 sel 1;
#X obj 16 68 route 0 1 2 3 4 5 6 7;
#X obj 55 126 tgl 15 0 empty empty empty 17 7 0 10 -262144 -1 -1 0
1;
#X obj 55 105 sel 1;
#X obj 94 126 tgl 15 0 empty empty empty 17 7 0 10 -262144 -1 -1 0
1;
#X obj 94 105 sel 1;
#X obj 132 126 tgl 15 0 empty empty empty 17 7 0 10 -262144 -1 -1 0
1;
#X obj 132 105 sel 1;
#X obj 171 125 tgl 15 0 empty empty empty 17 7 0 10 -262144 -1 -1 0
1;
#X obj 171 104 sel 1;
#X obj 210 125 tgl 15 0 empty empty empty 17 7 0 10 -262144 -1 -1 0
1;
#X obj 210 104 sel 1;
#X obj 249 125 tgl 15 0 empty empty empty 17 7 0 10 -262144 -1 -1 0
1;
#X obj 249 104 sel 1;
#X obj 287 125 tgl 15 0 empty empty empty 17 7 0 10 -262144 -1 -1 0
1;
#X obj 287 104 sel 1;
#X obj 16 12 inlet;
#X obj 16 174 outlet;
#X obj 16 37 route 0 1 2 3 4 5 6 7;
#X connect 0 0 18 0;
#X connect 1 0 0 0;
#X connect 2 0 1 0;
#X connect 2 1 4 0;
#X connect 2 2 6 0;
#X connect 2 3 8 0;
#X connect 2 4 10 0;
#X connect 2 5 12 0;
#X connect 2 6 14 0;
#X connect 2 7 16 0;
#X connect 3 0 18 0;
#X connect 4 0 3 0;
#X connect 5 0 18 0;
#X connect 6 0 5 0;
#X connect 7 0 18 0;
#X connect 8 0 7 0;
#X connect 9 0 18 0;
#X connect 10 0 9 0;
#X connect 11 0 18 0;
#X connect 12 0 11 0;
#X connect 13 0 18 0;
#X connect 14 0 13 0;
#X connect 15 0 18 0;
#X connect 16 0 15 0;
#X connect 17 0 19 0;
#X connect 19 7 2 0;
#X restore 249 107 pd tgl8;
#X obj 9 29 inlet;
#X obj 9 168 outlet;
#X text 8 6 Get Toggle Value from grid;
#X connect 0 0 9 0;
#X connect 1 0 9 0;
#X connect 2 0 9 0;
#X connect 3 0 9 0;
#X connect 4 0 9 0;
#X connect 5 0 9 0;
#X connect 6 0 9 0;
#X connect 7 0 9 0;
#X connect 8 0 0 0;
#X connect 8 0 1 0;
#X connect 8 0 2 0;
#X connect 8 0 3 0;
#X connect 8 0 4 0;
#X connect 8 0 5 0;
#X connect 8 0 6 0;
#X connect 8 0 7 0;
#X restore 131 93 pd GetToggleValue;
#X obj 131 117 t b f;
#X text 127 73 指定したボタンのステータスを取得;
#X text 11 74 座標値はそのまま出力;
#X text 13 21 toggle モード;
#X text 54 51 0 0 0;
#X text 60 189 0 0 0;
#X connect 0 0 2 0;
#X connect 1 0 3 0;
#X connect 1 0 4 0;
#X connect 3 0 0 0;
#X connect 3 1 0 1;
#X connect 4 0 5 0;
#X connect 5 0 0 0;
#X connect 5 1 0 2;
#X restore 27 163 pd togglemode;
#X obj 54 92 unpack f f f;
#X obj 88 115 == 0;
#X obj 27 139 spigot;
#X obj 27 70 t l l;
#X obj 27 190 s toMonome;
#X text 28 21 0行目のみトグルモード;
#X connect 0 0 5 0;
#X connect 1 0 6 0;
#X connect 2 1 3 0;
#X connect 3 0 4 1;
#X connect 4 0 1 0;
#X connect 5 0 4 0;
#X connect 5 1 2 0;
#X restore 5 313 pd toggle0;
#X obj 335 131 master;
#X obj 5 132 mixer;
#X obj 5 5 cut_deck 1;
#X obj 149 5 cut_deck 2;
#X obj 292 5 cut_deck 3;
#X obj 436 5 cut_deck 4;
#X msg 79 337 \; track1 20 1000 \; track2 20 1000 \; track3 20 1000
\; track4 20 1000 \; deck1 20 1000 \; deck2 20 1000 \; deck3 20 1000
\; deck4 20 1000 \; filter 60 70 1000 \; delay 60 50 60 1000 \; reverb
0.8 0.7 0.4 1 0.8 1000 \; master 60 30 1000 \;;
#X obj 79 313 loadbang;
#X connect 3 0 2 0;
#X connect 3 1 2 1;
#X connect 3 2 2 0;
#X connect 3 3 2 1;
#X connect 3 4 2 0;
#X connect 3 5 2 1;
#X connect 3 6 2 0;
#X connect 3 7 2 1;
#X connect 4 0 3 0;
#X connect 4 0 3 1;
#X connect 5 0 3 2;
#X connect 5 0 3 3;
#X connect 6 0 3 4;
#X connect 6 0 3 5;
#X connect 7 0 3 6;
#X connect 7 0 3 7;
#X connect 9 0 8 0;
#X coords 0 -1 1 1 640 285 2 0 0;
