#N canvas 234 40 921 665 10;
#X obj 6 101 bng 15 250 50 0 empty empty open 20 6 0 10 -262144 -1
-1;
#N canvas 0 22 450 300 (subpatch) 0;
#X array \$0_deck 264600 float 0;
#X coords 0 -1 264599 1 100 65 1 0 0;
#X restore 5 33 graph;
#X obj 25 420 tabplay~ \$0_deck;
#X obj 25 394 pack f f;
#X obj 25 370 * 1;
#X obj -29 253 unpack f f f;
#X floatatom -29 293 8 0 0 2 sample - -;
#X floatatom 25 293 8 0 0 2 1slice - -;
#X floatatom 79 293 8 0 0 2 dur - -;
#X obj 25 340 t f f;
#X text 79 394 (再生開始位置、再生サンプル数);
#X obj 25 535 outlet~;
#X obj 125 126 / 127;
#X obj 25 464 *~ 1;
#X obj 125 34 vsl 8 80 0 127 0 0 empty empty empty 2 -9 0 10 -262144
-1 -1 2600 1;
#X obj 174 292 t b f;
#N canvas 149 155 296 455 readfile 0;
#X obj -103 174 soundfiler;
#X obj -103 51 openpanel;
#X obj -103 123 pack s f;
#X msg -103 148 read -resize \$1 \$2_deck;
#X floatatom -103 210 8 0 0 2 サンプル数 - -;
#X obj -103 75 t s b;
#X floatatom -75 292 8 0 0 2 1スライスのサンプル数 - -;
#X obj -46 328 expr ($f1/44100)*1000;
#X floatatom -46 362 8 0 0 2 msec - -;
#X text -47 308 msec単位に換算;
#X obj -103 390 pack f f f;
#X obj -103 235 t f f;
#X floatatom -48 235 5 1 8 2 slice - -;
#X obj -103 23 inlet;
#X obj -103 418 outlet;
#X obj -75 259 / 8;
#X obj -28 417 outlet;
#X obj -58 99 \$0;
#X connect 0 0 4 0;
#X connect 1 0 5 0;
#X connect 2 0 3 0;
#X connect 3 0 0 0;
#X connect 4 0 11 0;
#X connect 5 0 2 0;
#X connect 5 0 16 0;
#X connect 5 1 17 0;
#X connect 6 0 7 0;
#X connect 6 0 10 1;
#X connect 7 0 8 0;
#X connect 8 0 10 2;
#X connect 10 0 14 0;
#X connect 11 0 10 0;
#X connect 11 1 15 0;
#X connect 12 0 15 1;
#X connect 13 0 1 0;
#X connect 15 0 6 0;
#X connect 17 0 2 1;
#X restore 6 141 pd readfile;
#X text 3 120 ファイルの読み込み;
#N canvas 611 22 537 683 playback 0;
#X floatatom 77 89 8 0 0 0 - - -;
#X obj 140 178 unpack f f f;
#X obj 8 61 inlet;
#X obj 140 222 spigot;
#X obj 174 200 == \$1;
#N canvas 576 184 432 461 radiobuttonmode_h 0;
#X floatatom 49 251 5 0 0 0 - - -;
#X obj 136 179 hradio 15 1 0 8 empty empty empty 0 -8 0 10 -262144
-1 -1 3;
#X obj 49 202 until;
#X obj 49 227 counter 0 7;
#X msg 87 179 clear;
#X msg 49 179 8;
#X obj 68 152 t b b f;
#X text 134 360 押下したボタンはon それ以外はoff;
#X text -16 250 0~7でループ;
#X obj 68 52 inlet;
#X obj 23 433 outlet;
#X text 20 27 radio button モード;
#X text 110 52 0 0 0;
#X text 71 432 0 0 0;
#X obj 92 314 ==;
#X text 66 103 row;
#X obj 23 406 pack f f f;
#X obj 68 122 unpack f f;
#X obj 49 274 t f f;
#X connect 0 0 18 0;
#X connect 2 0 3 0;
#X connect 3 0 0 0;
#X connect 4 0 3 0;
#X connect 5 0 2 0;
#X connect 6 0 5 0;
#X connect 6 1 4 0;
#X connect 6 2 1 0;
#X connect 6 2 14 1;
#X connect 9 0 17 0;
#X connect 14 0 16 2;
#X connect 16 0 10 0;
#X connect 17 0 6 0;
#X connect 17 1 16 1;
#X connect 18 0 16 0;
#X connect 18 1 14 0;
#X restore 192 635 pd radiobuttonmode_h;
#X obj 192 658 outlet;
#X obj 192 611 pack f \$1 1;
#X obj 140 273 mode;
#N canvas 206 59 374 570 realtime 0;
#X obj 21 31 inlet;
#X obj 69 31 inlet;
#X floatatom 59 498 5 0 0 0 - - -;
#X msg 104 421 reset;
#X obj 147 421 f;
#X msg 74 421 0;
#X obj 74 390 t b b b;
#X floatatom 74 316 5 0 0 0 - - -;
#X obj 74 365 t f f;
#X obj 59 522 outlet;
#X text 69 11 0 0 0;
#X text 19 10 bang;
#X text 140 453 押下した位置からシーケンス開始;
#X obj 69 56 unpack f f f;
#X obj 122 292 == 1;
#X obj 74 292 spigot;
#X obj 74 236 l;
#X obj 74 212 spigot;
#X obj 107 136 sel 1;
#X msg 107 162 1;
#X obj 47 162 t 0 b;
#X obj 107 187 tgl 15 0 empty empty empty 17 7 0 10 -262144 -1 -1 0
1;
#X obj 107 111 f;
#X obj 107 79 t b l;
#X text 131 372 クオンタイズしたタイミングで;
#X text 100 235 信号のストア;
#X text 147 78 信号をストアし、ゲートを開く;
#X text 131 386 信号を送信し、ゲートを閉じる;
#X obj 74 260 unpack f f f;
#X obj 196 302 r clock\$1;
#X obj 196 323 sel 1;
#X obj 74 340 * 8;
#X obj 59 474 counter 0 63;
#X obj 190 408 r Quantize\$1;
#X obj 190 435 expr ($f1*8)-1;
#X obj 170 195 bng 15 250 50 0 empty empty empty 17 7 0 10 -262144
-1 -1;
#X connect 0 0 20 0;
#X connect 0 0 32 0;
#X connect 1 0 13 0;
#X connect 1 0 23 0;
#X connect 2 0 9 0;
#X connect 3 0 32 0;
#X connect 4 0 32 2;
#X connect 5 0 32 2;
#X connect 6 0 5 0;
#X connect 6 1 3 0;
#X connect 6 2 4 0;
#X connect 7 0 31 0;
#X connect 8 0 6 0;
#X connect 8 1 4 1;
#X connect 13 2 22 1;
#X connect 14 0 15 1;
#X connect 15 0 7 0;
#X connect 16 0 28 0;
#X connect 17 0 16 0;
#X connect 18 0 19 0;
#X connect 18 0 35 0;
#X connect 19 0 21 0;
#X connect 20 0 21 0;
#X connect 20 1 17 0;
#X connect 21 0 17 1;
#X connect 22 0 18 0;
#X connect 23 0 22 0;
#X connect 23 1 16 1;
#X connect 28 0 15 0;
#X connect 28 2 14 0;
#X connect 29 0 30 0;
#X connect 30 0 3 0;
#X connect 31 0 8 0;
#X connect 32 0 2 0;
#X connect 33 0 34 0;
#X connect 33 0 31 1;
#X connect 33 0 3 0;
#X connect 34 0 32 3;
#X restore 77 324 pd realtime;
#N canvas 540 158 741 567 recsequence 0;
#X obj 125 172 pack f f;
#X obj 125 59 unpack f f f;
#X obj 92 396 l;
#X floatatom 92 453 5 0 0 0 - - -;
#X obj 92 372 spigot;
#X msg 125 322 1;
#X obj 65 322 t 0 b;
#X obj 125 347 tgl 15 0 empty empty empty 17 7 0 10 -262144 -1 -1 0
1;
#X obj 125 196 t b l;
#X obj 125 34 inlet;
#X obj 170 146 f;
#X obj 125 125 t f b;
#X obj 32 34 inlet;
#X text 31 14 metro;
#X obj 77 34 inlet;
#X text 76 14 col;
#X obj 92 476 outlet;
#X text -53 342 クオンタイズしたタイミングで;
#X text 118 395 信号のストア;
#X text 165 195 信号をストアし、ゲートを開く;
#X text -53 356 信号を送信し、ゲートを閉じる;
#X text 252 495 シーケンスの記録;
#X obj 150 496 tabwrite \$0_SEQ;
#X floatatom 422 131 5 0 0 2 row - -;
#X floatatom 422 177 5 0 0 0 - - -;
#X floatatom 366 151 5 0 0 2 col - -;
#X obj 351 174 f;
#X floatatom 351 200 5 0 0 0 - - -;
#X obj 336 227 max;
#X obj 336 332 until;
#X floatatom 336 307 5 0 0 0 - - -;
#X obj 336 403 +;
#X floatatom 365 404 5 0 0 0 - - -;
#X obj 411 404 +;
#X floatatom 440 405 5 0 0 0 - - -;
#X floatatom 336 429 5 0 0 0 - - -;
#X floatatom 411 432 5 0 0 0 - - -;
#X msg 336 380 1;
#X obj 336 356 t b b;
#X msg 411 381 1;
#X obj 336 461 pack f f;
#N canvas 0 22 450 278 (subpatch) 0;
#X array \$0_array1 64 float 3;
#A 0 -1 -1 -1 -1 -1 -1 -1 -1 -1 -1 -1 -1 -1 -1 -1 -1 -1 -1 -1 -1 -1
-1 -1 -1 -1 -1 -1 -1 -1 -1 -1 -1 -1 -1 -1 -1 -1 -1 -1 -1 -1 -1 -1 -1
-1 -1 -1 -1 -1 -1 -1 -1 -1 -1 -1 -1 -1 -1 -1 -1 -1 -1 -1 -1;
#X coords 0 63 64 0 100 100 1 0 0;
#X restore 532 151 graph;
#X obj 336 490 tabwrite \$0_SEQ;
#X obj 496 372 tabwrite \$0_array1;
#X floatatom 336 252 5 0 0 0 - - -;
#X obj 422 223 t f f b;
#X obj 422 199 f;
#X obj 533 255 hradio 12 1 0 8 empty empty empty 0 -8 0 10 -262144
-1 -1 1;
#X obj 533 294 i;
#X obj 164 519 tabwrite \$0_array1;
#X obj 496 346 pack f f;
#X obj 533 272 / 8;
#X obj 422 153 * 8;
#X obj 125 97 * 8;
#X obj 262 15 r Quantize\$1;
#X obj 395 254 expr ($f1*8)-1;
#X obj 336 278 expr $f2-$f1;
#X obj 92 420 unpack f f;
#X obj 150 451 pack f f;
#X obj 526 524 tabwrite \$0_array1;
#X obj 526 499 pack f f;
#X obj 526 447 t b f;
#X msg 526 473 -1;
#X text 254 307 残書き込み回数;
#X obj 481 422 +;
#X floatatom 510 423 5 0 0 0 - - -;
#X floatatom 481 450 5 0 0 0 - - -;
#X msg 481 399 1;
#X obj 422 100 spigot;
#X obj 455 76 == 1;
#X text 124 13 monome;
#X obj 194 227 == 1;
#X obj 125 254 spigot;
#X connect 0 0 8 0;
#X connect 1 0 53 0;
#X connect 1 0 68 0;
#X connect 1 2 69 0;
#X connect 1 2 71 0;
#X connect 2 0 57 0;
#X connect 3 0 16 0;
#X connect 4 0 2 0;
#X connect 5 0 7 0;
#X connect 6 0 7 0;
#X connect 6 1 4 0;
#X connect 7 0 4 1;
#X connect 8 0 72 0;
#X connect 8 1 2 1;
#X connect 9 0 1 0;
#X connect 10 0 0 1;
#X connect 11 0 0 0;
#X connect 11 1 10 0;
#X connect 12 0 6 0;
#X connect 14 0 10 1;
#X connect 14 0 25 0;
#X connect 23 0 52 0;
#X connect 24 0 46 1;
#X connect 24 0 46 0;
#X connect 25 0 26 1;
#X connect 25 0 50 1;
#X connect 25 0 51 0;
#X connect 26 0 27 0;
#X connect 27 0 28 1;
#X connect 27 0 34 0;
#X connect 27 0 65 0;
#X connect 28 0 44 0;
#X connect 29 0 38 0;
#X connect 29 0 67 0;
#X connect 30 0 29 0;
#X connect 31 0 32 0;
#X connect 31 0 35 0;
#X connect 32 0 31 1;
#X connect 33 0 34 0;
#X connect 33 0 36 0;
#X connect 34 0 33 1;
#X connect 35 0 40 0;
#X connect 36 0 40 1;
#X connect 37 0 31 0;
#X connect 38 0 37 0;
#X connect 38 1 39 0;
#X connect 39 0 33 0;
#X connect 40 0 42 0;
#X connect 44 0 56 0;
#X connect 45 0 28 0;
#X connect 45 1 32 0;
#X connect 45 2 26 0;
#X connect 46 0 45 0;
#X connect 48 0 47 0;
#X connect 50 0 43 0;
#X connect 51 0 48 0;
#X connect 52 0 24 0;
#X connect 52 0 50 0;
#X connect 53 0 11 0;
#X connect 54 0 53 1;
#X connect 54 0 52 1;
#X connect 54 0 51 1;
#X connect 54 0 55 0;
#X connect 55 0 56 1;
#X connect 56 0 30 0;
#X connect 57 0 3 0;
#X connect 57 0 58 0;
#X connect 57 1 58 1;
#X connect 58 0 22 0;
#X connect 58 0 49 0;
#X connect 60 0 59 0;
#X connect 61 0 62 0;
#X connect 61 1 60 1;
#X connect 62 0 60 0;
#X connect 64 0 65 0;
#X connect 64 0 66 0;
#X connect 65 0 64 1;
#X connect 66 0 61 0;
#X connect 67 0 64 0;
#X connect 68 0 23 0;
#X connect 69 0 68 1;
#X connect 71 0 72 1;
#X connect 72 0 5 0;
#X restore 255 286 pd recsequence;
#N canvas 125 247 595 438 clock 0;
#X obj 107 121 tgl 15 0 empty empty empty 17 7 0 10 -262144 -1 -1 1
1;
#X obj 107 234 bng 15 250 50 0 empty empty empty 17 7 0 10 -262144
-1 -1;
#X floatatom 158 187 8 0 0 2 1_slice - -;
#X obj 107 210 metro 400;
#X obj 143 150 t b f;
#X obj 214 210 metro 400;
#X obj 214 234 bng 15 250 50 0 empty empty empty 17 7 0 10 -262144
-1 -1;
#X obj 107 261 outlet;
#X obj 214 261 outlet;
#X obj 179 72 inlet;
#X obj 107 72 r clock\$1;
#X obj 265 187 / 8;
#X obj 143 127 r Quantize\$1;
#X connect 0 0 3 0;
#X connect 0 0 5 0;
#X connect 1 0 7 0;
#X connect 2 0 3 1;
#X connect 2 0 11 0;
#X connect 3 0 1 0;
#X connect 4 0 2 0;
#X connect 4 1 11 1;
#X connect 5 0 6 0;
#X connect 6 0 8 0;
#X connect 9 0 2 0;
#X connect 10 0 0 0;
#X connect 11 0 5 1;
#X connect 12 0 4 0;
#X coords 0 -1 1 1 30 40 1 100 100;
#X restore 77 115 pd clock;
#X floatatom 77 376 5 0 0 0 - - -;
#X obj 77 350 tabread \$0_STD;
#X floatatom 255 338 5 0 0 0 - - -;
#N canvas 729 263 364 407 switch 0;
#X obj 104 245 spigot;
#X obj 8 74 inlet;
#X obj 8 280 outlet;
#X obj 103 121 hradio 15 1 0 2 empty empty empty 0 -8 0 10 -262144
-1 -1 0;
#X floatatom 103 143 5 0 0 0 - - -;
#X obj 103 191 sel 0 1;
#X obj 103 215 tgl 15 0 empty empty empty 17 7 0 10 -262144 -1 -1 1
1;
#X obj 137 215 tgl 15 0 empty empty empty 17 7 0 10 -262144 -1 -1 0
1;
#X obj 103 165 change;
#X obj 43 192 loadbang;
#X obj 103 75 inlet;
#X obj 8 244 spigot;
#X obj 56 74 inlet;
#X connect 0 0 2 0;
#X connect 1 0 11 0;
#X connect 3 0 4 0;
#X connect 4 0 8 0;
#X connect 5 0 6 0;
#X connect 5 0 7 0;
#X connect 5 1 7 0;
#X connect 5 1 6 0;
#X connect 6 0 11 1;
#X connect 7 0 0 1;
#X connect 8 0 5 0;
#X connect 9 0 6 0;
#X connect 10 0 3 0;
#X connect 11 0 2 0;
#X connect 12 0 0 0;
#X coords 0 -1 1 1 35 40 1 100 100;
#X restore 77 404 pd switch;
#X obj 140 246 pack f \$1 f;
#X obj 77 61 inlet;
#X obj 104 658 outlet;
#X obj 275 61 inlet;
#X text 75 38 1sliceの持続時間（msec）;
#X text 273 43 mode;
#X text 7 39 monome;
#X obj 104 553 spigot;
#X obj 104 510 t f f;
#X obj 104 459 mode;
#X obj 207 474 change;
#X obj 207 448 div 1;
#X obj 255 312 tabread \$0_SEQ;
#X floatatom 351 338 5 0 0 0 - - -;
#X obj 351 312 tabread \$0_array1;
#X obj 351 362 < 0;
#X obj 255 367 spigot;
#X obj 437 363 >= 0;
#X obj 404 388 spigot;
#X obj 410 340 t f f;
#X floatatom 364 509 5 0 0 0 - - -;
#X obj 364 563 hradio 15 1 0 8 empty empty empty 0 -8 0 10 -262144
-1 -1 3;
#X obj 364 593 bng 15 250 50 0 empty empty empty 17 7 0 10 -262144
-1 -1;
#X obj 260 514 mode;
#X obj 351 429 > 0;
#X obj 288 559 change;
#X obj 364 535 / 8;
#X obj 234 165 counter 0 63;
#X obj 104 578 / 8;
#X obj 207 425 / 8;
#X obj 259 399 r Quantize\$1;
#X obj 303 109 r Quantize\$1;
#X obj 303 136 expr ($f1*8)-1;
#X obj 131 531 expr $f1%$f2 == 0;
#X msg 332 69 reset;
#X obj 332 24 r clock\$1;
#X obj 332 45 sel 1;
#X connect 0 0 11 0;
#X connect 1 0 3 0;
#X connect 1 1 4 0;
#X connect 1 2 16 2;
#X connect 2 0 1 0;
#X connect 3 0 16 0;
#X connect 4 0 3 1;
#X connect 5 0 6 0;
#X connect 7 0 5 0;
#X connect 8 0 9 1;
#X connect 8 1 10 2;
#X connect 9 0 13 0;
#X connect 10 0 28 0;
#X connect 11 0 9 0;
#X connect 11 0 43 0;
#X connect 11 1 10 0;
#X connect 12 0 15 0;
#X connect 13 0 12 0;
#X connect 14 0 32 0;
#X connect 15 0 25 0;
#X connect 16 0 8 0;
#X connect 17 0 0 0;
#X connect 19 0 8 1;
#X connect 19 0 15 2;
#X connect 19 0 25 1;
#X connect 23 0 44 0;
#X connect 24 0 23 0;
#X connect 24 1 49 0;
#X connect 25 0 24 0;
#X connect 25 1 36 0;
#X connect 25 1 45 0;
#X connect 26 0 7 0;
#X connect 27 0 26 0;
#X connect 28 0 14 0;
#X connect 29 0 31 0;
#X connect 29 0 35 0;
#X connect 30 0 29 0;
#X connect 31 0 32 1;
#X connect 31 0 40 0;
#X connect 32 0 15 1;
#X connect 33 0 34 1;
#X connect 34 0 15 1;
#X connect 35 0 34 0;
#X connect 35 1 33 0;
#X connect 36 0 42 0;
#X connect 37 0 38 0;
#X connect 39 0 18 0;
#X connect 39 1 41 0;
#X connect 40 0 39 1;
#X connect 41 0 18 0;
#X connect 42 0 37 0;
#X connect 43 0 10 1;
#X connect 43 0 28 0;
#X connect 43 0 30 0;
#X connect 44 0 7 0;
#X connect 44 0 18 0;
#X connect 45 0 27 0;
#X connect 45 0 39 0;
#X connect 46 0 45 1;
#X connect 46 0 42 1;
#X connect 46 0 44 1;
#X connect 46 0 49 1;
#X connect 47 0 48 0;
#X connect 48 0 43 3;
#X connect 48 0 50 0;
#X connect 49 0 23 1;
#X connect 50 0 43 0;
#X connect 51 0 52 0;
#X connect 52 0 50 0;
#X restore 174 267 pd playback;
#X text 237 310 monome feedback;
#X text 173 223 monome parameter;
#X obj 174 242 r fromMonome;
#X obj 237 292 s toMonome;
#X obj 125 7 line;
#X obj 205 -20 +;
#X obj 125 147 * 20;
#X obj 7 171 splitfilename;
#X symbolatom 8 207 15 0 0 2 file_name - -;
#X obj 87 490 env~;
#X obj 87 512 - 100;
#X obj 111 34 vu 8 80 empty empty -1 -8 0 10 -66577 -1 0 0;
#N canvas 218 46 276 467 1strowControl 0;
#X obj 99 28 r fromMonome;
#X obj 37 419 s toMonome;
#N canvas 842 217 326 249 togglemode 0;
#X obj 14 163 pack f f f;
#X obj 14 52 inlet;
#X obj 14 191 outlet;
#X obj 14 91 unpack f f;
#N canvas 0 383 353 197 GetToggleValue 0;
#N canvas 428 283 437 223 tgl1 0;
#X obj 16 123 tgl 15 0 empty empty empty 17 7 0 10 -262144 -1 -1 0
1;
#X obj 16 102 sel 1;
#X obj 16 65 route 0 1 2 3 4 5 6 7;
#X obj 55 123 tgl 15 0 empty empty empty 17 7 0 10 -262144 -1 -1 0
1;
#X obj 55 102 sel 1;
#X obj 94 123 tgl 15 0 empty empty empty 17 7 0 10 -262144 -1 -1 0
1;
#X obj 94 102 sel 1;
#X obj 132 123 tgl 15 0 empty empty empty 17 7 0 10 -262144 -1 -1 0
1;
#X obj 132 102 sel 1;
#X obj 171 122 tgl 15 0 empty empty empty 17 7 0 10 -262144 -1 -1 0
1;
#X obj 171 101 sel 1;
#X obj 210 122 tgl 15 0 empty empty empty 17 7 0 10 -262144 -1 -1 0
1;
#X obj 210 101 sel 1;
#X obj 249 122 tgl 15 0 empty empty empty 17 7 0 10 -262144 -1 -1 0
1;
#X obj 249 101 sel 1;
#X obj 287 122 tgl 15 0 empty empty empty 17 7 0 10 -262144 -1 -1 0
1;
#X obj 287 101 sel 1;
#X obj 16 12 inlet;
#X obj 16 171 outlet;
#X obj 16 37 route 0 1 2 3 4 5 6 7;
#X connect 0 0 18 0;
#X connect 1 0 0 0;
#X connect 2 0 1 0;
#X connect 2 1 4 0;
#X connect 2 2 6 0;
#X connect 2 3 8 0;
#X connect 2 4 10 0;
#X connect 2 5 12 0;
#X connect 2 6 14 0;
#X connect 2 7 16 0;
#X connect 3 0 18 0;
#X connect 4 0 3 0;
#X connect 5 0 18 0;
#X connect 6 0 5 0;
#X connect 7 0 18 0;
#X connect 8 0 7 0;
#X connect 9 0 18 0;
#X connect 10 0 9 0;
#X connect 11 0 18 0;
#X connect 12 0 11 0;
#X connect 13 0 18 0;
#X connect 14 0 13 0;
#X connect 15 0 18 0;
#X connect 16 0 15 0;
#X connect 17 0 19 0;
#X connect 19 0 2 0;
#X restore 9 77 pd tgl1;
#N canvas 428 283 437 223 tgl2 0;
#X obj 31 124 tgl 15 0 empty empty empty 17 7 0 10 -262144 -1 -1 0
1;
#X obj 31 103 sel 1;
#X obj 31 66 route 0 1 2 3 4 5 6 7;
#X obj 70 124 tgl 15 0 empty empty empty 17 7 0 10 -262144 -1 -1 0
1;
#X obj 70 103 sel 1;
#X obj 109 124 tgl 15 0 empty empty empty 17 7 0 10 -262144 -1 -1 0
1;
#X obj 109 103 sel 1;
#X obj 147 124 tgl 15 0 empty empty empty 17 7 0 10 -262144 -1 -1 0
1;
#X obj 147 103 sel 1;
#X obj 186 123 tgl 15 0 empty empty empty 17 7 0 10 -262144 -1 -1 0
1;
#X obj 186 102 sel 1;
#X obj 225 123 tgl 15 0 empty empty empty 17 7 0 10 -262144 -1 -1 0
1;
#X obj 225 102 sel 1;
#X obj 264 123 tgl 15 0 empty empty empty 17 7 0 10 -262144 -1 -1 0
1;
#X obj 264 102 sel 1;
#X obj 302 123 tgl 15 0 empty empty empty 17 7 0 10 -262144 -1 -1 0
1;
#X obj 302 102 sel 1;
#X obj 16 12 inlet;
#X obj 31 172 outlet;
#X obj 16 37 route 0 1 2 3 4 5 6 7;
#X connect 0 0 18 0;
#X connect 1 0 0 0;
#X connect 2 0 1 0;
#X connect 2 1 4 0;
#X connect 2 2 6 0;
#X connect 2 3 8 0;
#X connect 2 4 10 0;
#X connect 2 5 12 0;
#X connect 2 6 14 0;
#X connect 2 7 16 0;
#X connect 3 0 18 0;
#X connect 4 0 3 0;
#X connect 5 0 18 0;
#X connect 6 0 5 0;
#X connect 7 0 18 0;
#X connect 8 0 7 0;
#X connect 9 0 18 0;
#X connect 10 0 9 0;
#X connect 11 0 18 0;
#X connect 12 0 11 0;
#X connect 13 0 18 0;
#X connect 14 0 13 0;
#X connect 15 0 18 0;
#X connect 16 0 15 0;
#X connect 17 0 19 0;
#X connect 19 1 2 0;
#X restore 60 77 pd tgl2;
#N canvas 428 283 437 223 tgl3 0;
#X obj 46 122 tgl 15 0 empty empty empty 17 7 0 10 -262144 -1 -1 0
1;
#X obj 46 101 sel 1;
#X obj 46 64 route 0 1 2 3 4 5 6 7;
#X obj 85 122 tgl 15 0 empty empty empty 17 7 0 10 -262144 -1 -1 0
1;
#X obj 85 101 sel 1;
#X obj 124 122 tgl 15 0 empty empty empty 17 7 0 10 -262144 -1 -1 0
1;
#X obj 124 101 sel 1;
#X obj 162 122 tgl 15 0 empty empty empty 17 7 0 10 -262144 -1 -1 0
1;
#X obj 162 101 sel 1;
#X obj 201 121 tgl 15 0 empty empty empty 17 7 0 10 -262144 -1 -1 0
1;
#X obj 201 100 sel 1;
#X obj 240 121 tgl 15 0 empty empty empty 17 7 0 10 -262144 -1 -1 0
1;
#X obj 240 100 sel 1;
#X obj 279 121 tgl 15 0 empty empty empty 17 7 0 10 -262144 -1 -1 0
1;
#X obj 279 100 sel 1;
#X obj 317 121 tgl 15 0 empty empty empty 17 7 0 10 -262144 -1 -1 0
1;
#X obj 317 100 sel 1;
#X obj 16 12 inlet;
#X obj 46 170 outlet;
#X obj 16 37 route 0 1 2 3 4 5 6 7;
#X connect 0 0 18 0;
#X connect 1 0 0 0;
#X connect 2 0 1 0;
#X connect 2 1 4 0;
#X connect 2 2 6 0;
#X connect 2 3 8 0;
#X connect 2 4 10 0;
#X connect 2 5 12 0;
#X connect 2 6 14 0;
#X connect 2 7 16 0;
#X connect 3 0 18 0;
#X connect 4 0 3 0;
#X connect 5 0 18 0;
#X connect 6 0 5 0;
#X connect 7 0 18 0;
#X connect 8 0 7 0;
#X connect 9 0 18 0;
#X connect 10 0 9 0;
#X connect 11 0 18 0;
#X connect 12 0 11 0;
#X connect 13 0 18 0;
#X connect 14 0 13 0;
#X connect 15 0 18 0;
#X connect 16 0 15 0;
#X connect 17 0 19 0;
#X connect 19 2 2 0;
#X restore 111 77 pd tgl3;
#N canvas 428 283 437 223 tgl4 0;
#X obj 62 131 tgl 15 0 empty empty empty 17 7 0 10 -262144 -1 -1 0
1;
#X obj 62 102 sel 1;
#X obj 62 65 route 0 1 2 3 4 5 6 7;
#X obj 101 131 tgl 15 0 empty empty empty 17 7 0 10 -262144 -1 -1 0
1;
#X obj 101 102 sel 1;
#X obj 140 131 tgl 15 0 empty empty empty 17 7 0 10 -262144 -1 -1 0
1;
#X obj 140 102 sel 1;
#X obj 178 131 tgl 15 0 empty empty empty 17 7 0 10 -262144 -1 -1 0
1;
#X obj 178 102 sel 1;
#X obj 217 130 tgl 15 0 empty empty empty 17 7 0 10 -262144 -1 -1 0
1;
#X obj 217 101 sel 1;
#X obj 256 130 tgl 15 0 empty empty empty 17 7 0 10 -262144 -1 -1 0
1;
#X obj 256 101 sel 1;
#X obj 295 130 tgl 15 0 empty empty empty 17 7 0 10 -262144 -1 -1 0
1;
#X obj 295 101 sel 1;
#X obj 333 130 tgl 15 0 empty empty empty 17 7 0 10 -262144 -1 -1 0
1;
#X obj 333 101 sel 1;
#X obj 16 12 inlet;
#X obj 62 171 outlet;
#X obj 16 37 route 0 1 2 3 4 5 6 7;
#X connect 0 0 18 0;
#X connect 1 0 0 0;
#X connect 2 0 1 0;
#X connect 2 1 4 0;
#X connect 2 2 6 0;
#X connect 2 3 8 0;
#X connect 2 4 10 0;
#X connect 2 5 12 0;
#X connect 2 6 14 0;
#X connect 2 7 16 0;
#X connect 3 0 18 0;
#X connect 4 0 3 0;
#X connect 5 0 18 0;
#X connect 6 0 5 0;
#X connect 7 0 18 0;
#X connect 8 0 7 0;
#X connect 9 0 18 0;
#X connect 10 0 9 0;
#X connect 11 0 18 0;
#X connect 12 0 11 0;
#X connect 13 0 18 0;
#X connect 14 0 13 0;
#X connect 15 0 18 0;
#X connect 16 0 15 0;
#X connect 17 0 19 0;
#X connect 19 3 2 0;
#X restore 164 77 pd tgl4;
#N canvas 428 283 437 223 tgl5 0;
#X obj 16 126 tgl 15 0 empty empty empty 17 7 0 10 -262144 -1 -1 0
1;
#X obj 16 105 sel 1;
#X obj 16 68 route 0 1 2 3 4 5 6 7;
#X obj 55 126 tgl 15 0 empty empty empty 17 7 0 10 -262144 -1 -1 0
1;
#X obj 55 105 sel 1;
#X obj 94 126 tgl 15 0 empty empty empty 17 7 0 10 -262144 -1 -1 0
1;
#X obj 94 105 sel 1;
#X obj 132 126 tgl 15 0 empty empty empty 17 7 0 10 -262144 -1 -1 0
1;
#X obj 132 105 sel 1;
#X obj 171 125 tgl 15 0 empty empty empty 17 7 0 10 -262144 -1 -1 0
1;
#X obj 171 104 sel 1;
#X obj 210 125 tgl 15 0 empty empty empty 17 7 0 10 -262144 -1 -1 0
1;
#X obj 210 104 sel 1;
#X obj 249 125 tgl 15 0 empty empty empty 17 7 0 10 -262144 -1 -1 0
1;
#X obj 249 104 sel 1;
#X obj 287 125 tgl 15 0 empty empty empty 17 7 0 10 -262144 -1 -1 0
1;
#X obj 287 104 sel 1;
#X obj 16 12 inlet;
#X obj 16 174 outlet;
#X obj 16 37 route 0 1 2 3 4 5 6 7;
#X connect 0 0 18 0;
#X connect 1 0 0 0;
#X connect 2 0 1 0;
#X connect 2 1 4 0;
#X connect 2 2 6 0;
#X connect 2 3 8 0;
#X connect 2 4 10 0;
#X connect 2 5 12 0;
#X connect 2 6 14 0;
#X connect 2 7 16 0;
#X connect 3 0 18 0;
#X connect 4 0 3 0;
#X connect 5 0 18 0;
#X connect 6 0 5 0;
#X connect 7 0 18 0;
#X connect 8 0 7 0;
#X connect 9 0 18 0;
#X connect 10 0 9 0;
#X connect 11 0 18 0;
#X connect 12 0 11 0;
#X connect 13 0 18 0;
#X connect 14 0 13 0;
#X connect 15 0 18 0;
#X connect 16 0 15 0;
#X connect 17 0 19 0;
#X connect 19 4 2 0;
#X restore 89 107 pd tgl5;
#N canvas 428 283 437 223 tgl6 0;
#X obj 16 126 tgl 15 0 empty empty empty 17 7 0 10 -262144 -1 -1 0
1;
#X obj 16 105 sel 1;
#X obj 16 68 route 0 1 2 3 4 5 6 7;
#X obj 55 126 tgl 15 0 empty empty empty 17 7 0 10 -262144 -1 -1 0
1;
#X obj 55 105 sel 1;
#X obj 94 126 tgl 15 0 empty empty empty 17 7 0 10 -262144 -1 -1 0
1;
#X obj 94 105 sel 1;
#X obj 132 126 tgl 15 0 empty empty empty 17 7 0 10 -262144 -1 -1 0
1;
#X obj 132 105 sel 1;
#X obj 171 125 tgl 15 0 empty empty empty 17 7 0 10 -262144 -1 -1 0
1;
#X obj 171 104 sel 1;
#X obj 210 125 tgl 15 0 empty empty empty 17 7 0 10 -262144 -1 -1 0
1;
#X obj 210 104 sel 1;
#X obj 249 125 tgl 15 0 empty empty empty 17 7 0 10 -262144 -1 -1 0
1;
#X obj 249 104 sel 1;
#X obj 287 125 tgl 15 0 empty empty empty 17 7 0 10 -262144 -1 -1 0
1;
#X obj 287 104 sel 1;
#X obj 16 12 inlet;
#X obj 16 174 outlet;
#X obj 16 37 route 0 1 2 3 4 5 6 7;
#X connect 0 0 18 0;
#X connect 1 0 0 0;
#X connect 2 0 1 0;
#X connect 2 1 4 0;
#X connect 2 2 6 0;
#X connect 2 3 8 0;
#X connect 2 4 10 0;
#X connect 2 5 12 0;
#X connect 2 6 14 0;
#X connect 2 7 16 0;
#X connect 3 0 18 0;
#X connect 4 0 3 0;
#X connect 5 0 18 0;
#X connect 6 0 5 0;
#X connect 7 0 18 0;
#X connect 8 0 7 0;
#X connect 9 0 18 0;
#X connect 10 0 9 0;
#X connect 11 0 18 0;
#X connect 12 0 11 0;
#X connect 13 0 18 0;
#X connect 14 0 13 0;
#X connect 15 0 18 0;
#X connect 16 0 15 0;
#X connect 17 0 19 0;
#X connect 19 5 2 0;
#X restore 144 108 pd tgl6;
#N canvas 428 283 437 223 tgl7 0;
#X obj 16 126 tgl 15 0 empty empty empty 17 7 0 10 -262144 -1 -1 0
1;
#X obj 16 105 sel 1;
#X obj 16 68 route 0 1 2 3 4 5 6 7;
#X obj 55 126 tgl 15 0 empty empty empty 17 7 0 10 -262144 -1 -1 0
1;
#X obj 55 105 sel 1;
#X obj 94 126 tgl 15 0 empty empty empty 17 7 0 10 -262144 -1 -1 0
1;
#X obj 94 105 sel 1;
#X obj 132 126 tgl 15 0 empty empty empty 17 7 0 10 -262144 -1 -1 0
1;
#X obj 132 105 sel 1;
#X obj 171 125 tgl 15 0 empty empty empty 17 7 0 10 -262144 -1 -1 0
1;
#X obj 171 104 sel 1;
#X obj 210 125 tgl 15 0 empty empty empty 17 7 0 10 -262144 -1 -1 0
1;
#X obj 210 104 sel 1;
#X obj 249 125 tgl 15 0 empty empty empty 17 7 0 10 -262144 -1 -1 0
1;
#X obj 249 104 sel 1;
#X obj 287 125 tgl 15 0 empty empty empty 17 7 0 10 -262144 -1 -1 0
1;
#X obj 287 104 sel 1;
#X obj 16 12 inlet;
#X obj 16 174 outlet;
#X obj 16 37 route 0 1 2 3 4 5 6 7;
#X connect 0 0 18 0;
#X connect 1 0 0 0;
#X connect 2 0 1 0;
#X connect 2 1 4 0;
#X connect 2 2 6 0;
#X connect 2 3 8 0;
#X connect 2 4 10 0;
#X connect 2 5 12 0;
#X connect 2 6 14 0;
#X connect 2 7 16 0;
#X connect 3 0 18 0;
#X connect 4 0 3 0;
#X connect 5 0 18 0;
#X connect 6 0 5 0;
#X connect 7 0 18 0;
#X connect 8 0 7 0;
#X connect 9 0 18 0;
#X connect 10 0 9 0;
#X connect 11 0 18 0;
#X connect 12 0 11 0;
#X connect 13 0 18 0;
#X connect 14 0 13 0;
#X connect 15 0 18 0;
#X connect 16 0 15 0;
#X connect 17 0 19 0;
#X connect 19 6 2 0;
#X restore 197 108 pd tgl7;
#N canvas 487 316 437 223 tgl8 0;
#X obj 16 126 tgl 15 0 empty empty empty 17 7 0 10 -262144 -1 -1 0
1;
#X obj 16 105 sel 1;
#X obj 16 68 route 0 1 2 3 4 5 6 7;
#X obj 55 126 tgl 15 0 empty empty empty 17 7 0 10 -262144 -1 -1 0
1;
#X obj 55 105 sel 1;
#X obj 94 126 tgl 15 0 empty empty empty 17 7 0 10 -262144 -1 -1 0
1;
#X obj 94 105 sel 1;
#X obj 132 126 tgl 15 0 empty empty empty 17 7 0 10 -262144 -1 -1 0
1;
#X obj 132 105 sel 1;
#X obj 171 125 tgl 15 0 empty empty empty 17 7 0 10 -262144 -1 -1 0
1;
#X obj 171 104 sel 1;
#X obj 210 125 tgl 15 0 empty empty empty 17 7 0 10 -262144 -1 -1 0
1;
#X obj 210 104 sel 1;
#X obj 249 125 tgl 15 0 empty empty empty 17 7 0 10 -262144 -1 -1 0
1;
#X obj 249 104 sel 1;
#X obj 287 125 tgl 15 0 empty empty empty 17 7 0 10 -262144 -1 -1 0
1;
#X obj 287 104 sel 1;
#X obj 16 12 inlet;
#X obj 16 174 outlet;
#X obj 16 37 route 0 1 2 3 4 5 6 7;
#X connect 0 0 18 0;
#X connect 1 0 0 0;
#X connect 2 0 1 0;
#X connect 2 1 4 0;
#X connect 2 2 6 0;
#X connect 2 3 8 0;
#X connect 2 4 10 0;
#X connect 2 5 12 0;
#X connect 2 6 14 0;
#X connect 2 7 16 0;
#X connect 3 0 18 0;
#X connect 4 0 3 0;
#X connect 5 0 18 0;
#X connect 6 0 5 0;
#X connect 7 0 18 0;
#X connect 8 0 7 0;
#X connect 9 0 18 0;
#X connect 10 0 9 0;
#X connect 11 0 18 0;
#X connect 12 0 11 0;
#X connect 13 0 18 0;
#X connect 14 0 13 0;
#X connect 15 0 18 0;
#X connect 16 0 15 0;
#X connect 17 0 19 0;
#X connect 19 7 2 0;
#X restore 249 107 pd tgl8;
#X obj 9 29 inlet;
#X obj 9 168 outlet;
#X text 8 6 Get Toggle Value from grid;
#X connect 0 0 9 0;
#X connect 1 0 9 0;
#X connect 2 0 9 0;
#X connect 3 0 9 0;
#X connect 4 0 9 0;
#X connect 5 0 9 0;
#X connect 6 0 9 0;
#X connect 7 0 9 0;
#X connect 8 0 0 0;
#X connect 8 0 1 0;
#X connect 8 0 2 0;
#X connect 8 0 3 0;
#X connect 8 0 4 0;
#X connect 8 0 5 0;
#X connect 8 0 6 0;
#X connect 8 0 7 0;
#X restore 131 93 pd GetToggleValue;
#X obj 131 117 t b f;
#X text 127 73 指定したボタンのステータスを取得;
#X text 11 74 座標値はそのまま出力;
#X text 13 21 toggle モード;
#X text 54 51 0 0 0;
#X text 60 189 0 0 0;
#X connect 0 0 2 0;
#X connect 1 0 3 0;
#X connect 1 0 4 0;
#X connect 3 0 0 0;
#X connect 3 1 0 1;
#X connect 4 0 5 0;
#X connect 5 0 0 0;
#X connect 5 1 0 2;
#X restore 99 293 pd togglemode;
#X obj 151 145 unpack f f f;
#X obj 191 168 == 0;
#X obj 99 269 spigot;
#X obj 99 317 tgl 15 0 empty empty empty 17 7 0 10 -262144 -1 -1 1
1;
#X obj 151 216 &&;
#X obj 151 192 == \$1;
#X obj 151 168 + 1;
#X obj 99 72 t l l;
#X obj 99 94 unpack f f f;
#X obj 99 120 sel 1;
#X obj 99 195 tgl 15 0 empty empty empty 17 7 0 10 -262144 -1 -1 1
1;
#X obj 99 144 spigot;
#X text 97 50 toggle track 1st row;
#X obj 99 344 s clock\$1;
#N canvas 577 184 432 461 clearLED_h 0;
#X floatatom 49 251 5 0 0 0 - - -;
#X obj 136 179 hradio 15 1 0 8 empty empty empty 0 -8 0 10 -262144
-1 -1 0;
#X obj 49 202 until;
#X obj 49 227 counter 0 7;
#X msg 87 179 clear;
#X msg 49 179 8;
#X obj 68 152 t b b f;
#X text -16 250 0~7でループ;
#X obj 68 52 inlet;
#X obj 23 433 outlet;
#X text 110 52 0 0 0;
#X text 71 432 0 0 0;
#X text 66 103 row;
#X obj 68 122 unpack f f;
#X obj 49 274 t f f;
#X text 20 27 comment;
#X obj 23 406 pack f f 0;
#X connect 0 0 14 0;
#X connect 2 0 3 0;
#X connect 3 0 0 0;
#X connect 4 0 3 0;
#X connect 5 0 2 0;
#X connect 6 0 5 0;
#X connect 6 1 4 0;
#X connect 6 2 1 0;
#X connect 8 0 13 0;
#X connect 13 0 6 0;
#X connect 13 1 16 1;
#X connect 14 0 16 0;
#X connect 16 0 9 0;
#X restore 37 392 pd clearLED_h;
#X obj 37 348 sel 0;
#X obj 37 370 pack 0 \$1 0;
#X connect 0 0 10 0;
#X connect 2 0 6 0;
#X connect 3 0 9 0;
#X connect 3 1 4 0;
#X connect 4 0 7 1;
#X connect 5 0 2 0;
#X connect 6 0 16 0;
#X connect 6 0 18 0;
#X connect 7 0 5 1;
#X connect 7 0 14 1;
#X connect 8 0 7 0;
#X connect 9 0 8 0;
#X connect 10 0 11 0;
#X connect 10 1 3 0;
#X connect 11 2 12 0;
#X connect 12 0 14 0;
#X connect 13 0 5 0;
#X connect 14 0 13 0;
#X connect 17 0 1 0;
#X connect 18 0 19 0;
#X connect 19 0 17 0;
#X restore 205 24 pd 1strowControl;
#N canvas 370 49 294 376 volumContlorl 0;
#X obj 127 29 r fromMonome;
#X obj 154 74 unpack f f f;
#X obj 127 186 spigot;
#X obj 127 52 t l l;
#X obj 127 237 s toMonome;
#X obj 192 120 >= 6;
#N canvas 630 133 432 461 fadermode 0;
#X floatatom 156 248 5 0 0 0 - - -;
#X obj 156 199 until;
#X msg 194 176 clear;
#X msg 156 176 8;
#X obj 175 149 t b b f;
#X obj 23 406 pack 0 0 0;
#X obj 23 342 f;
#X obj 156 279 t b f f;
#X obj 68 82 t l l;
#X obj 38 121 unpack 0;
#X text 36 102 row;
#X obj 118 121 unpack 0 0;
#X text 116 102 col;
#X text 21 323 row;
#X obj 68 52 inlet;
#X obj 23 433 outlet;
#X text 110 52 0 0 0;
#X text 71 432 0 0 0;
#X text 20 27 fader モード;
#X obj 247 176 expr ($f1/7)*127;
#X obj 250 202 hsl 128 8 0 127 0 0 empty empty empty -2 -8 0 10 -262144
-1 -1 0 1;
#X obj 199 311 >=;
#X text 198 336 押下した座標はon それ以下の座標はoff
;
#X obj 156 224 counter 6 7;
#X text 91 247 6~7でループ;
#X connect 0 0 7 0;
#X connect 1 0 23 0;
#X connect 2 0 23 0;
#X connect 3 0 1 0;
#X connect 4 0 3 0;
#X connect 4 1 2 0;
#X connect 4 2 19 0;
#X connect 4 2 21 1;
#X connect 5 0 15 0;
#X connect 6 0 5 0;
#X connect 7 0 6 0;
#X connect 7 1 5 1;
#X connect 7 2 21 0;
#X connect 8 0 11 0;
#X connect 8 1 9 0;
#X connect 9 0 6 1;
#X connect 11 1 4 0;
#X connect 14 0 8 0;
#X connect 19 0 20 0;
#X connect 21 0 5 2;
#X connect 23 0 0 0;
#X restore 127 210 pd fadermode;
#X obj 154 120 == \$1;
#X obj 159 149 &&;
#X obj 154 98 + 1;
#X obj 227 120 == 1;
#X obj 182 172 &&;
#X obj 33 209 unpack f f f;
#X floatatom 67 236 5 0 0 0 - - -;
#X obj 67 261 sel 6;
#X floatatom 75 313 5 0 0 0 - - -;
#X msg 67 284 5;
#X msg 100 284 -5;
#X obj 75 339 outlet;
#X connect 0 0 3 0;
#X connect 1 0 9 0;
#X connect 1 1 5 0;
#X connect 1 2 10 0;
#X connect 2 0 6 0;
#X connect 2 0 12 0;
#X connect 3 0 2 0;
#X connect 3 1 1 0;
#X connect 5 0 8 1;
#X connect 6 0 4 0;
#X connect 7 0 8 0;
#X connect 8 0 11 0;
#X connect 9 0 7 0;
#X connect 10 0 11 1;
#X connect 11 0 2 1;
#X connect 12 1 13 0;
#X connect 13 0 14 0;
#X connect 14 0 16 0;
#X connect 14 1 17 0;
#X connect 15 0 18 0;
#X connect 16 0 15 0;
#X connect 17 0 15 0;
#X restore 205 -45 pd volumContlorl;
#X text 204 5 1strow toggle control;
#X obj 387 72 tgl 15 0 empty empty empty 17 7 0 10 -262144 -1 -1 0
1;
#X obj 387 -71 r fromMonome;
#X obj 387 -49 unpack f f f;
#X obj 456 -27 == 1;
#X obj 421 -26 == 0;
#X obj 387 -26 - 3;
#X obj 387 -3 == \$1;
#X obj 427 -2 &&;
#X obj 387 21 &&;
#X obj 387 46 sel 1;
#X obj 387 96 sel 0;
#X obj 79 314 / 8;
#X text 204 -64 6 \, 7 row control volume;
#X floatatom -117 30 5 1 8 0 - - -;
#X obj -90 77 s Quantize\$1;
#X obj 79 236 r Quantize\$1;
#X obj 421 207 r Quantize\$1;
#X obj 421 234 expr $f1*8;
#X obj 421 308 pack f f;
#X obj 421 262 t b f;
#X obj 421 285 \$0;
#X msg 421 334 \; \$1_STD resize \$2 \$1_SEQ resize \$2 \; \$1_array1
resize \$2 \;;
#X obj -117 -17 loadbang;
#X msg -117 7 8;
#X obj 79 260 t b f;
#N canvas 41 322 241 210 graph 0;
#N canvas 0 22 153 198 (subpatch) 0;
#X array \$0_STD 64 float 3;
#A 0 0 1 2 3 4 5 6 7 8 9 10 11 12 13 14 15 16 17 18 19 20 21 22 23
24 25 26 27 28 29 30 31 32 33 34 35 36 37 38 39 40 41 42 43 44 45 46
47 48 49 50 51 52 53 54 55 56 57 58 59 60 61 62 63;
#X coords 0 63 64 0 63 63 1 0 0;
#X restore 39 37 graph;
#N canvas 0 22 450 300 (subpatch) 0;
#X array \$0_SEQ 64 float 2;
#X coords 0 63 63 0 63 63 1 0 0;
#X restore 41 127 graph;
#X text 111 34 標準シーケンス;
#X text 111 121 記録シーケンス;
#X restore 5 -21 pd graph;
#X obj 125 -18 r deck\$1;
#X obj 125 169 s level\$1;
#X obj 46 441 r level\$1;
#X obj 87 535 s vu\$1;
#X obj 110 -47 r vu\$1;
#N canvas 111 209 277 300 init_sequence 0;
#X obj -91 17 inlet;
#X obj -91 118 until;
#X msg -45 118 reset;
#X obj -91 93 t f b;
#X obj -91 226 tabwrite \$0_STD;
#X obj -91 44 bng 15 250 50 0 empty empty empty 17 7 0 10 -262144 -1
-1;
#X text -73 42 reset;
#X obj -91 200 pack f f;
#X obj -75 253 tabwrite \$0_SEQ;
#X obj 32 253 tabwrite \$0_array1;
#X obj 32 221 pack f f;
#X obj 32 169 t b f;
#X msg 32 195 -1;
#X msg -91 70 64;
#X obj -91 144 counter 0 63;
#X obj 11 89 r Quantize\$1;
#X obj 11 116 expr ($f1*8)-1;
#X connect 0 0 5 0;
#X connect 1 0 14 0;
#X connect 2 0 14 0;
#X connect 3 0 1 0;
#X connect 3 1 2 0;
#X connect 5 0 13 0;
#X connect 7 0 4 0;
#X connect 7 0 8 0;
#X connect 10 0 9 0;
#X connect 11 0 12 0;
#X connect 11 1 10 1;
#X connect 12 0 10 0;
#X connect 13 0 3 0;
#X connect 14 0 7 1;
#X connect 14 0 7 0;
#X connect 14 0 11 0;
#X connect 15 0 16 0;
#X connect 16 0 14 3;
#X restore -117 179 pd init_sequence;
#X obj -117 52 t b f;
#X obj 387 118 s init\$1;
#X obj -105 140 r init\$1;
#X connect 0 0 16 0;
#X connect 2 0 13 0;
#X connect 3 0 2 0;
#X connect 4 0 3 0;
#X connect 5 0 6 0;
#X connect 5 1 7 0;
#X connect 5 2 8 0;
#X connect 7 0 9 0;
#X connect 8 0 45 0;
#X connect 9 0 4 0;
#X connect 9 1 3 1;
#X connect 12 0 25 0;
#X connect 13 0 11 0;
#X connect 13 0 28 0;
#X connect 14 0 12 0;
#X connect 14 0 24 1;
#X connect 15 0 7 0;
#X connect 15 1 4 1;
#X connect 16 0 5 0;
#X connect 16 0 65 0;
#X connect 16 1 26 0;
#X connect 18 0 15 0;
#X connect 18 1 22 0;
#X connect 21 0 18 0;
#X connect 23 0 14 0;
#X connect 24 0 23 0;
#X connect 25 0 61 0;
#X connect 26 1 27 0;
#X connect 28 0 29 0;
#X connect 29 0 63 0;
#X connect 32 0 24 0;
#X connect 34 0 44 0;
#X connect 34 0 18 2;
#X connect 35 0 36 0;
#X connect 36 0 39 0;
#X connect 36 1 38 0;
#X connect 36 2 37 0;
#X connect 37 0 41 1;
#X connect 38 0 41 0;
#X connect 39 0 40 0;
#X connect 40 0 42 0;
#X connect 41 0 42 1;
#X connect 42 0 43 0;
#X connect 43 0 34 0;
#X connect 44 0 67 0;
#X connect 45 0 18 1;
#X connect 47 0 66 0;
#X connect 49 0 58 0;
#X connect 50 0 51 0;
#X connect 51 0 53 0;
#X connect 52 0 55 0;
#X connect 53 0 54 0;
#X connect 53 1 52 1;
#X connect 54 0 52 0;
#X connect 56 0 57 0;
#X connect 57 0 47 0;
#X connect 58 0 8 0;
#X connect 58 1 45 1;
#X connect 60 0 23 0;
#X connect 62 0 13 1;
#X connect 64 0 30 0;
#X connect 66 0 65 0;
#X connect 66 1 48 0;
#X connect 68 0 65 0;
#X coords 0 -1 1 1 140 120 1 0 0;
