#N canvas 355 176 609 291 10;
#X declare -lib flatgui;
#X declare -lib mrpeach;
#X obj 19 52 import flatgui;
#X obj 204 44 cnv 15 40 130 empty empty empty 20 12 0 14 -233017 -66577
0;
#X obj 231 100 vsl 8 64 0 127 0 0 empty f0 empty 0 -9 0 10 -262144
-1 -1 1786 1;
#X obj 219 68 knob 20 20 0 127 0 0 empty k0 empty 0 -8 0 8 -262144
-1 -1 45 1;
#X obj 209 99 tgl 15 0 empty s0 S 5 9 0 10 -262144 -1 -1 0 127;
#X obj 209 124 tgl 15 0 empty m0 M 5 9 0 10 -262144 -1 -1 0 127;
#X obj 209 149 tgl 15 0 empty r0 R 5 9 0 10 -262144 -1 -1 0 127;
#X obj 252 44 cnv 15 40 130 empty empty empty 20 12 0 14 -233017 -66577
0;
#X obj 279 100 vsl 8 64 0 127 0 0 empty f1 empty 0 -9 0 10 -262144
-1 -1 992 1;
#X obj 267 68 knob 20 20 0 127 0 0 empty k1 empty 0 -8 0 8 -262144
-1 -1 0 1;
#X obj 257 99 tgl 15 0 empty s1 S 5 9 0 10 -262144 -1 -1 0 127;
#X obj 257 124 tgl 15 0 empty m1 M 5 9 0 10 -262144 -1 -1 0 127;
#X obj 257 149 tgl 15 0 empty r1 R 5 9 0 10 -262144 -1 -1 0 127;
#X obj 301 45 cnv 15 40 130 empty empty empty 20 12 0 14 -233017 -66577
0;
#X obj 328 101 vsl 8 64 0 127 0 0 empty f2 empty 0 -9 0 10 -262144
-1 -1 0 1;
#X obj 316 69 knob 20 20 0 127 0 0 empty k2 empty 0 -8 0 8 -262144
-1 -1 0 1;
#X obj 306 100 tgl 15 0 empty s2 S 5 9 0 10 -262144 -1 -1 0 127;
#X obj 306 125 tgl 15 0 empty m2 M 5 9 0 10 -262144 -1 -1 0 127;
#X obj 306 150 tgl 15 0 empty r2 R 5 9 0 10 -262144 -1 -1 0 127;
#X obj 349 45 cnv 15 40 130 empty empty empty 20 12 0 14 -233017 -66577
0;
#X obj 376 101 vsl 8 64 0 127 0 0 empty f3 empty 0 -9 0 10 -262144
-1 -1 0 1;
#X obj 364 69 knob 20 20 0 127 0 0 empty k3 empty 0 -8 0 8 -262144
-1 -1 0 1;
#X obj 354 100 tgl 15 0 empty s3 S 5 9 0 10 -262144 -1 -1 0 127;
#X obj 354 125 tgl 15 0 empty m3 M 5 9 0 10 -262144 -1 -1 0 127;
#X obj 354 150 tgl 15 0 empty r3 R 5 9 0 10 -262144 -1 -1 0 127;
#X obj 397 45 cnv 15 40 130 empty empty empty 20 12 0 14 -233017 -66577
0;
#X obj 424 101 vsl 8 64 0 127 0 0 empty f4 empty 0 -9 0 10 -262144
-1 -1 0 1;
#X obj 412 69 knob 20 20 0 127 0 0 empty k4 empty 0 -8 0 8 -262144
-1 -1 898 1;
#X obj 402 100 tgl 15 0 empty s4 S 5 9 0 10 -262144 -1 -1 0 127;
#X obj 402 125 tgl 15 0 empty m4 M 5 9 0 10 -262144 -1 -1 0 127;
#X obj 402 150 tgl 15 0 empty r4 R 5 9 0 10 -262144 -1 -1 0 127;
#X obj 445 45 cnv 15 40 130 empty empty empty 20 12 0 14 -233017 -66577
0;
#X obj 472 101 vsl 8 64 0 127 0 0 empty f5 empty 0 -9 0 10 -262144
-1 -1 0 1;
#X obj 460 69 knob 20 20 0 127 0 0 empty k5 empty 0 -8 0 8 -262144
-1 -1 598 1;
#X obj 450 100 tgl 15 0 empty s5 S 5 9 0 10 -262144 -1 -1 0 127;
#X obj 450 125 tgl 15 0 empty m5 M 5 9 0 10 -262144 -1 -1 0 127;
#X obj 450 150 tgl 15 0 empty r5 R 5 9 0 10 -262144 -1 -1 0 1;
#X obj 494 46 cnv 15 40 130 empty empty empty 20 12 0 14 -233017 -66577
0;
#X obj 521 102 vsl 8 64 0 127 0 0 empty f6 empty 0 -9 0 10 -262144
-1 -1 0 1;
#X obj 509 70 knob 20 20 0 127 0 0 empty k6 empty 0 -8 0 8 -262144
-1 -1 1302 1;
#X obj 499 101 tgl 15 0 empty s6 S 5 9 0 10 -262144 -1 -1 0 127;
#X obj 499 126 tgl 15 0 empty m6 M 5 9 0 10 -262144 -1 -1 0 127;
#X obj 499 151 tgl 15 0 empty r6 R 5 9 0 10 -262144 -1 -1 0 1;
#X obj 542 46 cnv 15 40 130 empty empty empty 20 12 0 14 -233017 -66577
0;
#X obj 569 102 vsl 8 64 0 127 0 0 empty f7 empty 0 -9 0 10 -262144
-1 -1 198 1;
#X obj 557 70 knob 20 20 0 127 0 0 empty k7 empty 0 -8 0 8 -262144
-1 -1 449 1;
#X obj 547 101 tgl 15 0 empty s7 S 5 9 0 10 -262144 -1 -1 0 127;
#X obj 547 126 tgl 15 0 empty m7 M 5 9 0 10 -262144 -1 -1 0 127;
#X obj 547 151 tgl 15 0 empty r7 R 5 9 0 10 -262144 -1 -1 0 127;
#X text 220 48 0;
#X text 269 48 1;
#X text 320 48 2;
#X text 365 48 3;
#X text 416 48 4;
#X text 462 48 5;
#X text 511 48 6;
#X text 559 48 7;
#X obj 19 26 import mrpeach;
#X text 18 4 ライブラリのインポート;
#X msg 40 132 disconnect;
#X obj 19 253 sendOSC;
#X obj 19 82 loadbang;
#X msg 19 107 connect localhost 12345;
#X obj 73 252 print;
#X text 59 159 midi -> prog;
#N canvas 19 22 1175 652 fromdevice 0;
#X obj 19 53 mididev 16;
#X obj 84 53 mididev 17;
#X obj 149 53 mididev 18;
#X obj 214 53 mididev 19;
#X obj 281 53 mididev 20;
#X obj 346 53 mididev 21;
#X obj 411 53 mididev 22;
#X obj 476 53 mididev 23;
#X obj 573 52 mididev 0;
#X obj 638 53 mididev 1;
#X obj 703 53 mididev 2;
#X obj 768 53 mididev 3;
#X obj 835 53 mididev 4;
#X obj 900 53 mididev 5;
#X obj 965 53 mididev 6;
#X obj 1031 52 mididev 7;
#X obj 573 77 s f0;
#X obj 638 78 s f1;
#X obj 703 78 s f2;
#X obj 768 78 s f3;
#X obj 835 78 s f4;
#X obj 900 78 s f5;
#X obj 965 78 s f6;
#X obj 1031 77 s f7;
#X obj 19 78 s k0;
#X obj 84 78 s k1;
#X obj 149 78 s k2;
#X obj 214 78 s k3;
#X obj 281 78 s k4;
#X obj 346 78 s k5;
#X obj 411 78 s k6;
#X obj 476 78 s k7;
#X obj 224 222 s s0;
#X obj 290 222 s s1;
#X obj 354 222 s s2;
#X obj 420 222 s s3;
#X obj 486 222 s s4;
#X obj 552 222 s s5;
#X obj 616 222 s s6;
#X obj 681 222 s s7;
#X obj 528 343 s m0;
#X obj 594 343 s m1;
#X obj 658 343 s m2;
#X obj 724 343 s m3;
#X obj 790 343 s m4;
#X obj 856 343 s m5;
#X obj 920 343 s m6;
#X obj 985 343 s m7;
#X obj 528 469 s r0;
#X obj 594 469 s r1;
#X obj 658 469 s r2;
#X obj 724 469 s r3;
#X obj 790 469 s r4;
#X obj 856 469 s r5;
#X obj 920 469 s r6;
#X obj 985 469 s r7;
#X obj 224 197 mididev 32;
#X obj 290 197 mididev 33;
#X obj 354 197 mididev 34;
#X obj 420 197 mididev 35;
#X obj 486 197 mididev 36;
#X obj 552 197 mididev 37;
#X obj 616 197 mididev 38;
#X obj 681 197 mididev 39;
#X obj 528 319 mididev 48;
#X obj 594 319 mididev 49;
#X obj 658 319 mididev 50;
#X obj 724 319 mididev 51;
#X obj 790 319 mididev 52;
#X obj 856 319 mididev 53;
#X obj 920 319 mididev 54;
#X obj 985 319 mididev 55;
#X obj 528 445 mididev 64;
#X obj 594 445 mididev 65;
#X obj 658 445 mididev 66;
#X obj 724 445 mididev 67;
#X obj 790 445 mididev 68;
#X obj 856 445 mididev 69;
#X obj 920 445 mididev 70;
#X obj 985 445 mididev 71;
#X msg 131 142 send /knob \$1 \$2;
#N canvas 381 237 745 218 trackselector 0;
#X floatatom -91 101 5 0 0 0 - - -;
#X obj -136 73 t b f;
#X obj -136 124 pack 0 f;
#X floatatom -7 101 5 0 0 0 - - -;
#X obj -52 73 t b f;
#X floatatom 77 101 5 0 0 0 - - -;
#X obj 32 73 t b f;
#X floatatom 159 101 5 0 0 0 - - -;
#X obj 114 73 t b f;
#X floatatom 243 101 5 0 0 0 - - -;
#X obj 198 73 t b f;
#X floatatom 327 101 5 0 0 0 - - -;
#X obj 282 73 t b f;
#X floatatom 413 101 5 0 0 0 - - -;
#X obj 368 73 t b f;
#X floatatom 497 101 5 0 0 0 - - -;
#X obj 452 73 t b f;
#X obj -52 124 pack 1 f;
#X obj 32 124 pack 2 f;
#X obj 114 124 pack 3 f;
#X obj 198 124 pack 4 f;
#X obj 282 124 pack 5 f;
#X obj 368 124 pack 6 f;
#X obj 452 124 pack 7 f;
#X obj -136 41 inlet;
#X obj -52 41 inlet;
#X obj 32 41 inlet;
#X obj 114 41 inlet;
#X obj 198 41 inlet;
#X obj 282 41 inlet;
#X obj 368 41 inlet;
#X obj 452 41 inlet;
#X obj 114 175 outlet;
#X connect 0 0 2 1;
#X connect 1 0 2 0;
#X connect 1 1 0 0;
#X connect 2 0 32 0;
#X connect 3 0 17 1;
#X connect 4 0 17 0;
#X connect 4 1 3 0;
#X connect 5 0 18 1;
#X connect 6 0 18 0;
#X connect 6 1 5 0;
#X connect 7 0 19 1;
#X connect 8 0 19 0;
#X connect 8 1 7 0;
#X connect 9 0 20 1;
#X connect 10 0 20 0;
#X connect 10 1 9 0;
#X connect 11 0 21 1;
#X connect 12 0 21 0;
#X connect 12 1 11 0;
#X connect 13 0 22 1;
#X connect 14 0 22 0;
#X connect 14 1 13 0;
#X connect 15 0 23 1;
#X connect 16 0 23 0;
#X connect 16 1 15 0;
#X connect 17 0 32 0;
#X connect 18 0 32 0;
#X connect 19 0 32 0;
#X connect 20 0 32 0;
#X connect 21 0 32 0;
#X connect 22 0 32 0;
#X connect 23 0 32 0;
#X connect 24 0 1 0;
#X connect 25 0 4 0;
#X connect 26 0 6 0;
#X connect 27 0 8 0;
#X connect 28 0 10 0;
#X connect 29 0 12 0;
#X connect 30 0 14 0;
#X connect 31 0 16 0;
#X restore 131 116 pd trackselector;
#N canvas 381 237 745 218 trackselector 0;
#X floatatom -91 101 5 0 0 0 - - -;
#X obj -136 73 t b f;
#X obj -136 124 pack 0 f;
#X floatatom -7 101 5 0 0 0 - - -;
#X obj -52 73 t b f;
#X floatatom 77 101 5 0 0 0 - - -;
#X obj 32 73 t b f;
#X floatatom 159 101 5 0 0 0 - - -;
#X obj 114 73 t b f;
#X floatatom 243 101 5 0 0 0 - - -;
#X obj 198 73 t b f;
#X floatatom 327 101 5 0 0 0 - - -;
#X obj 282 73 t b f;
#X floatatom 413 101 5 0 0 0 - - -;
#X obj 368 73 t b f;
#X floatatom 497 101 5 0 0 0 - - -;
#X obj 452 73 t b f;
#X obj -52 124 pack 1 f;
#X obj 32 124 pack 2 f;
#X obj 114 124 pack 3 f;
#X obj 198 124 pack 4 f;
#X obj 282 124 pack 5 f;
#X obj 368 124 pack 6 f;
#X obj 452 124 pack 7 f;
#X obj -136 41 inlet;
#X obj -52 41 inlet;
#X obj 32 41 inlet;
#X obj 114 41 inlet;
#X obj 198 41 inlet;
#X obj 282 41 inlet;
#X obj 368 41 inlet;
#X obj 452 41 inlet;
#X obj 114 175 outlet;
#X connect 0 0 2 1;
#X connect 1 0 2 0;
#X connect 1 1 0 0;
#X connect 2 0 32 0;
#X connect 3 0 17 1;
#X connect 4 0 17 0;
#X connect 4 1 3 0;
#X connect 5 0 18 1;
#X connect 6 0 18 0;
#X connect 6 1 5 0;
#X connect 7 0 19 1;
#X connect 8 0 19 0;
#X connect 8 1 7 0;
#X connect 9 0 20 1;
#X connect 10 0 20 0;
#X connect 10 1 9 0;
#X connect 11 0 21 1;
#X connect 12 0 21 0;
#X connect 12 1 11 0;
#X connect 13 0 22 1;
#X connect 14 0 22 0;
#X connect 14 1 13 0;
#X connect 15 0 23 1;
#X connect 16 0 23 0;
#X connect 16 1 15 0;
#X connect 17 0 32 0;
#X connect 18 0 32 0;
#X connect 19 0 32 0;
#X connect 20 0 32 0;
#X connect 21 0 32 0;
#X connect 22 0 32 0;
#X connect 23 0 32 0;
#X connect 24 0 1 0;
#X connect 25 0 4 0;
#X connect 26 0 6 0;
#X connect 27 0 8 0;
#X connect 28 0 10 0;
#X connect 29 0 12 0;
#X connect 30 0 14 0;
#X connect 31 0 16 0;
#X restore 695 125 pd trackselector;
#X msg 695 151 send /fader \$1 \$2;
#N canvas 381 237 745 218 trackselector 0;
#X floatatom -91 101 5 0 0 0 - - -;
#X obj -136 73 t b f;
#X obj -136 124 pack 0 f;
#X floatatom -7 101 5 0 0 0 - - -;
#X obj -52 73 t b f;
#X floatatom 77 101 5 0 0 0 - - -;
#X obj 32 73 t b f;
#X floatatom 159 101 5 0 0 0 - - -;
#X obj 114 73 t b f;
#X floatatom 243 101 5 0 0 0 - - -;
#X obj 198 73 t b f;
#X floatatom 327 101 5 0 0 0 - - -;
#X obj 282 73 t b f;
#X floatatom 413 101 5 0 0 0 - - -;
#X obj 368 73 t b f;
#X floatatom 497 101 5 0 0 0 - - -;
#X obj 452 73 t b f;
#X obj -52 124 pack 1 f;
#X obj 32 124 pack 2 f;
#X obj 114 124 pack 3 f;
#X obj 198 124 pack 4 f;
#X obj 282 124 pack 5 f;
#X obj 368 124 pack 6 f;
#X obj 452 124 pack 7 f;
#X obj -136 41 inlet;
#X obj -52 41 inlet;
#X obj 32 41 inlet;
#X obj 114 41 inlet;
#X obj 198 41 inlet;
#X obj 282 41 inlet;
#X obj 368 41 inlet;
#X obj 452 41 inlet;
#X obj 114 175 outlet;
#X connect 0 0 2 1;
#X connect 1 0 2 0;
#X connect 1 1 0 0;
#X connect 2 0 32 0;
#X connect 3 0 17 1;
#X connect 4 0 17 0;
#X connect 4 1 3 0;
#X connect 5 0 18 1;
#X connect 6 0 18 0;
#X connect 6 1 5 0;
#X connect 7 0 19 1;
#X connect 8 0 19 0;
#X connect 8 1 7 0;
#X connect 9 0 20 1;
#X connect 10 0 20 0;
#X connect 10 1 9 0;
#X connect 11 0 21 1;
#X connect 12 0 21 0;
#X connect 12 1 11 0;
#X connect 13 0 22 1;
#X connect 14 0 22 0;
#X connect 14 1 13 0;
#X connect 15 0 23 1;
#X connect 16 0 23 0;
#X connect 16 1 15 0;
#X connect 17 0 32 0;
#X connect 18 0 32 0;
#X connect 19 0 32 0;
#X connect 20 0 32 0;
#X connect 21 0 32 0;
#X connect 22 0 32 0;
#X connect 23 0 32 0;
#X connect 24 0 1 0;
#X connect 25 0 4 0;
#X connect 26 0 6 0;
#X connect 27 0 8 0;
#X connect 28 0 10 0;
#X connect 29 0 12 0;
#X connect 30 0 14 0;
#X connect 31 0 16 0;
#X restore 346 276 pd trackselector;
#X msg 346 302 send /solo \$1 \$2;
#N canvas 381 237 745 218 trackselector 0;
#X floatatom -91 101 5 0 0 0 - - -;
#X obj -136 73 t b f;
#X obj -136 124 pack 0 f;
#X floatatom -7 101 5 0 0 0 - - -;
#X obj -52 73 t b f;
#X floatatom 77 101 5 0 0 0 - - -;
#X obj 32 73 t b f;
#X floatatom 159 101 5 0 0 0 - - -;
#X obj 114 73 t b f;
#X floatatom 243 101 5 0 0 0 - - -;
#X obj 198 73 t b f;
#X floatatom 327 101 5 0 0 0 - - -;
#X obj 282 73 t b f;
#X floatatom 413 101 5 0 0 0 - - -;
#X obj 368 73 t b f;
#X floatatom 497 101 5 0 0 0 - - -;
#X obj 452 73 t b f;
#X obj -52 124 pack 1 f;
#X obj 32 124 pack 2 f;
#X obj 114 124 pack 3 f;
#X obj 198 124 pack 4 f;
#X obj 282 124 pack 5 f;
#X obj 368 124 pack 6 f;
#X obj 452 124 pack 7 f;
#X obj -136 41 inlet;
#X obj -52 41 inlet;
#X obj 32 41 inlet;
#X obj 114 41 inlet;
#X obj 198 41 inlet;
#X obj 282 41 inlet;
#X obj 368 41 inlet;
#X obj 452 41 inlet;
#X obj 114 175 outlet;
#X connect 0 0 2 1;
#X connect 1 0 2 0;
#X connect 1 1 0 0;
#X connect 2 0 32 0;
#X connect 3 0 17 1;
#X connect 4 0 17 0;
#X connect 4 1 3 0;
#X connect 5 0 18 1;
#X connect 6 0 18 0;
#X connect 6 1 5 0;
#X connect 7 0 19 1;
#X connect 8 0 19 0;
#X connect 8 1 7 0;
#X connect 9 0 20 1;
#X connect 10 0 20 0;
#X connect 10 1 9 0;
#X connect 11 0 21 1;
#X connect 12 0 21 0;
#X connect 12 1 11 0;
#X connect 13 0 22 1;
#X connect 14 0 22 0;
#X connect 14 1 13 0;
#X connect 15 0 23 1;
#X connect 16 0 23 0;
#X connect 16 1 15 0;
#X connect 17 0 32 0;
#X connect 18 0 32 0;
#X connect 19 0 32 0;
#X connect 20 0 32 0;
#X connect 21 0 32 0;
#X connect 22 0 32 0;
#X connect 23 0 32 0;
#X connect 24 0 1 0;
#X connect 25 0 4 0;
#X connect 26 0 6 0;
#X connect 27 0 8 0;
#X connect 28 0 10 0;
#X connect 29 0 12 0;
#X connect 30 0 14 0;
#X connect 31 0 16 0;
#X restore 728 379 pd trackselector;
#X msg 728 405 send /mute \$1 \$2;
#N canvas 381 237 745 218 trackselector 0;
#X floatatom -91 101 5 0 0 0 - - -;
#X obj -136 73 t b f;
#X obj -136 124 pack 0 f;
#X floatatom -7 101 5 0 0 0 - - -;
#X obj -52 73 t b f;
#X floatatom 77 101 5 0 0 0 - - -;
#X obj 32 73 t b f;
#X floatatom 159 101 5 0 0 0 - - -;
#X obj 114 73 t b f;
#X floatatom 243 101 5 0 0 0 - - -;
#X obj 198 73 t b f;
#X floatatom 327 101 5 0 0 0 - - -;
#X obj 282 73 t b f;
#X floatatom 413 101 5 0 0 0 - - -;
#X obj 368 73 t b f;
#X floatatom 497 101 5 0 0 0 - - -;
#X obj 452 73 t b f;
#X obj -52 124 pack 1 f;
#X obj 32 124 pack 2 f;
#X obj 114 124 pack 3 f;
#X obj 198 124 pack 4 f;
#X obj 282 124 pack 5 f;
#X obj 368 124 pack 6 f;
#X obj 452 124 pack 7 f;
#X obj -136 41 inlet;
#X obj -52 41 inlet;
#X obj 32 41 inlet;
#X obj 114 41 inlet;
#X obj 198 41 inlet;
#X obj 282 41 inlet;
#X obj 368 41 inlet;
#X obj 452 41 inlet;
#X obj 114 175 outlet;
#X connect 0 0 2 1;
#X connect 1 0 2 0;
#X connect 1 1 0 0;
#X connect 2 0 32 0;
#X connect 3 0 17 1;
#X connect 4 0 17 0;
#X connect 4 1 3 0;
#X connect 5 0 18 1;
#X connect 6 0 18 0;
#X connect 6 1 5 0;
#X connect 7 0 19 1;
#X connect 8 0 19 0;
#X connect 8 1 7 0;
#X connect 9 0 20 1;
#X connect 10 0 20 0;
#X connect 10 1 9 0;
#X connect 11 0 21 1;
#X connect 12 0 21 0;
#X connect 12 1 11 0;
#X connect 13 0 22 1;
#X connect 14 0 22 0;
#X connect 14 1 13 0;
#X connect 15 0 23 1;
#X connect 16 0 23 0;
#X connect 16 1 15 0;
#X connect 17 0 32 0;
#X connect 18 0 32 0;
#X connect 19 0 32 0;
#X connect 20 0 32 0;
#X connect 21 0 32 0;
#X connect 22 0 32 0;
#X connect 23 0 32 0;
#X connect 24 0 1 0;
#X connect 25 0 4 0;
#X connect 26 0 6 0;
#X connect 27 0 8 0;
#X connect 28 0 10 0;
#X connect 29 0 12 0;
#X connect 30 0 14 0;
#X connect 31 0 16 0;
#X restore 634 515 pd trackselector;
#X msg 634 541 send /rec \$1 \$2;
#X obj 498 614 outlet;
#X text 19 32 knob;
#X text 573 30 fader;
#X text 222 178 solo;
#X text 528 301 mute;
#X text 527 425 rec;
#X text 32 404 button;
#X obj 32 425 mididev 43;
#X obj 97 425 mididev 44;
#X obj 162 425 mididev 42;
#X obj 227 425 mididev 41;
#X obj 294 425 mididev 45;
#X obj 32 450 s b0;
#X obj 97 450 s b1;
#X obj 162 450 s b2;
#X obj 227 450 s b3;
#X obj 294 450 s b4;
#N canvas 381 237 745 218 trackselector 0;
#X floatatom -91 101 5 0 0 0 - - -;
#X obj -136 73 t b f;
#X obj -136 124 pack 0 f;
#X floatatom -7 101 5 0 0 0 - - -;
#X obj -52 73 t b f;
#X floatatom 77 101 5 0 0 0 - - -;
#X obj 32 73 t b f;
#X floatatom 159 101 5 0 0 0 - - -;
#X obj 114 73 t b f;
#X floatatom 243 101 5 0 0 0 - - -;
#X obj 198 73 t b f;
#X floatatom 327 101 5 0 0 0 - - -;
#X obj 282 73 t b f;
#X floatatom 413 101 5 0 0 0 - - -;
#X obj 368 73 t b f;
#X floatatom 497 101 5 0 0 0 - - -;
#X obj 452 73 t b f;
#X obj -52 124 pack 1 f;
#X obj 32 124 pack 2 f;
#X obj 114 124 pack 3 f;
#X obj 198 124 pack 4 f;
#X obj 282 124 pack 5 f;
#X obj 368 124 pack 6 f;
#X obj 452 124 pack 7 f;
#X obj -136 41 inlet;
#X obj -52 41 inlet;
#X obj 32 41 inlet;
#X obj 114 41 inlet;
#X obj 198 41 inlet;
#X obj 282 41 inlet;
#X obj 368 41 inlet;
#X obj 452 41 inlet;
#X obj 114 175 outlet;
#X connect 0 0 2 1;
#X connect 1 0 2 0;
#X connect 1 1 0 0;
#X connect 2 0 32 0;
#X connect 3 0 17 1;
#X connect 4 0 17 0;
#X connect 4 1 3 0;
#X connect 5 0 18 1;
#X connect 6 0 18 0;
#X connect 6 1 5 0;
#X connect 7 0 19 1;
#X connect 8 0 19 0;
#X connect 8 1 7 0;
#X connect 9 0 20 1;
#X connect 10 0 20 0;
#X connect 10 1 9 0;
#X connect 11 0 21 1;
#X connect 12 0 21 0;
#X connect 12 1 11 0;
#X connect 13 0 22 1;
#X connect 14 0 22 0;
#X connect 14 1 13 0;
#X connect 15 0 23 1;
#X connect 16 0 23 0;
#X connect 16 1 15 0;
#X connect 17 0 32 0;
#X connect 18 0 32 0;
#X connect 19 0 32 0;
#X connect 20 0 32 0;
#X connect 21 0 32 0;
#X connect 22 0 32 0;
#X connect 23 0 32 0;
#X connect 24 0 1 0;
#X connect 25 0 4 0;
#X connect 26 0 6 0;
#X connect 27 0 8 0;
#X connect 28 0 10 0;
#X connect 29 0 12 0;
#X connect 30 0 14 0;
#X connect 31 0 16 0;
#X restore 70 490 pd trackselector;
#X msg 70 516 send /button \$1 \$2;
#X connect 0 0 24 0;
#X connect 0 0 81 0;
#X connect 1 0 25 0;
#X connect 1 0 81 1;
#X connect 2 0 26 0;
#X connect 2 0 81 2;
#X connect 3 0 27 0;
#X connect 3 0 81 3;
#X connect 4 0 28 0;
#X connect 4 0 81 4;
#X connect 5 0 29 0;
#X connect 5 0 81 5;
#X connect 6 0 30 0;
#X connect 6 0 81 6;
#X connect 7 0 31 0;
#X connect 7 0 81 7;
#X connect 8 0 16 0;
#X connect 8 0 82 0;
#X connect 9 0 17 0;
#X connect 9 0 82 1;
#X connect 10 0 18 0;
#X connect 10 0 82 2;
#X connect 11 0 19 0;
#X connect 11 0 82 3;
#X connect 12 0 20 0;
#X connect 12 0 82 4;
#X connect 13 0 21 0;
#X connect 13 0 82 5;
#X connect 14 0 22 0;
#X connect 14 0 82 6;
#X connect 15 0 23 0;
#X connect 15 0 82 7;
#X connect 56 0 32 0;
#X connect 56 0 84 0;
#X connect 57 0 33 0;
#X connect 57 0 84 1;
#X connect 58 0 34 0;
#X connect 58 0 84 2;
#X connect 59 0 35 0;
#X connect 59 0 84 3;
#X connect 60 0 36 0;
#X connect 60 0 84 4;
#X connect 61 0 37 0;
#X connect 61 0 84 5;
#X connect 62 0 38 0;
#X connect 62 0 84 6;
#X connect 63 0 39 0;
#X connect 63 0 84 7;
#X connect 64 0 40 0;
#X connect 64 0 86 0;
#X connect 65 0 41 0;
#X connect 65 0 86 1;
#X connect 66 0 42 0;
#X connect 66 0 86 2;
#X connect 67 0 43 0;
#X connect 67 0 86 3;
#X connect 68 0 44 0;
#X connect 68 0 86 4;
#X connect 69 0 45 0;
#X connect 69 0 86 5;
#X connect 70 0 46 0;
#X connect 70 0 86 6;
#X connect 71 0 47 0;
#X connect 71 0 86 7;
#X connect 72 0 48 0;
#X connect 72 0 88 0;
#X connect 73 0 49 0;
#X connect 73 0 88 1;
#X connect 74 0 50 0;
#X connect 74 0 88 2;
#X connect 75 0 51 0;
#X connect 75 0 88 3;
#X connect 76 0 52 0;
#X connect 76 0 88 4;
#X connect 77 0 53 0;
#X connect 77 0 88 5;
#X connect 78 0 54 0;
#X connect 78 0 88 6;
#X connect 79 0 55 0;
#X connect 79 0 88 7;
#X connect 80 0 90 0;
#X connect 81 0 80 0;
#X connect 82 0 83 0;
#X connect 83 0 90 0;
#X connect 84 0 85 0;
#X connect 85 0 90 0;
#X connect 86 0 87 0;
#X connect 87 0 90 0;
#X connect 88 0 89 0;
#X connect 89 0 90 0;
#X connect 97 0 102 0;
#X connect 97 0 107 0;
#X connect 98 0 103 0;
#X connect 98 0 107 1;
#X connect 99 0 104 0;
#X connect 99 0 107 2;
#X connect 100 0 105 0;
#X connect 100 0 107 3;
#X connect 101 0 106 0;
#X connect 101 0 107 4;
#X connect 107 0 108 0;
#X connect 108 0 90 0;
#X restore 59 178 pd fromdevice;
#X obj 73 230 spigot;
#X obj 106 208 tgl 15 0 empty empty debug 17 7 0 10 -262144 -1 -1 0
1;
#X text 112 24 OSC;
#X text 112 51 GUI;
#X text 202 19 KORG nanoKONTROL2;
#X obj 205 184 tgl 15 0 empty b0 0 5 9 0 10 -262144 -1 -1 0 127;
#X obj 224 184 tgl 15 0 empty b1 1 5 9 0 10 -262144 -1 -1 0 127;
#X obj 245 184 tgl 15 0 empty b2 2 5 9 0 10 -262144 -1 -1 0 127;
#X obj 264 184 tgl 15 0 empty b3 3 5 9 0 10 -262144 -1 -1 0 127;
#X obj 285 184 tgl 15 0 empty b4 4 5 9 0 10 -262144 -1 -1 0 127;
#X connect 59 0 60 0;
#X connect 61 0 62 0;
#X connect 62 0 60 0;
#X connect 65 0 60 0;
#X connect 65 0 66 0;
#X connect 66 0 63 0;
#X connect 67 0 66 1;
