#N canvas 315 32 704 625 10;
#X declare -lib flatgui;
#X declare -lib flatgui;
#X declare -lib flatgui;
#X declare -lib flatgui;
#X declare -lib flatgui;
#X declare -lib flatgui;
#X declare -lib flatgui;
#X declare -lib flatgui;
#X declare -lib flatgui;
#N canvas 337 70 720 583 BPM 0;
#X obj 149 106 tgl 15 0 empty empty ON 3 8 0 10 -204800 -1 -1 0 1;
#X obj 51 262 metro 90;
#X obj 51 358 pack f 0 1;
#X obj 51 404 s toMonome;
#N canvas 577 184 432 461 radiobuttonmode_h 0;
#X floatatom 49 251 5 0 0 0 - - -;
#X obj 136 179 hradio 15 1 0 16 empty empty empty 0 -8 0 10 -262144
-1 -1 0;
#X obj 49 202 until;
#X msg 87 179 clear;
#X msg 49 179 8;
#X obj 68 152 t b b f;
#X text 134 360 押下したボタンはon それ以外はoff;
#X text -16 250 0~7でループ;
#X obj 68 52 inlet;
#X obj 23 433 outlet;
#X text 20 27 radio button モード;
#X text 110 52 0 0 0;
#X text 71 432 0 0 0;
#X obj 92 314 ==;
#X text 66 103 row;
#X obj 23 406 pack f f f;
#X obj 68 122 unpack f f;
#X obj 49 274 t f f;
#X obj 49 227 counter 0 7;
#X connect 0 0 17 0;
#X connect 2 0 18 0;
#X connect 3 0 18 0;
#X connect 4 0 2 0;
#X connect 5 0 4 0;
#X connect 5 1 3 0;
#X connect 5 2 1 0;
#X connect 5 2 13 1;
#X connect 8 0 16 0;
#X connect 13 0 15 2;
#X connect 15 0 9 0;
#X connect 16 0 5 0;
#X connect 16 1 15 1;
#X connect 17 0 15 0;
#X connect 17 1 13 0;
#X connect 18 0 0 0;
#X restore 51 380 pd radiobuttonmode_h;
#X obj -39 404 s MasterClock;
#X floatatom 152 191 5 0 0 0 - - -;
#X floatatom 149 138 4 0 200 2 BPM - -;
#X obj 152 167 expr 60000/$f1/4;
#X obj 108 168 / 127;
#X obj 108 192 * 250;
#X obj 108 52 loadbang;
#X msg 108 73 61;
#X obj 108 124 knob 28 28 0 127 0 0 empty empty empty 0 -8 0 8 -262144
-1 -1 1297 1;
#X obj 108 214 i;
#X obj 51 311 / 2;
#X obj 51 334 div 1;
#X text 98 318 monome用にキャスト;
#X obj 24 183 sel 0;
#X msg 24 208 clear;
#X obj 171 52 nano2 46;
#X obj 171 78 sel 127;
#X msg 313 285 disconnect;
#X obj 292 412 sendOSC;
#X msg 292 260 connect localhost 7702;
#X obj 292 235 loadbang;
#X msg 187 381 send /nseqo/ \$1;
#X obj 51 285 counter 0 31;
#X connect 0 0 1 0;
#X connect 0 0 18 0;
#X connect 0 0 26 0;
#X connect 1 0 27 0;
#X connect 2 0 4 0;
#X connect 4 0 3 0;
#X connect 6 0 1 1;
#X connect 7 0 8 0;
#X connect 8 0 6 0;
#X connect 9 0 10 0;
#X connect 10 0 14 0;
#X connect 11 0 12 0;
#X connect 12 0 13 0;
#X connect 13 0 9 0;
#X connect 14 0 7 0;
#X connect 15 0 16 0;
#X connect 16 0 2 0;
#X connect 18 0 19 0;
#X connect 19 0 27 0;
#X connect 20 0 21 0;
#X connect 21 0 0 0;
#X connect 22 0 23 0;
#X connect 24 0 23 0;
#X connect 25 0 24 0;
#X connect 26 0 23 0;
#X connect 27 0 5 0;
#X connect 27 0 15 0;
#X coords 0 -1 1 1 80 60 2 100 100;
#X restore 7 288 pd BPM;
#N canvas 503 267 590 427 filter 0;
#X obj 116 184 / 127;
#X floatatom 116 230 5 0 0 0 - - -;
#X obj 46 258 inlet~;
#X obj 100 334 outlet~;
#X obj 116 257 line~ 200;
#X obj 100 307 lores~;
#X obj 172 184 / 127;
#X floatatom 172 230 5 0 0 0 - - -;
#X obj 94 87 line;
#X obj 149 87 line;
#X obj 94 62 pack f f;
#X obj 149 62 pack f f;
#X obj 94 39 unpack 0 0 0;
#X obj -12 258 inlet~;
#X obj 42 334 outlet~;
#X obj 42 307 lores~;
#X obj 107 138 knob 20 20 0 127 0 0 empty empty CUTOFF -5 -8 0 10 -262144
-1 -1 404 1;
#X obj 146 138 knob 20 20 0 127 0 0 empty empty RESONANCE 0 -8 0 10
-262144 -1 -1 658 1;
#X obj 116 207 * 7000;
#X obj 94 14 r filter;
#X obj 250 141 f;
#X obj 250 121 bng 15 250 50 0 empty empty empty 17 7 0 10 -262144
-1 -1;
#X obj 250 98 r store;
#X obj 301 121 bng 15 250 50 0 empty empty empty 17 7 0 10 -262144
-1 -1;
#X obj 301 98 r restore;
#X msg 250 215;
#X obj 250 164 pack 0 0 0;
#X msg 250 191 set \, add \, add filter \$1 \$2 \$3;
#X floatatom 10 51 5 0 0 0 - - -;
#X obj 10 26 nano2 16;
#X floatatom 21 108 5 0 0 0 - - -;
#X obj 21 83 nano2 17;
#X connect 0 0 18 0;
#X connect 1 0 4 0;
#X connect 2 0 5 0;
#X connect 4 0 5 1;
#X connect 4 0 15 1;
#X connect 5 0 3 0;
#X connect 6 0 7 0;
#X connect 7 0 5 2;
#X connect 7 0 15 2;
#X connect 8 0 16 0;
#X connect 9 0 17 0;
#X connect 10 0 8 0;
#X connect 11 0 9 0;
#X connect 12 0 10 0;
#X connect 12 1 11 0;
#X connect 12 2 10 1;
#X connect 12 2 11 1;
#X connect 13 0 15 0;
#X connect 15 0 14 0;
#X connect 16 0 0 0;
#X connect 16 0 20 1;
#X connect 17 0 6 0;
#X connect 17 0 26 1;
#X connect 18 0 1 0;
#X connect 19 0 12 0;
#X connect 20 0 26 0;
#X connect 21 0 20 0;
#X connect 22 0 21 0;
#X connect 23 0 25 0;
#X connect 24 0 23 0;
#X connect 26 0 27 0;
#X connect 27 0 25 0;
#X connect 28 0 16 0;
#X connect 29 0 28 0;
#X connect 30 0 17 0;
#X connect 31 0 30 0;
#X coords 0 -1 1 1 130 65 1 100 100;
#X restore 520 419 pd filter;
#N canvas 243 22 842 510 out 0;
#N canvas 284 22 731 631 limiter 0;
#X obj 165 212 average~ 44100;
#X obj 337 211 average~ 44100;
#X obj 168 272 clip~ 0.005 1;
#X obj 333 273 clip~ 0.005 1;
#X obj 116 126 inlet~;
#X obj 325 125 inlet~;
#X obj 420 342 line;
#X msg 423 314 \$1 20;
#X obj 432 243 / 100;
#X obj 120 521 outlet~;
#X obj 376 531 outlet~;
#X obj 156 427 *~;
#X obj 312 433 *~;
#X obj 248 180 * 44.1;
#X obj 324 397 expr~ $f2/$v1;
#X obj 164 392 expr~ $f2/$v1;
#X obj 217 90 / 127;
#X obj 223 124 * 16;
#X obj 463 276 / 127;
#X obj 433 203 * 20;
#X obj 336 234 sig~;
#X msg 255 149 rms;
#X obj 289 34 loadbang;
#X obj 164 241 sig~;
#X obj 266 404 z~;
#X msg 407 458 \$1 30;
#X obj 404 486 line~;
#X obj 343 471 *~;
#X msg 496 242 6;
#X obj 467 432 + 2;
#X obj 468 406 * 4;
#X obj 446 156 dbtorms;
#X obj 446 128 + 70;
#X obj 446 101 / 2.2;
#X obj 446 181 / 24;
#X msg 235 64 26;
#X obj 102 380 z~;
#X obj 148 482 *~;
#X obj 448 33 - 1;
#X obj 448 56 * -1;
#X obj 441 11 / 127;
#X obj 444 78 * 127;
#X obj 497 5 clip 0 1;
#X obj 561 114 switch~;
#X obj 334 331 lop~ 20;
#X obj 168 349 lop~ 20;
#X obj 500 39 sel 0;
#X obj 495 76 del 300;
#X msg 505 98 0;
#X msg 546 51 stop;
#X obj 325 156 hip~ 20;
#X obj 118 163 hip~ 20;
#X obj 449 -30 inlet;
#X connect 0 0 23 0;
#X connect 1 0 20 0;
#X connect 2 0 45 0;
#X connect 3 0 44 0;
#X connect 4 0 51 0;
#X connect 5 0 50 0;
#X connect 6 0 14 1;
#X connect 6 0 15 1;
#X connect 7 0 6 0;
#X connect 8 0 3 1;
#X connect 8 0 2 1;
#X connect 11 0 37 0;
#X connect 12 0 27 0;
#X connect 13 0 0 0;
#X connect 13 0 1 0;
#X connect 13 0 24 1;
#X connect 13 0 36 1;
#X connect 14 0 12 1;
#X connect 15 0 11 1;
#X connect 16 0 17 0;
#X connect 17 0 13 0;
#X connect 18 0 7 0;
#X connect 19 0 8 0;
#X connect 20 0 3 0;
#X connect 21 0 1 0;
#X connect 21 0 0 0;
#X connect 22 0 21 0;
#X connect 22 0 28 0;
#X connect 22 0 35 0;
#X connect 23 0 2 0;
#X connect 24 0 12 0;
#X connect 25 0 26 0;
#X connect 26 0 27 1;
#X connect 26 0 37 1;
#X connect 27 0 10 0;
#X connect 28 0 18 0;
#X connect 29 0 25 0;
#X connect 30 0 29 0;
#X connect 31 0 34 0;
#X connect 32 0 31 0;
#X connect 33 0 32 0;
#X connect 34 0 19 0;
#X connect 34 0 30 0;
#X connect 35 0 16 0;
#X connect 36 0 11 0;
#X connect 37 0 9 0;
#X connect 38 0 39 0;
#X connect 39 0 41 0;
#X connect 40 0 38 0;
#X connect 41 0 33 0;
#X connect 42 0 46 0;
#X connect 44 0 14 0;
#X connect 45 0 15 0;
#X connect 46 0 47 0;
#X connect 46 1 43 0;
#X connect 46 1 49 0;
#X connect 47 0 48 0;
#X connect 48 0 43 0;
#X connect 49 0 47 0;
#X connect 50 0 24 0;
#X connect 50 0 1 0;
#X connect 51 0 36 0;
#X connect 51 0 0 0;
#X connect 52 0 40 0;
#X connect 52 0 42 0;
#X restore 192 390 pd limiter;
#X obj 92 308 line~;
#X obj 192 368 *~;
#X obj 192 463 dac~;
#X obj 254 367 *~;
#X obj 192 339 hip~ 3;
#X obj 254 339 hip~ 3;
#X obj 31 213 send pd;
#X msg 31 192 dsp 1;
#X obj 92 287 pack 0 50;
#X text 159 286 <-- make a ramp to avoid clicks or zipper noise;
#X msg 92 262 0;
#X obj 92 239 moses 0.011;
#X text 298 340 filter out DC;
#X obj 192 312 inlet~;
#X obj 254 312 inlet~;
#X obj 144 121 knob 18 18 0 127 0 0 empty empty LIMIT 0 -8 0 10 -262144
-1 -1 415 1;
#X obj 183 121 knob 18 18 0 127 0 0 empty empty MASTER 0 -8 0 10 -262144
-1 -1 361 1;
#X obj 51 165 / 127;
#X msg 74 429 start;
#X msg 118 428 stop;
#X obj 44 460 writesf~ 2;
#X obj 109 119 tgl 20 0 empty empty REC 2 11 1 8 -258113 -262144 -262144
0 1;
#X obj 45 330 sel 1;
#X obj 45 354 bng 15 250 50 0 empty empty empty 17 7 0 10 -262144 -1
-1;
#X obj 72 354 bng 15 250 50 0 empty empty empty 17 7 0 10 -262144 -1
-1;
#X obj 45 374 t b b;
#X msg 44 401 open rec.wav;
#X obj 134 6 r master;
#X obj 134 29 unpack 0 0 0;
#X obj 134 55 pack 0 0;
#X obj 194 55 pack 0 0;
#X obj 134 76 line;
#X obj 194 77 line;
#X obj 315 89 pack 0 0 0;
#X obj 315 66 f;
#X obj 315 46 bng 15 250 50 0 empty empty empty 17 7 0 10 -262144 -1
-1;
#X obj 315 23 r store;
#X msg 315 116 set \, add \, add master \$1 \$2 \$3;
#X obj 366 46 bng 15 250 50 0 empty empty empty 17 7 0 10 -262144 -1
-1;
#X obj 366 23 r restore;
#X msg 315 140;
#X obj 236 463 outlet~;
#X obj 284 463 outlet~;
#X msg 579 324 disconnect;
#X obj 558 451 sendOSC;
#X msg 558 299 connect localhost 7702;
#X obj 558 274 loadbang;
#X obj 453 331 env~;
#X floatatom 453 355 5 0 0 0 - - -;
#X msg 453 420 send /nseqv/ \$1;
#X obj 453 381 - 30;
#X obj 18 18 nano2 22;
#X floatatom 18 42 5 0 0 0 - - -;
#X floatatom 61 70 5 0 0 0 - - -;
#X obj 61 46 nano2 23;
#X connect 0 0 3 0;
#X connect 0 0 21 0;
#X connect 0 0 42 0;
#X connect 0 0 48 0;
#X connect 0 1 3 1;
#X connect 0 1 21 1;
#X connect 0 1 43 0;
#X connect 1 0 2 1;
#X connect 1 0 4 1;
#X connect 2 0 0 0;
#X connect 4 0 0 1;
#X connect 5 0 2 0;
#X connect 6 0 4 0;
#X connect 8 0 7 0;
#X connect 9 0 1 0;
#X connect 11 0 9 0;
#X connect 12 0 11 0;
#X connect 12 1 9 0;
#X connect 14 0 5 0;
#X connect 15 0 6 0;
#X connect 16 0 0 2;
#X connect 16 0 35 1;
#X connect 17 0 12 0;
#X connect 17 0 18 0;
#X connect 17 0 34 1;
#X connect 18 0 8 0;
#X connect 18 0 12 0;
#X connect 19 0 21 0;
#X connect 20 0 21 0;
#X connect 22 0 23 0;
#X connect 23 0 24 0;
#X connect 23 1 25 0;
#X connect 24 0 26 0;
#X connect 25 0 20 0;
#X connect 26 0 19 0;
#X connect 26 1 27 0;
#X connect 27 0 21 0;
#X connect 28 0 29 0;
#X connect 29 0 30 0;
#X connect 29 1 31 0;
#X connect 29 2 30 1;
#X connect 29 2 31 1;
#X connect 30 0 32 0;
#X connect 31 0 33 0;
#X connect 32 0 16 0;
#X connect 33 0 17 0;
#X connect 34 0 38 0;
#X connect 35 0 34 0;
#X connect 36 0 35 0;
#X connect 37 0 36 0;
#X connect 38 0 41 0;
#X connect 39 0 41 0;
#X connect 40 0 39 0;
#X connect 44 0 45 0;
#X connect 46 0 45 0;
#X connect 47 0 46 0;
#X connect 48 0 49 0;
#X connect 49 0 51 0;
#X connect 50 0 45 0;
#X connect 51 0 50 0;
#X connect 52 0 53 0;
#X connect 53 0 16 0;
#X connect 54 0 17 0;
#X connect 55 0 54 0;
#X coords 0 -1 1 1 130 45 1 100 100;
#X restore 520 488 pd out;
#X obj 86 422 tr 11;
#N canvas 459 178 677 339 nano 1;
#X obj 22 -7 nano2 0;
#X obj 84 -7 nano2 1;
#X obj 147 -7 nano2 2;
#X obj 209 -7 nano2 3;
#X obj 272 -7 nano2 4;
#X obj 334 -7 nano2 5;
#X obj 397 -7 nano2 6;
#X obj 459 -7 nano2 7;
#X text 22 -29 mixer;
#X obj 22 14 s track11;
#X obj 84 14 s track12;
#X obj 147 14 s track13;
#X obj 209 14 s track14;
#X obj 272 14 s track15;
#X obj 334 14 s track16;
#X obj 397 14 s track17;
#X obj 459 14 s track18;
#X connect 0 0 9 0;
#X connect 1 0 10 0;
#X connect 2 0 11 0;
#X connect 3 0 12 0;
#X connect 4 0 13 0;
#X connect 5 0 14 0;
#X connect 6 0 15 0;
#X connect 7 0 16 0;
#X restore 27 566 pd nano;
#X obj 152 43 nsequencer 0;
#X obj 132 289 sequencer 0;
#X obj 152 163 nsequencer 4;
#X obj 152 253 nsequencer 7;
#X obj 152 193 nsequencer 5;
#X obj 152 223 nsequencer 6;
#X obj 152 73 nsequencer 1;
#X obj 152 103 nsequencer 2;
#X obj 152 133 nsequencer 3;
#N canvas 186 140 514 314 input 0;
#X obj 108 148 hsl 64 8 0 127 0 0 empty empty noise -2 -8 0 10 -262144
-1 -1 0 1;
#X obj 105 166 / 127;
#X obj 42 72 nano2 18;
#X obj 63 210 *~ 0;
#X obj 105 188 / 4;
#X obj 63 166 pink~;
#X obj 43 45 import flatgui;
#X floatatom -27 175 5 0 0 0 - - -;
#X obj -27 153 / 127;
#X obj -27 199 expr 1-$f1;
#X floatatom -27 222 5 0 0 0 - - -;
#X floatatom 12 222 5 0 0 0 - - -;
#X obj -48 248 *~ 1;
#X obj -127 175 inlet~;
#X obj -80 175 inlet~;
#X obj -9 248 *~ 0;
#X obj -24 285 outlet~;
#X obj 108 125 hsl 64 8 0 127 0 0 empty empty mix -2 -8 0 10 -262144
-1 -1 0 1;
#X obj 105 72 nano2 19;
#X connect 0 0 1 0;
#X connect 1 0 4 0;
#X connect 2 0 0 0;
#X connect 3 0 16 0;
#X connect 4 0 3 1;
#X connect 5 0 3 0;
#X connect 7 0 9 0;
#X connect 7 0 11 0;
#X connect 8 0 7 0;
#X connect 9 0 10 0;
#X connect 10 0 12 1;
#X connect 11 0 15 1;
#X connect 12 0 16 0;
#X connect 13 0 12 0;
#X connect 14 0 15 0;
#X connect 15 0 16 0;
#X connect 17 0 8 0;
#X connect 18 0 17 0;
#X coords 0 -1 1 1 80 60 1 100 100;
#X restore 7 355 pd input;
#X obj 120 422 tr 12;
#X obj 154 422 tr 13;
#X obj 188 422 tr 14;
#X obj 222 422 tr 15;
#X obj 256 422 tr 16;
#X obj 290 422 tr 17;
#X obj 324 422 tr 18;
#X obj 366 423 tr 21;
#X obj 400 423 tr 22;
#X obj 434 423 tr 23;
#X obj 468 423 tr 24;
#X obj 7 27 deck 1;
#X obj 132 319 sequencer 1;
#X obj 132 349 sequencer 2;
#X obj 132 379 sequencer 3;
#X obj 8 422 tr 25;
#X obj 42 422 tr 26;
#X obj 154 29 hradio 11 1 0 32 empty MasterClock empty 0 -8 0 10 -262144
-1 -1 0;
#X obj 7 160 deck 2;
#N canvas 316 38 965 708 pre 0;
#X obj 236 72 route 0 1 2 3 4 5 6 7;
#X obj -7 -17 unpack f f f;
#X obj -34 37 spigot;
#X obj -34 -41 t l l;
#X obj -34 62 unpack f f f;
#X obj -34 -68 r fromMonome;
#X obj 27 7 == 5;
#X floatatom -34 87 5 0 0 0 - - -;
#X obj 62 7 == 1;
#X obj 27 32 &&;
#N canvas 577 184 432 461 radiobuttonmode_h 0;
#X floatatom 49 251 5 0 0 0 - - -;
#X obj 136 179 hradio 15 1 0 8 empty empty empty 0 -8 0 10 -262144
-1 -1 0;
#X obj 49 202 until;
#X obj 49 227 counter 0 7;
#X msg 49 179 8;
#X obj 68 152 t b b f;
#X text 134 360 押下したボタンはon それ以外はoff;
#X text -16 250 0~7でループ;
#X obj 68 52 inlet;
#X obj 23 433 outlet;
#X text 20 27 radio button モード;
#X text 110 52 0 0 0;
#X text 71 432 0 0 0;
#X obj 92 314 ==;
#X text 66 103 row;
#X obj 23 406 pack f f f;
#X obj 68 122 unpack f f;
#X obj 49 274 t f f;
#X connect 0 0 17 0;
#X connect 2 0 3 0;
#X connect 3 0 0 0;
#X connect 4 0 2 0;
#X connect 5 0 4 0;
#X connect 5 2 1 0;
#X connect 5 2 13 1;
#X connect 8 0 16 0;
#X connect 13 0 15 2;
#X connect 15 0 9 0;
#X connect 16 0 5 0;
#X connect 16 1 15 1;
#X connect 17 0 15 0;
#X connect 17 1 13 0;
#X restore -34 138 pd radiobuttonmode_h;
#X obj -34 162 s toMonome;
#X obj -34 113 pack f 5 1;
#X msg 266 477 \; nseq4 4 1 0 0 1 0 0 1 0 0 1 0 0 1 0 0 1 \; nseq5
5 0 1 0 0 1 0 0 0 1 0 1 0 0 1 1 0 \; nseq6 6 0 1 1 0 0 1 1 0 0 0 1
1 0 0 1 0 \; nseq7 7 1 1 0 1 0 1 0 0 1 0 0 1 0 0 0 1 \;;
#X msg 576 386 \; nseq4 4 1 0 0 1 0 0 1 0 0 1 0 0 1 0 0 1 \; nseq5
5 0 1 0 0 1 0 0 0 1 0 1 0 0 1 1 0 \; nseq6 6 0 1 1 0 0 1 1 0 0 0 1
1 0 0 1 0 \; nseq7 7 1 0 1 0 1 0 1 0 1 0 1 0 1 0 1 0 \;;
#X text 577 363 BPM 176;
#X obj 101 -31 nano2 43;
#X obj 101 -6 sel 127;
#X msg 101 18 0;
#X obj 161 -6 sel 127;
#X obj 161 -31 nano2 44;
#X obj 220 -7 sel 127;
#X obj 220 -32 nano2 42;
#X obj 279 -6 sel 127;
#X obj 279 -31 nano2 41;
#X obj 337 -6 sel 127;
#X obj 337 -31 nano2 45;
#X msg 161 18 1;
#X msg 220 17 2;
#X msg 279 18 3;
#X msg 337 18 4;
#X msg -44 285 disconnect;
#X obj -65 412 sendOSC;
#X msg -65 260 connect localhost 7702;
#X obj -65 235 loadbang;
#X msg 12 355 send /nseqp/ \$1;
#X msg 510 -6 \; nseq4 4 1 0 0 1 0 0 1 0 0 1 0 0 1 0 0 1 \; nseq5 5
0 1 1 0 1 0 0 1 1 0 0 0 0 1 0 1 \; nseq6 6 1 1 1 1 0 1 0 0 1 0 1 0
0 0 1 0 \; nseq7 7 0 1 1 0 0 1 1 0 1 1 0 0 1 1 1 1 \;;
#X msg 251 333 \; nseq0 0 1 0 0 1 0 0 1 0 0 1 0 0 1 0 0 1 \; nseq1
1 0 0 0 0 1 0 0 1 1 0 0 0 0 0 0 0 \; nseq2 2 0 0 0 0 0 0 0 0 0 0 1
0 0 0 1 0 \; nseq3 3 0 0 0 0 0 1 0 0 1 0 0 0 0 0 0 0 \; nseq4 4 0 0
0 1 0 0 0 0 0 1 0 0 1 0 0 0 \; nseq5 5 0 0 0 0 1 0 0 1 0 0 0 0 0 0
0 1 \; nseq6 6 0 0 0 0 0 1 0 0 1 0 1 0 0 0 0 0 \; nseq7 7 0 0 0 0 0
0 1 0 0 0 0 0 0 1 0 1 \;;
#X obj 109 120 vradio 13 1 0 8 empty empty empty 0 -8 0 10 -262144
-1 -1 0;
#X msg 236 105 \; nseq0 0 1 0 0 1 0 0 1 0 0 1 0 0 1 0 0 1 1 0 0 1 0
0 1 0 0 1 0 0 1 0 0 1 \; nseq1 1 0 1 1 0 1 0 0 1 1 0 0 0 0 1 0 1 0
1 1 0 1 0 0 1 1 0 0 0 0 1 0 1 \; nseq2 2 0 0 0 1 0 0 1 0 0 0 1 0 1
0 1 0 0 0 0 1 0 0 1 0 0 0 1 0 1 0 1 0 \; nseq3 3 0 1 0 0 1 0 1 0 0
1 0 1 1 0 0 1 0 1 0 0 1 0 1 0 0 1 0 1 1 0 0 1 \; nseq4 4 1 0 0 1 0
0 1 0 0 1 0 0 1 0 0 1 1 0 0 1 0 0 1 0 0 1 0 0 1 0 0 1 \; \; nseq5 5
0 1 1 0 1 0 0 1 1 0 0 0 0 1 0 1 0 1 1 0 1 0 0 1 1 0 0 0 0 1 0 1 \;
nseq6 6 0 0 0 1 0 0 1 0 0 0 1 0 1 0 1 0 0 0 0 1 0 0 1 0 0 0 1 0 1 0
1 0 \; nseq7 7 0 1 0 0 1 0 1 0 0 1 0 1 1 0 0 1 0 1 0 0 1 0 1 0 0 1
0 1 1 0 0 1 \;;
#X connect 0 0 39 0;
#X connect 0 1 37 0;
#X connect 0 2 13 0;
#X connect 0 3 14 0;
#X connect 1 1 6 0;
#X connect 1 2 8 0;
#X connect 2 0 4 0;
#X connect 3 0 2 0;
#X connect 3 1 1 0;
#X connect 4 0 7 0;
#X connect 5 0 3 0;
#X connect 6 0 9 0;
#X connect 7 0 12 0;
#X connect 7 0 38 0;
#X connect 8 0 9 1;
#X connect 9 0 2 1;
#X connect 10 0 11 0;
#X connect 12 0 10 0;
#X connect 16 0 17 0;
#X connect 17 0 18 0;
#X connect 18 0 7 0;
#X connect 19 0 27 0;
#X connect 20 0 19 0;
#X connect 21 0 28 0;
#X connect 22 0 21 0;
#X connect 23 0 29 0;
#X connect 24 0 23 0;
#X connect 25 0 30 0;
#X connect 26 0 25 0;
#X connect 27 0 7 0;
#X connect 28 0 7 0;
#X connect 29 0 7 0;
#X connect 30 0 7 0;
#X connect 31 0 32 0;
#X connect 33 0 32 0;
#X connect 34 0 33 0;
#X connect 35 0 32 0;
#X connect 38 0 0 0;
#X connect 38 0 35 0;
#X coords 0 -1 1 1 40 130 1 100 100;
#X restore 90 288 pd pre;
#X obj 82 -22 inlet~;
#X obj 603 278 tr 2;
#X connect 1 0 2 0;
#X connect 1 1 2 1;
#X connect 3 0 1 0;
#X connect 3 1 1 1;
#X connect 5 0 3 0;
#X connect 5 0 3 1;
#X connect 6 0 22 0;
#X connect 6 0 22 1;
#X connect 7 0 18 0;
#X connect 7 0 18 1;
#X connect 8 0 21 0;
#X connect 8 0 21 1;
#X connect 9 0 19 0;
#X connect 9 0 19 1;
#X connect 10 0 20 0;
#X connect 10 0 20 1;
#X connect 11 0 15 0;
#X connect 11 0 15 1;
#X connect 12 0 16 0;
#X connect 12 0 16 1;
#X connect 13 0 17 0;
#X connect 13 0 17 1;
#X connect 14 0 5 0;
#X connect 14 0 11 0;
#X connect 14 0 12 0;
#X connect 14 0 13 0;
#X connect 14 0 7 0;
#X connect 14 0 9 0;
#X connect 14 0 10 0;
#X connect 14 0 8 0;
#X connect 15 0 1 0;
#X connect 15 1 1 1;
#X connect 16 0 1 0;
#X connect 16 1 1 1;
#X connect 17 0 1 0;
#X connect 17 1 1 1;
#X connect 18 0 1 0;
#X connect 18 1 1 1;
#X connect 19 0 1 0;
#X connect 19 1 1 1;
#X connect 20 0 1 0;
#X connect 20 1 1 1;
#X connect 21 0 1 0;
#X connect 21 1 1 1;
#X connect 22 0 1 0;
#X connect 22 1 1 1;
#X connect 23 0 1 0;
#X connect 23 1 1 1;
#X connect 24 0 1 0;
#X connect 24 1 1 1;
#X connect 25 0 1 0;
#X connect 25 1 1 1;
#X connect 26 0 30 0;
#X connect 26 1 30 1;
#X connect 27 0 23 0;
#X connect 27 0 23 1;
#X connect 28 0 24 0;
#X connect 28 0 24 1;
#X connect 29 0 25 0;
#X connect 29 0 25 1;
#X connect 30 0 14 0;
#X connect 30 0 1 0;
#X connect 30 1 1 1;
#X connect 31 0 1 0;
#X connect 31 0 14 0;
#X connect 31 1 1 1;
#X connect 33 0 31 0;
#X connect 33 1 31 1;
#X connect 35 0 36 1;
#X connect 35 0 36 0;
#X connect 35 0 14 1;
#X connect 36 0 1 0;
#X connect 36 1 1 1;
#X coords 0 -1 1 1 680 550 1 0 0;
