#N canvas 16 22 811 623 10;
#X obj 102 400 soundfiler;
#X obj 102 112 bng 15 250 50 0 empty empty open 0 7 0 10 -262144 -1
-1;
#X msg 102 374 read -resize \$1 \$2_deck;
#X obj 102 273 openpanel;
#X obj 102 345 pack s f;
#X obj 102 297 t s b;
#X obj 147 323 \$0;
#X obj 470 313 sel 1;
#X obj 470 288 tabread \$0_SEQ;
#X obj 470 340 bng 15 250 50 0 empty empty empty 17 7 0 10 -262144
-1 -1;
#X obj 470 262 r MasterClock;
#X msg 662 383 disconnect;
#X obj 641 480 sendOSC;
#X msg 641 358 connect localhost 7702;
#X obj 641 333 loadbang;
#X obj 528 387 \$1;
#X obj 528 409 pack f 1;
#X msg 528 434 send /seq/ \$1 \$2;
#X obj 470 364 tabplay~ \$0_deck;
#X obj 470 387 outlet~;
#N canvas 0 22 450 278 (subpatch) 0;
#X array \$0_deck 100 float 2;
#X coords 0 278 1 277 200 140 0;
#X restore 39 113 graph;
#X text 38 92 \$0_deck;
#N canvas 98 78 450 300 (subpatch) 0;
#X array \$0_SEQ 32 float 2;
#X coords 0 300 32 299 128 10 0;
#X restore 379 334 graph;
#X obj 126 116 tgl 10 0 empty empty empty 17 7 0 10 -162280 -1 -1 1
1;
#X obj 137 116 tgl 10 0 empty empty empty 17 7 0 10 -262144 -1 -1 0
1;
#X obj 148 116 tgl 10 0 empty empty empty 17 7 0 10 -262144 -1 -1 0
1;
#X obj 159 116 tgl 10 0 empty empty empty 17 7 0 10 -262144 -1 -1 1
1;
#X obj 170 116 tgl 10 0 empty empty empty 17 7 0 10 -162280 -1 -1 0
1;
#X obj 181 116 tgl 10 0 empty empty empty 17 7 0 10 -262144 -1 -1 0
1;
#X obj 192 116 tgl 10 0 empty empty empty 17 7 0 10 -262144 -1 -1 1
1;
#X obj 203 116 tgl 10 0 empty empty empty 17 7 0 10 -262144 -1 -1 0
1;
#X msg 126 153 \$1 0;
#X msg 137 174 \$1 1;
#X msg 148 194 \$1 2;
#X msg 159 214 \$1 3;
#X msg 170 153 \$1 4;
#X msg 181 174 \$1 5;
#X msg 192 194 \$1 6;
#X msg 203 214 \$1 7;
#X obj 260 265 unpack 0 0;
#X obj 260 290 tgl 10 0 empty empty empty 17 7 0 10 -262144 -1 -1 1
1;
#X floatatom 260 310 5 0 0 0 - - -;
#X floatatom 317 310 5 0 0 0 - - -;
#X obj 260 334 tabwrite \$0_SEQ;
#X obj 214 116 tgl 10 0 empty empty empty 17 7 0 10 -162280 -1 -1 0
1;
#X obj 225 116 tgl 10 0 empty empty empty 17 7 0 10 -262144 -1 -1 1
1;
#X obj 236 116 tgl 10 0 empty empty empty 17 7 0 10 -262144 -1 -1 0
1;
#X obj 247 116 tgl 10 0 empty empty empty 17 7 0 10 -262144 -1 -1 0
1;
#X obj 258 116 tgl 10 0 empty empty empty 17 7 0 10 -162280 -1 -1 1
1;
#X obj 269 116 tgl 10 0 empty empty empty 17 7 0 10 -262144 -1 -1 0
1;
#X obj 280 116 tgl 10 0 empty empty empty 17 7 0 10 -262144 -1 -1 0
1;
#X obj 291 116 tgl 10 0 empty empty empty 17 7 0 10 -262144 -1 -1 1
1;
#X msg 214 153 \$1 8;
#X msg 225 174 \$1 9;
#X msg 236 194 \$1 10;
#X msg 247 214 \$1 11;
#X msg 258 153 \$1 12;
#X msg 269 174 \$1 13;
#X msg 280 194 \$1 14;
#X msg 291 214 \$1 15;
#X obj 149 -23 == \$1;
#X obj 116 0 spigot;
#X obj 116 -69 t l l;
#X obj 149 -46 unpack f;
#X text 378 314 \$0_SEQ;
#X text 177 -93 from preset;
#X obj 302 116 tgl 10 0 empty empty empty 17 7 0 10 -162280 -1 -1 0
1;
#X obj 313 116 tgl 10 0 empty empty empty 17 7 0 10 -262144 -1 -1 0
1;
#X obj 324 116 tgl 10 0 empty empty empty 17 7 0 10 -262144 -1 -1 0
1;
#X obj 335 116 tgl 10 0 empty empty empty 17 7 0 10 -262144 -1 -1 0
1;
#X obj 346 116 tgl 10 0 empty empty empty 17 7 0 10 -162280 -1 -1 0
1;
#X obj 357 116 tgl 10 0 empty empty empty 17 7 0 10 -262144 -1 -1 0
1;
#X obj 368 116 tgl 10 0 empty empty empty 17 7 0 10 -262144 -1 -1 0
1;
#X obj 379 116 tgl 10 0 empty empty empty 17 7 0 10 -262144 -1 -1 0
1;
#X obj 390 116 tgl 10 0 empty empty empty 17 7 0 10 -162280 -1 -1 0
1;
#X obj 401 116 tgl 10 0 empty empty empty 17 7 0 10 -262144 -1 -1 0
1;
#X obj 412 116 tgl 10 0 empty empty empty 17 7 0 10 -262144 -1 -1 0
1;
#X obj 423 116 tgl 10 0 empty empty empty 17 7 0 10 -262144 -1 -1 0
1;
#X obj 434 116 tgl 10 0 empty empty empty 17 7 0 10 -162280 -1 -1 0
1;
#X obj 445 116 tgl 10 0 empty empty empty 17 7 0 10 -262144 -1 -1 0
1;
#X obj 456 116 tgl 10 0 empty empty empty 17 7 0 10 -262144 -1 -1 0
1;
#X obj 467 116 tgl 10 0 empty empty empty 17 7 0 10 -262144 -1 -1 0
1;
#X obj 116 26 unpack f f f f f f f f f f f f f f f f f f f f f f f
f f f f f f f f f f f;
#X msg 302 153 \$1 16;
#X msg 313 174 \$1 17;
#X msg 324 194 \$1 18;
#X msg 335 214 \$1 19;
#X msg 346 153 \$1 20;
#X msg 357 174 \$1 21;
#X msg 368 194 \$1 22;
#X msg 379 214 \$1 23;
#X msg 390 153 \$1 24;
#X msg 401 174 \$1 25;
#X msg 412 194 \$1 26;
#X msg 423 214 \$1 27;
#X msg 435 153 \$1 28;
#X msg 446 174 \$1 29;
#X msg 455 194 \$1 30;
#X msg 465 214 \$1 31;
#X obj 116 -94 r seq\$1;
#X connect 1 0 3 0;
#X connect 2 0 0 0;
#X connect 3 0 5 0;
#X connect 4 0 2 0;
#X connect 5 0 4 0;
#X connect 5 1 6 0;
#X connect 6 0 4 1;
#X connect 7 0 9 0;
#X connect 8 0 7 0;
#X connect 9 0 15 0;
#X connect 9 0 18 0;
#X connect 10 0 8 0;
#X connect 11 0 12 0;
#X connect 13 0 12 0;
#X connect 14 0 13 0;
#X connect 15 0 16 0;
#X connect 16 0 17 0;
#X connect 17 0 12 0;
#X connect 18 0 19 0;
#X connect 23 0 31 0;
#X connect 24 0 32 0;
#X connect 25 0 33 0;
#X connect 26 0 34 0;
#X connect 27 0 35 0;
#X connect 28 0 36 0;
#X connect 29 0 37 0;
#X connect 30 0 38 0;
#X connect 31 0 39 0;
#X connect 32 0 39 0;
#X connect 33 0 39 0;
#X connect 34 0 39 0;
#X connect 35 0 39 0;
#X connect 36 0 39 0;
#X connect 37 0 39 0;
#X connect 38 0 39 0;
#X connect 39 0 40 0;
#X connect 39 1 42 0;
#X connect 40 0 41 0;
#X connect 41 0 43 0;
#X connect 42 0 43 1;
#X connect 44 0 52 0;
#X connect 45 0 53 0;
#X connect 46 0 54 0;
#X connect 47 0 55 0;
#X connect 48 0 56 0;
#X connect 49 0 57 0;
#X connect 50 0 58 0;
#X connect 51 0 59 0;
#X connect 52 0 39 0;
#X connect 53 0 39 0;
#X connect 54 0 39 0;
#X connect 55 0 39 0;
#X connect 56 0 39 0;
#X connect 57 0 39 0;
#X connect 58 0 39 0;
#X connect 59 0 39 0;
#X connect 60 0 61 1;
#X connect 61 0 82 0;
#X connect 62 0 61 0;
#X connect 62 1 63 0;
#X connect 63 0 60 0;
#X connect 66 0 83 0;
#X connect 67 0 84 0;
#X connect 68 0 85 0;
#X connect 69 0 86 0;
#X connect 70 0 87 0;
#X connect 71 0 88 0;
#X connect 72 0 89 0;
#X connect 73 0 90 0;
#X connect 74 0 91 0;
#X connect 75 0 92 0;
#X connect 76 0 93 0;
#X connect 77 0 94 0;
#X connect 78 0 95 0;
#X connect 79 0 96 0;
#X connect 80 0 97 0;
#X connect 81 0 98 0;
#X connect 82 1 23 0;
#X connect 82 2 24 0;
#X connect 82 3 25 0;
#X connect 82 4 26 0;
#X connect 82 5 27 0;
#X connect 82 6 28 0;
#X connect 82 7 29 0;
#X connect 82 8 30 0;
#X connect 82 9 44 0;
#X connect 82 10 45 0;
#X connect 82 11 46 0;
#X connect 82 12 47 0;
#X connect 82 13 48 0;
#X connect 82 14 49 0;
#X connect 82 15 50 0;
#X connect 82 16 51 0;
#X connect 82 17 66 0;
#X connect 82 18 67 0;
#X connect 82 19 68 0;
#X connect 82 20 69 0;
#X connect 82 21 70 0;
#X connect 82 22 71 0;
#X connect 82 23 72 0;
#X connect 82 24 73 0;
#X connect 82 25 74 0;
#X connect 82 26 75 0;
#X connect 82 27 76 0;
#X connect 82 28 77 0;
#X connect 82 29 78 0;
#X connect 82 30 79 0;
#X connect 82 31 80 0;
#X connect 82 32 81 0;
#X connect 83 0 39 0;
#X connect 84 0 39 0;
#X connect 85 0 39 0;
#X connect 86 0 39 0;
#X connect 87 0 39 0;
#X connect 88 0 39 0;
#X connect 89 0 39 0;
#X connect 90 0 39 0;
#X connect 91 0 39 0;
#X connect 92 0 39 0;
#X connect 93 0 39 0;
#X connect 94 0 39 0;
#X connect 95 0 39 0;
#X connect 96 0 39 0;
#X connect 97 0 39 0;
#X connect 98 0 39 0;
#X connect 99 0 62 0;
#X coords 0 -1 1 1 380 30 1 100 100;
