#N canvas 801 141 494 410 10;
#X obj 52 183 textfile;
#X obj 18 19 loadbang;
#X msg 69 74 clear;
#X msg 18 151 bang;
#X msg 52 97 read pre.txt;
#X msg 35 124 rewind;
#X obj 18 51 t b b b b;
#X obj 83 20 bng 15 250 50 0 empty empty empty 17 7 0 10 -262144 -1
-1;
#X msg 65 324 \$1 \$2 \$3 \$4;
#X obj 52 206 unpack f f f f f f f f f f f f f f f f f f f f f f f
f f f f f f f f f;
#X obj 52 251 pack f f f f f f f f f f f f f f f f f f f f f f f f
f f f f f f f f;
#X connect 0 0 9 0;
#X connect 1 0 6 0;
#X connect 2 0 0 0;
#X connect 3 0 0 0;
#X connect 4 0 0 0;
#X connect 5 0 0 0;
#X connect 6 0 3 0;
#X connect 6 1 5 0;
#X connect 6 2 4 0;
#X connect 6 3 2 0;
#X connect 7 0 1 0;
#X connect 9 0 10 0;
#X connect 9 1 10 1;
#X connect 9 2 10 2;
#X connect 9 3 10 3;
#X connect 9 4 10 4;
#X connect 9 5 10 5;
#X connect 9 6 10 6;
#X connect 9 7 10 7;
#X connect 9 8 10 8;
#X connect 9 9 10 9;
#X connect 9 10 10 10;
#X connect 9 11 10 11;
#X connect 9 12 10 12;
#X connect 9 13 10 13;
#X connect 9 14 10 14;
#X connect 9 15 10 15;
#X connect 9 16 10 16;
#X connect 9 17 10 17;
#X connect 9 18 10 18;
#X connect 9 19 10 19;
#X connect 9 20 10 20;
#X connect 9 21 10 21;
#X connect 9 22 10 22;
#X connect 9 23 10 23;
#X connect 9 24 10 24;
#X connect 9 25 10 25;
#X connect 9 26 10 26;
#X connect 9 27 10 27;
#X connect 9 28 10 28;
#X connect 9 29 10 29;
#X connect 9 30 10 30;
#X connect 9 31 10 31;
#X connect 10 0 8 0;
