#N canvas 462 186 519 258 10;
#X declare -lib mrpeach;
#X obj 173 -297 unpackOSC;
#X obj -38 -337 import mrpeach;
#X text 170 -347 指定したポートから信号を受信;
#X text -46 -396 touchOSC connection;
#X obj 173 -325 udpreceive 57120;
#X text -46 -375 prefix : page 1~4 \, fader toggle push xy multitoggle
rotary accxyz;
#X obj 173 -185 outlet;
#X obj 278 -187 outlet;
#N canvas 119 62 742 496 page1 0;
#X obj 16 53 inlet;
#X obj 130 464 outlet;
#X obj 16 108 routeOSC /1/push1;
#X msg 103 131 72;
#X obj 103 75 loadbang;
#N canvas 423 309 256 173 octave_shift 0;
#X obj 19 28 inlet;
#X obj 19 130 outlet;
#X obj 19 54 sel 1;
#X obj 60 101 +;
#X obj 96 101 i;
#X obj 19 78 i;
#X obj 91 27 inlet;
#X text 89 7 default note number;
#X text 18 8 key touch;
#X obj 60 78 r octave_shift1;
#X connect 0 0 2 0;
#X connect 2 0 5 0;
#X connect 3 0 4 0;
#X connect 3 0 5 1;
#X connect 4 0 3 1;
#X connect 5 0 3 1;
#X connect 5 0 1 0;
#X connect 6 0 5 1;
#X connect 9 0 3 0;
#X restore 16 155 pd octave_shift;
#N canvas 423 309 256 173 octave_shift 0;
#X obj 19 28 inlet;
#X obj 19 130 outlet;
#X obj 19 54 sel 1;
#X obj 60 101 +;
#X obj 96 101 i;
#X obj 19 78 i;
#X obj 91 27 inlet;
#X text 89 7 default note number;
#X text 18 8 key touch;
#X obj 60 78 r octave_shift1;
#X connect 0 0 2 0;
#X connect 2 0 5 0;
#X connect 3 0 4 0;
#X connect 3 0 5 1;
#X connect 4 0 3 1;
#X connect 5 0 3 1;
#X connect 5 0 1 0;
#X connect 6 0 5 1;
#X connect 9 0 3 0;
#X restore 147 155 pd octave_shift;
#N canvas 423 309 256 173 octave_shift 0;
#X obj 19 28 inlet;
#X obj 19 130 outlet;
#X obj 19 54 sel 1;
#X obj 60 101 +;
#X obj 96 101 i;
#X obj 19 78 i;
#X obj 91 27 inlet;
#X text 89 7 default note number;
#X text 18 8 key touch;
#X obj 60 78 r octave_shift1;
#X connect 0 0 2 0;
#X connect 2 0 5 0;
#X connect 3 0 4 0;
#X connect 3 0 5 1;
#X connect 4 0 3 1;
#X connect 5 0 3 1;
#X connect 5 0 1 0;
#X connect 6 0 5 1;
#X connect 9 0 3 0;
#X restore 274 155 pd octave_shift;
#N canvas 423 309 256 173 octave_shift 0;
#X obj 19 28 inlet;
#X obj 19 130 outlet;
#X obj 19 54 sel 1;
#X obj 60 101 +;
#X obj 96 101 i;
#X obj 19 78 i;
#X obj 91 27 inlet;
#X text 89 7 default note number;
#X text 18 8 key touch;
#X obj 60 78 r octave_shift1;
#X connect 0 0 2 0;
#X connect 2 0 5 0;
#X connect 3 0 4 0;
#X connect 3 0 5 1;
#X connect 4 0 3 1;
#X connect 5 0 3 1;
#X connect 5 0 1 0;
#X connect 6 0 5 1;
#X connect 9 0 3 0;
#X restore 407 156 pd octave_shift;
#X msg 234 131 73;
#X msg 361 131 74;
#X msg 494 132 75;
#X text 164 75 set default note number;
#X obj 147 108 routeOSC /1/push2;
#X obj 274 108 routeOSC /1/push3;
#X obj 407 109 routeOSC /1/push4;
#N canvas 423 309 256 173 octave_shift 0;
#X obj 19 28 inlet;
#X obj 19 130 outlet;
#X obj 19 54 sel 1;
#X obj 60 101 +;
#X obj 96 101 i;
#X obj 19 78 i;
#X obj 91 27 inlet;
#X text 89 7 default note number;
#X text 18 8 key touch;
#X obj 60 78 r octave_shift1;
#X connect 0 0 2 0;
#X connect 2 0 5 0;
#X connect 3 0 4 0;
#X connect 3 0 5 1;
#X connect 4 0 3 1;
#X connect 5 0 3 1;
#X connect 5 0 1 0;
#X connect 6 0 5 1;
#X connect 9 0 3 0;
#X restore 112 271 pd octave_shift;
#N canvas 423 309 256 173 octave_shift 0;
#X obj 19 28 inlet;
#X obj 19 130 outlet;
#X obj 19 54 sel 1;
#X obj 60 101 +;
#X obj 96 101 i;
#X obj 19 78 i;
#X obj 91 27 inlet;
#X text 89 7 default note number;
#X text 18 8 key touch;
#X obj 60 78 r octave_shift1;
#X connect 0 0 2 0;
#X connect 2 0 5 0;
#X connect 3 0 4 0;
#X connect 3 0 5 1;
#X connect 4 0 3 1;
#X connect 5 0 3 1;
#X connect 5 0 1 0;
#X connect 6 0 5 1;
#X connect 9 0 3 0;
#X restore 243 271 pd octave_shift;
#N canvas 423 309 256 173 octave_shift 0;
#X obj 19 28 inlet;
#X obj 19 130 outlet;
#X obj 19 54 sel 1;
#X obj 60 101 +;
#X obj 96 101 i;
#X obj 19 78 i;
#X obj 91 27 inlet;
#X text 89 7 default note number;
#X text 18 8 key touch;
#X obj 60 78 r octave_shift1;
#X connect 0 0 2 0;
#X connect 2 0 5 0;
#X connect 3 0 4 0;
#X connect 3 0 5 1;
#X connect 4 0 3 1;
#X connect 5 0 3 1;
#X connect 5 0 1 0;
#X connect 6 0 5 1;
#X connect 9 0 3 0;
#X restore 370 271 pd octave_shift;
#N canvas 423 309 256 173 octave_shift 0;
#X obj 19 28 inlet;
#X obj 19 130 outlet;
#X obj 19 54 sel 1;
#X obj 60 101 +;
#X obj 96 101 i;
#X obj 19 78 i;
#X obj 91 27 inlet;
#X text 89 7 default note number;
#X text 18 8 key touch;
#X obj 60 78 r octave_shift1;
#X connect 0 0 2 0;
#X connect 2 0 5 0;
#X connect 3 0 4 0;
#X connect 3 0 5 1;
#X connect 4 0 3 1;
#X connect 5 0 3 1;
#X connect 5 0 1 0;
#X connect 6 0 5 1;
#X connect 9 0 3 0;
#X restore 503 272 pd octave_shift;
#X obj 112 224 routeOSC /1/push5;
#X obj 243 224 routeOSC /1/push6;
#X obj 370 224 routeOSC /1/push7;
#X obj 503 225 routeOSC /1/push8;
#X msg 199 247 76;
#X msg 330 247 77;
#X msg 457 247 78;
#X msg 590 248 79;
#N canvas 423 309 256 173 octave_shift 0;
#X obj 19 28 inlet;
#X obj 19 130 outlet;
#X obj 19 54 sel 1;
#X obj 60 101 +;
#X obj 96 101 i;
#X obj 19 78 i;
#X obj 91 27 inlet;
#X text 89 7 default note number;
#X text 18 8 key touch;
#X obj 60 78 r octave_shift1;
#X connect 0 0 2 0;
#X connect 2 0 5 0;
#X connect 3 0 4 0;
#X connect 3 0 5 1;
#X connect 4 0 3 1;
#X connect 5 0 3 1;
#X connect 5 0 1 0;
#X connect 6 0 5 1;
#X connect 9 0 3 0;
#X restore 213 374 pd octave_shift;
#N canvas 423 309 256 173 octave_shift 0;
#X obj 19 28 inlet;
#X obj 19 130 outlet;
#X obj 19 54 sel 1;
#X obj 60 101 +;
#X obj 96 101 i;
#X obj 19 78 i;
#X obj 91 27 inlet;
#X text 89 7 default note number;
#X text 18 8 key touch;
#X obj 60 78 r octave_shift1;
#X connect 0 0 2 0;
#X connect 2 0 5 0;
#X connect 3 0 4 0;
#X connect 3 0 5 1;
#X connect 4 0 3 1;
#X connect 5 0 3 1;
#X connect 5 0 1 0;
#X connect 6 0 5 1;
#X connect 9 0 3 0;
#X restore 344 374 pd octave_shift;
#N canvas 423 309 256 173 octave_shift 0;
#X obj 19 28 inlet;
#X obj 19 130 outlet;
#X obj 19 54 sel 1;
#X obj 60 101 +;
#X obj 96 101 i;
#X obj 19 78 i;
#X obj 91 27 inlet;
#X text 89 7 default note number;
#X text 18 8 key touch;
#X obj 60 78 r octave_shift1;
#X connect 0 0 2 0;
#X connect 2 0 5 0;
#X connect 3 0 4 0;
#X connect 3 0 5 1;
#X connect 4 0 3 1;
#X connect 5 0 3 1;
#X connect 5 0 1 0;
#X connect 6 0 5 1;
#X connect 9 0 3 0;
#X restore 471 374 pd octave_shift;
#N canvas 423 309 256 173 octave_shift 0;
#X obj 19 28 inlet;
#X obj 19 130 outlet;
#X obj 19 54 sel 1;
#X obj 60 101 +;
#X obj 96 101 i;
#X obj 19 78 i;
#X obj 91 27 inlet;
#X text 89 7 default note number;
#X text 18 8 key touch;
#X obj 60 78 r octave_shift1;
#X connect 0 0 2 0;
#X connect 2 0 5 0;
#X connect 3 0 4 0;
#X connect 3 0 5 1;
#X connect 4 0 3 1;
#X connect 5 0 3 1;
#X connect 5 0 1 0;
#X connect 6 0 5 1;
#X connect 9 0 3 0;
#X restore 604 375 pd octave_shift;
#X obj 214 327 routeOSC /1/push9;
#X obj 344 327 routeOSC /1/push10;
#X obj 471 327 routeOSC /1/push11;
#X obj 604 328 routeOSC /1/push12;
#X msg 300 350 80;
#X msg 431 350 81;
#X msg 558 350 82;
#X msg 691 351 83;
#X obj 103 52 bng 15 250 50 0 empty empty empty 17 7 0 10 -262144 -1
-1;
#X text 123 49 reset;
#X text 16 5 Keyboard layout;
#X text 15 22 translate osc to MIDI note number;
#X connect 0 0 2 0;
#X connect 2 0 5 0;
#X connect 2 1 13 0;
#X connect 3 0 5 1;
#X connect 4 0 3 0;
#X connect 4 0 9 0;
#X connect 4 0 10 0;
#X connect 4 0 11 0;
#X connect 4 0 24 0;
#X connect 4 0 25 0;
#X connect 4 0 26 0;
#X connect 4 0 27 0;
#X connect 4 0 36 0;
#X connect 4 0 37 0;
#X connect 4 0 38 0;
#X connect 4 0 39 0;
#X connect 5 0 1 0;
#X connect 6 0 1 0;
#X connect 7 0 1 0;
#X connect 8 0 1 0;
#X connect 9 0 6 1;
#X connect 10 0 7 1;
#X connect 11 0 8 1;
#X connect 13 0 6 0;
#X connect 13 1 14 0;
#X connect 14 0 7 0;
#X connect 14 1 15 0;
#X connect 15 0 8 0;
#X connect 15 1 20 0;
#X connect 16 0 1 0;
#X connect 17 0 1 0;
#X connect 18 0 1 0;
#X connect 19 0 1 0;
#X connect 20 0 16 0;
#X connect 20 1 21 0;
#X connect 21 0 17 0;
#X connect 21 1 22 0;
#X connect 22 0 18 0;
#X connect 22 1 23 0;
#X connect 23 0 19 0;
#X connect 23 1 32 0;
#X connect 24 0 16 1;
#X connect 25 0 17 1;
#X connect 26 0 18 1;
#X connect 27 0 19 1;
#X connect 28 0 1 0;
#X connect 29 0 1 0;
#X connect 30 0 1 0;
#X connect 31 0 1 0;
#X connect 32 0 28 0;
#X connect 32 1 33 0;
#X connect 33 0 29 0;
#X connect 33 1 34 0;
#X connect 34 0 30 0;
#X connect 34 1 35 0;
#X connect 35 0 31 0;
#X connect 36 0 28 1;
#X connect 37 0 29 1;
#X connect 38 0 30 1;
#X connect 39 0 31 1;
#X connect 40 0 4 0;
#X restore 173 -260 pd page1;
#N canvas 474 153 1027 448 page3 0;
#X obj 16 37 inlet;
#X obj 224 312 routeOSC /3/toggle2;
#X obj 119 289 routeOSC /3/toggle1;
#X obj 329 335 routeOSC /3/toggle3;
#X obj 451 111 routeOSC /3/fader5;
#X obj 346 88 routeOSC /3/fader4;
#X obj 241 65 routeOSC /3/fader3;
#X obj 121 89 routeOSC /3/fader2;
#X obj 16 66 routeOSC /3/fader1;
#X obj 119 362 t b i;
#X obj 119 383 1;
#X obj 119 406 pack 0 0;
#X obj 181 361 t b i;
#X obj 181 405 pack 0 0;
#X obj 181 382 2;
#X obj 242 360 t b i;
#X obj 242 404 pack 0 0;
#X obj 242 381 3;
#X text 14 3 control layout;
#N canvas 464 115 477 236 pushbottun 0;
#X obj 18 83 routeOSC /3/push1;
#X obj 117 106 routeOSC /3/push2;
#X obj 233 83 routeOSC /3/push3;
#X obj 332 106 routeOSC /3/push4;
#X obj 18 106 sel 1;
#X obj 117 128 sel 1;
#X obj 18 128 -12;
#X obj 117 151 12;
#X obj 233 106 sel 1;
#X obj 332 128 sel 1;
#X obj 233 128 -12;
#X obj 332 151 12;
#X obj 117 174 s octave_shift2;
#X obj 332 174 s octave_shift1;
#X obj 18 27 inlet;
#X text 30 64 bottom;
#X text 240 60 top;
#X connect 0 0 4 0;
#X connect 0 1 1 0;
#X connect 1 0 5 0;
#X connect 1 1 2 0;
#X connect 2 0 8 0;
#X connect 2 1 3 0;
#X connect 3 0 9 0;
#X connect 4 0 6 0;
#X connect 5 0 7 0;
#X connect 6 0 12 0;
#X connect 7 0 12 0;
#X connect 8 0 10 0;
#X connect 9 0 11 0;
#X connect 10 0 13 0;
#X connect 11 0 13 0;
#X connect 14 0 0 0;
#X restore 130 27 pd pushbottun;
#X text 129 8 octave shift;
#N canvas 566 177 186 154 rotary 0;
#X obj 20 69 routeOSC /3/rotary1;
#X obj 20 90 * 127;
#X obj 20 112 s centA;
#X obj 20 36 inlet;
#X connect 0 0 1 0;
#X connect 1 0 2 0;
#X connect 3 0 0 0;
#X restore 230 27 pd rotary;
#X text 229 8 pan;
#X obj 241 87 * 127;
#X obj 565 216 r EG_s;
#X obj 625 218 r EG_du;
#X obj 241 109 s EG_a;
#X obj 346 110 * 127;
#X obj 346 132 s EG_r;
#X obj 451 134 * 127;
#X obj 451 156 s EG_du;
#X obj 16 111 pack 0 0 0;
#X obj 16 88 * 127;
#X obj 16 133 s lmA;
#X connect 0 0 6 0;
#X connect 0 0 8 0;
#X connect 0 0 19 0;
#X connect 0 0 21 0;
#X connect 1 0 12 0;
#X connect 1 1 3 0;
#X connect 2 0 9 0;
#X connect 2 1 1 0;
#X connect 3 0 15 0;
#X connect 4 0 29 0;
#X connect 5 0 27 0;
#X connect 5 1 4 0;
#X connect 6 0 23 0;
#X connect 6 1 5 0;
#X connect 8 0 32 0;
#X connect 8 1 7 0;
#X connect 9 0 10 0;
#X connect 9 1 11 1;
#X connect 10 0 11 0;
#X connect 12 0 14 0;
#X connect 12 1 13 1;
#X connect 14 0 13 0;
#X connect 15 0 17 0;
#X connect 15 1 16 1;
#X connect 17 0 16 0;
#X connect 23 0 26 0;
#X connect 27 0 28 0;
#X connect 29 0 30 0;
#X connect 31 0 33 0;
#X connect 32 0 31 0;
#X restore 263 -260 pd page3;
#X obj 131 -257 bng 15 250 50 0 empty empty empty 17 7 0 10 -262144
-1 -1;
#X floatatom 326 -186 5 0 0 0 - - -;
#X obj 173 -215 makenote 100 10000;
#X connect 0 0 8 0;
#X connect 0 0 9 0;
#X connect 0 0 10 0;
#X connect 4 0 0 0;
#X connect 8 0 12 0;
#X connect 12 0 6 0;
#X connect 12 1 7 0;
#X connect 12 1 11 0;
#X coords 0 258 1 257 130 95 0;
