#N canvas 139 125 487 412 10;
#X obj 17 75 inlet~;
#X obj 102 239 / 127;
#X obj 102 119 vsl 8 79 0 127 0 0 empty empty empty 0 -9 0 10 -262144
-1 -1 2100 1;
#X floatatom 102 281 5 0 0 0 - - -;
#X obj 44 305 *~ 0;
#X obj 118 54 env~;
#X obj 118 77 - 100;
#X obj 112 119 vu 8 80 empty empty -1 -8 0 10 -66577 -1 0 0;
#X obj 105 204 hsl 24 8 0 127 0 0 empty empty empty -2 -8 0 10 -1 -262144
-1 1100 1;
#X obj 156 54 env~;
#X obj 156 77 - 100;
#X obj 44 379 outlet~;
#X obj 101 379 outlet~;
#X obj 150 151 loadbang;
#X msg 150 171 63.5;
#X obj 102 260 * 10;
#X obj 102 25 line;
#X obj 63 76 inlet~;
#X obj 83 305 *~ 0;
#N canvas 318 426 450 300 pan 0;
#X obj 52 267 *~;
#X obj 133 267 *~;
#X floatatom 129 88 5 0 0 1 0-1 - -;
#X obj 67 200 cos;
#X obj 148 200 cos;
#X floatatom 129 149 5 0 0 0 - - -;
#X obj 129 117 * 1.5708;
#X text 187 119 0.5pi;
#X text 165 149 radian;
#X obj 148 176 + 4.7123;
#X floatatom 158 221 5 0 0 0 - - -;
#X floatatom 75 221 5 0 0 0 - - -;
#X text 206 175 1.5pi;
#X obj 52 45 inlet~;
#X obj 52 291 outlet~;
#X obj 133 291 outlet~;
#X obj 258 164 / 127;
#X obj 261 149 hsl 64 8 0 127 0 0 empty empty empty -2 -8 0 10 -262144
-1 -1 3013 1;
#X obj 67 244 line~;
#X obj 148 244 line~;
#X msg 258 70 63.5;
#X obj 216 45 inlet;
#X obj 258 45 loadbang;
#X obj 104 45 inlet~;
#X connect 0 0 14 0;
#X connect 1 0 15 0;
#X connect 2 0 6 0;
#X connect 3 0 11 0;
#X connect 3 0 18 0;
#X connect 4 0 10 0;
#X connect 4 0 19 0;
#X connect 5 0 3 0;
#X connect 5 0 9 0;
#X connect 6 0 5 0;
#X connect 9 0 4 0;
#X connect 13 0 0 0;
#X connect 16 0 2 0;
#X connect 17 0 16 0;
#X connect 18 0 0 1;
#X connect 19 0 1 1;
#X connect 20 0 17 0;
#X connect 21 0 17 0;
#X connect 22 0 20 0;
#X connect 23 0 1 0;
#X restore 44 338 pd pan;
#X obj 102 4 r track\$1;
#X obj 213 53 +;
#N canvas 370 49 294 376 volumContlorl 0;
#X obj 127 29 r fromMonome;
#X obj 154 74 unpack f f f;
#X obj 127 186 spigot;
#X obj 127 52 t l l;
#X obj 127 237 s toMonome;
#X obj 192 120 >= 6;
#N canvas 630 133 432 461 fadermode 0;
#X floatatom 156 248 5 0 0 0 - - -;
#X obj 156 199 until;
#X msg 156 176 8;
#X obj 175 149 t b b f;
#X obj 23 406 pack 0 0 0;
#X obj 23 342 f;
#X obj 156 279 t b f f;
#X obj 68 82 t l l;
#X obj 38 121 unpack 0;
#X text 36 102 row;
#X obj 118 121 unpack 0 0;
#X text 116 102 col;
#X text 21 323 row;
#X obj 68 52 inlet;
#X obj 23 433 outlet;
#X text 110 52 0 0 0;
#X text 71 432 0 0 0;
#X text 20 27 fader モード;
#X obj 247 176 expr ($f1/7)*127;
#X obj 250 202 hsl 128 8 0 127 0 0 empty empty empty -2 -8 0 10 -262144
-1 -1 0 1;
#X obj 199 311 >=;
#X text 198 336 押下した座標はon それ以下の座標はoff
;
#X obj 156 224 counter 6 7;
#X text 91 247 6~7でループ;
#X connect 0 0 6 0;
#X connect 1 0 22 0;
#X connect 2 0 1 0;
#X connect 3 0 2 0;
#X connect 3 2 18 0;
#X connect 3 2 20 1;
#X connect 4 0 14 0;
#X connect 5 0 4 0;
#X connect 6 0 5 0;
#X connect 6 1 4 1;
#X connect 6 2 20 0;
#X connect 7 0 10 0;
#X connect 7 1 8 0;
#X connect 8 0 5 1;
#X connect 10 1 3 0;
#X connect 13 0 7 0;
#X connect 18 0 19 0;
#X connect 20 0 4 2;
#X connect 22 0 0 0;
#X restore 127 210 pd fadermode;
#X obj 154 120 == \$1;
#X obj 159 149 &&;
#X obj 154 98 + 1;
#X obj 227 120 == 1;
#X obj 182 172 &&;
#X obj 33 209 unpack f f f;
#X floatatom 67 236 5 0 0 0 - - -;
#X obj 67 261 sel 6;
#X floatatom 75 313 5 0 0 0 - - -;
#X msg 67 284 5;
#X msg 100 284 -5;
#X obj 75 339 outlet;
#X connect 0 0 3 0;
#X connect 1 0 9 0;
#X connect 1 1 5 0;
#X connect 1 2 10 0;
#X connect 2 0 6 0;
#X connect 2 0 12 0;
#X connect 3 0 2 0;
#X connect 3 1 1 0;
#X connect 5 0 8 1;
#X connect 6 0 4 0;
#X connect 7 0 8 0;
#X connect 8 0 11 0;
#X connect 9 0 7 0;
#X connect 10 0 11 1;
#X connect 11 0 2 1;
#X connect 12 1 13 0;
#X connect 13 0 14 0;
#X connect 14 0 16 0;
#X connect 14 1 17 0;
#X connect 15 0 18 0;
#X connect 16 0 15 0;
#X connect 17 0 15 0;
#X restore 213 28 pd volumContlorl;
#X text 212 9 6 \, 7 row control volume;
#X obj 213 77 pack f 500;
#X obj 225 240 bng 15 250 50 0 empty empty empty 17 7 0 10 -262144
-1 -1;
#X obj 225 217 r store;
#X obj 276 240 bng 15 250 50 0 empty empty empty 17 7 0 10 -262144
-1 -1;
#X obj 276 217 r restore;
#X obj 225 263 \$1;
#X obj 225 291 pack 0 0 0;
#X msg 225 318 set \, add \, add track\$1 \$2 \$3;
#X msg 225 342;
#X obj 123 119 vu 8 80 empty empty -1 -8 0 10 -66577 -1 0 0;
#X connect 0 0 4 0;
#X connect 1 0 15 0;
#X connect 2 0 1 0;
#X connect 2 0 21 1;
#X connect 2 0 30 1;
#X connect 3 0 4 1;
#X connect 3 0 18 1;
#X connect 4 0 19 0;
#X connect 5 0 6 0;
#X connect 6 0 7 0;
#X connect 8 0 19 2;
#X connect 9 0 10 0;
#X connect 10 0 33 0;
#X connect 13 0 14 0;
#X connect 14 0 8 0;
#X connect 15 0 3 0;
#X connect 16 0 2 0;
#X connect 17 0 18 0;
#X connect 18 0 19 1;
#X connect 19 0 11 0;
#X connect 19 0 5 0;
#X connect 19 1 12 0;
#X connect 19 1 9 0;
#X connect 20 0 16 0;
#X connect 21 0 24 0;
#X connect 22 0 21 0;
#X connect 24 0 16 0;
#X connect 25 0 29 0;
#X connect 26 0 25 0;
#X connect 27 0 32 0;
#X connect 28 0 27 0;
#X connect 29 0 30 0;
#X connect 30 0 31 0;
#X connect 31 0 32 0;
#X coords 0 -1 1 1 34 115 1 100 100;
