#N canvas 122 116 261 413 10;
#X obj 17 91 inlet~;
#X obj 106 255 / 127;
#X obj 106 147 vsl 8 80 0 127 0 0 empty empty empty 0 -9 0 10 -262144
-1 -1 0 1;
#X floatatom 106 297 5 0 0 0 - - -;
#X obj 44 321 *~ 0;
#X obj 118 70 env~;
#X obj 118 93 - 100;
#X obj 119 147 vu 8 80 empty empty -1 -8 0 10 -66577 -1 0 0;
#X obj 109 236 hsl 30 8 0 127 0 0 empty empty empty -2 -8 0 10 -1 -262144
-1 1450 1;
#X obj 133 147 vu 8 80 empty empty -1 -8 0 10 -66577 -1 1 0;
#X obj 156 70 env~;
#X obj 156 93 - 100;
#X obj 44 395 outlet~;
#X obj 122 395 outlet~;
#X obj 183 185 loadbang;
#X msg 183 205 63.5;
#X obj 106 276 * 10;
#X obj 106 41 line;
#X obj 63 92 inlet~;
#X obj 83 321 *~ 0;
#N canvas 318 426 450 300 pan 0;
#X obj 52 267 *~;
#X obj 133 267 *~;
#X floatatom 129 88 5 0 0 1 0-1 - -;
#X obj 67 200 cos;
#X obj 148 200 cos;
#X floatatom 129 149 5 0 0 0 - - -;
#X obj 129 117 * 1.5708;
#X text 187 119 0.5pi;
#X text 165 149 radian;
#X obj 148 176 + 4.7123;
#X floatatom 158 221 5 0 0 0 - - -;
#X floatatom 75 221 5 0 0 0 - - -;
#X text 206 175 1.5pi;
#X obj 52 45 inlet~;
#X obj 52 291 outlet~;
#X obj 133 291 outlet~;
#X obj 258 164 / 127;
#X obj 261 149 hsl 64 8 0 127 0 0 empty empty empty -2 -8 0 10 -262144
-1 -1 3150 1;
#X obj 67 244 line~;
#X obj 148 244 line~;
#X msg 258 70 63.5;
#X obj 216 45 inlet;
#X obj 258 45 loadbang;
#X obj 104 45 inlet~;
#X connect 0 0 14 0;
#X connect 1 0 15 0;
#X connect 2 0 6 0;
#X connect 3 0 11 0;
#X connect 3 0 18 0;
#X connect 4 0 10 0;
#X connect 4 0 19 0;
#X connect 5 0 3 0;
#X connect 5 0 9 0;
#X connect 6 0 5 0;
#X connect 9 0 4 0;
#X connect 13 0 0 0;
#X connect 16 0 2 0;
#X connect 17 0 16 0;
#X connect 18 0 0 1;
#X connect 19 0 1 1;
#X connect 20 0 17 0;
#X connect 21 0 17 0;
#X connect 22 0 20 0;
#X connect 23 0 1 0;
#X restore 44 354 pd pan;
#X obj 106 20 r track\$1;
#X connect 0 0 4 0;
#X connect 1 0 16 0;
#X connect 2 0 1 0;
#X connect 3 0 4 1;
#X connect 3 0 19 1;
#X connect 4 0 20 0;
#X connect 5 0 6 0;
#X connect 6 0 7 0;
#X connect 8 0 20 2;
#X connect 10 0 11 0;
#X connect 11 0 9 0;
#X connect 14 0 15 0;
#X connect 15 0 8 0;
#X connect 16 0 3 0;
#X connect 17 0 2 0;
#X connect 18 0 19 0;
#X connect 19 0 20 1;
#X connect 20 0 12 0;
#X connect 20 0 5 0;
#X connect 20 1 13 0;
#X connect 20 1 10 0;
#X connect 21 0 17 0;
#X coords 0 -1 1 1 75 149 1 100 100;
