#N canvas 231 155 824 532 10;
#N canvas 0 22 450 300 (subpatch) 0;
#X array \$0_SEQ 8 float 2;
#X coords 0 300 1 299 128 10 0;
#X restore 110 76 graph;
#X obj 212 161 tgl 15 0 empty empty empty 17 7 0 10 -162280 -1 -1 0
1;
#X obj 228 161 tgl 15 0 empty empty empty 17 7 0 10 -262144 -1 -1 0
1;
#X obj 244 161 tgl 15 0 empty empty empty 17 7 0 10 -262144 -1 -1 0
1;
#X obj 260 161 tgl 15 0 empty empty empty 17 7 0 10 -262144 -1 -1 0
1;
#X obj 276 161 tgl 15 0 empty empty empty 17 7 0 10 -162280 -1 -1 0
1;
#X obj 292 161 tgl 15 0 empty empty empty 17 7 0 10 -262144 -1 -1 0
1;
#X obj 308 161 tgl 15 0 empty empty empty 17 7 0 10 -262144 -1 -1 0
1;
#X obj 324 161 tgl 15 0 empty empty empty 17 7 0 10 -262144 -1 -1 0
1;
#X msg 215 213 \$1 0;
#X msg 231 236 \$1 1;
#X msg 247 213 \$1 2;
#X msg 263 236 \$1 3;
#X msg 279 213 \$1 4;
#X msg 295 236 \$1 5;
#X msg 311 213 \$1 6;
#X msg 327 236 \$1 7;
#X obj 215 275 unpack 0 0;
#X obj 215 300 tgl 15 0 empty empty empty 17 7 0 10 -262144 -1 -1 0
1;
#X floatatom 215 320 5 0 0 0 - - -;
#X floatatom 282 320 5 0 0 0 - - -;
#X obj 212 181 hradio 16 1 0 8 empty empty empty 0 -8 0 10 -262144
-1 -1 7;
#X obj 212 67 route 0 1 2 3 4 5 6 7;
#X obj 215 344 tabwrite \$0_SEQ;
#X obj 239 -64 unpack f f f;
#X obj 273 -40 == \$1;
#X obj 212 -10 spigot;
#X obj 212 -88 t l l;
#X obj 212 15 unpack f f f;
#X obj 212 41 pack f f;
#X obj 212 -115 r fromMonome;
#X obj 418 -2 sel 1;
#X obj 418 -27 tabread \$0_SEQ;
#X obj 418 22 bng 15 250 50 0 empty empty empty 17 7 0 10 -262144 -1
-1;
#X obj 418 -53 r MasterClock;
#X obj 102 339 bp~;
#X obj 109 289 / 127;
#X obj 117 210 / 127;
#X obj 117 232 * 10;
#X obj 58 289 inlet~;
#X obj 102 387 outlet~;
#X msg 418 72 1;
#X obj 451 49 del 200;
#X msg 451 72 0;
#X floatatom 418 95 5 0 0 0 - - -;
#X obj 109 169 knob 20 20 0 127 0 0 empty empty freq 0 -8 0 8 -262144
-1 -1 0 1;
#X obj 144 169 knob 20 20 0 127 0 0 empty empty peak 0 -8 0 8 -262144
-1 -1 0 1;
#X obj 102 363 *~ 0;
#X obj 109 311 * 20000;
#X msg 514 185 disconnect;
#X obj 493 312 sendOSC;
#X msg 493 160 connect localhost 7702;
#X obj 493 135 loadbang;
#X obj 380 189 \$1;
#X obj 380 167 bng 15 250 50 0 empty empty empty 17 7 0 10 -262144
-1 -1;
#X obj 380 211 pack f 100;
#X msg 380 236 send /prefix1/ \$1 \$2;
#X obj 179 169 knob 20 20 0 127 0 0 empty empty dur 0 -8 0 8 -262144
-1 -1 0 1;
#X obj 163 208 / 127;
#X obj 163 232 * 1000;
#X connect 1 0 9 0;
#X connect 2 0 10 0;
#X connect 3 0 11 0;
#X connect 4 0 12 0;
#X connect 5 0 13 0;
#X connect 6 0 14 0;
#X connect 7 0 15 0;
#X connect 8 0 16 0;
#X connect 9 0 17 0;
#X connect 10 0 17 0;
#X connect 11 0 17 0;
#X connect 12 0 17 0;
#X connect 13 0 17 0;
#X connect 14 0 17 0;
#X connect 15 0 17 0;
#X connect 16 0 17 0;
#X connect 17 0 18 0;
#X connect 17 1 20 0;
#X connect 18 0 19 0;
#X connect 19 0 23 0;
#X connect 20 0 23 1;
#X connect 22 0 1 0;
#X connect 22 1 2 0;
#X connect 22 2 3 0;
#X connect 22 3 4 0;
#X connect 22 4 5 0;
#X connect 22 5 6 0;
#X connect 22 6 7 0;
#X connect 22 7 8 0;
#X connect 24 1 25 0;
#X connect 25 0 26 1;
#X connect 26 0 28 0;
#X connect 27 0 26 0;
#X connect 27 1 24 0;
#X connect 28 0 29 0;
#X connect 28 2 29 1;
#X connect 29 0 22 0;
#X connect 30 0 27 0;
#X connect 31 0 33 0;
#X connect 32 0 31 0;
#X connect 33 0 41 0;
#X connect 33 0 42 0;
#X connect 34 0 32 0;
#X connect 34 0 21 0;
#X connect 35 0 47 0;
#X connect 36 0 48 0;
#X connect 37 0 38 0;
#X connect 38 0 35 2;
#X connect 39 0 35 0;
#X connect 41 0 44 0;
#X connect 41 0 54 0;
#X connect 42 0 43 0;
#X connect 43 0 44 0;
#X connect 44 0 47 1;
#X connect 45 0 36 0;
#X connect 46 0 37 0;
#X connect 47 0 40 0;
#X connect 48 0 35 1;
#X connect 49 0 50 0;
#X connect 51 0 50 0;
#X connect 52 0 51 0;
#X connect 53 0 55 0;
#X connect 54 0 53 0;
#X connect 55 0 56 0;
#X connect 56 0 50 0;
#X connect 57 0 58 0;
#X connect 58 0 59 0;
#X connect 59 0 42 1;
#X coords 0 -1 1 1 243 100 1 100 100;
