#N canvas 486 178 139 237 10;
#X obj 26 34 ctlin;
#X floatatom 26 79 5 0 0 0 - - -;
#X floatatom 66 79 5 0 0 0 - - -;
#X obj 26 136 spigot;
#X floatatom 26 160 5 0 0 0 - - -;
#X obj 66 105 == \$1;
#X obj 26 190 outlet;
#X connect 0 0 1 0;
#X connect 0 1 2 0;
#X connect 1 0 3 0;
#X connect 2 0 5 0;
#X connect 3 0 4 0;
#X connect 4 0 6 0;
#X connect 5 0 3 1;
