#N canvas 223 22 949 569 10;
#X declare -lib flatgui;
#X declare -lib mrpeach;
#N canvas 337 70 419 480 BPM 0;
#X obj 51 239 tgl 15 0 empty empty empty 17 7 0 10 -262144 -1 -1 1
1;
#X obj 51 262 metro 90;
#X obj 51 214 loadbang;
#X obj 51 358 pack f 0 1;
#X obj 51 404 s toMonome;
#N canvas 577 184 432 461 radiobuttonmode_h 0;
#X floatatom 49 251 5 0 0 0 - - -;
#X obj 136 179 hradio 15 1 0 16 empty empty empty 0 -8 0 10 -262144
-1 -1 6;
#X obj 49 202 until;
#X msg 87 179 clear;
#X msg 49 179 8;
#X obj 68 152 t b b f;
#X text 134 360 押下したボタンはon それ以外はoff;
#X text -16 250 0~7でループ;
#X obj 68 52 inlet;
#X obj 23 433 outlet;
#X text 20 27 radio button モード;
#X text 110 52 0 0 0;
#X text 71 432 0 0 0;
#X obj 92 314 ==;
#X text 66 103 row;
#X obj 23 406 pack f f f;
#X obj 68 122 unpack f f;
#X obj 49 274 t f f;
#X obj 49 227 counter 0 7;
#X connect 0 0 17 0;
#X connect 2 0 18 0;
#X connect 3 0 18 0;
#X connect 4 0 2 0;
#X connect 5 0 4 0;
#X connect 5 1 3 0;
#X connect 5 2 1 0;
#X connect 5 2 13 1;
#X connect 8 0 16 0;
#X connect 13 0 15 2;
#X connect 15 0 9 0;
#X connect 16 0 5 0;
#X connect 16 1 15 1;
#X connect 17 0 15 0;
#X connect 17 1 13 0;
#X connect 18 0 0 0;
#X restore 51 380 pd radiobuttonmode_h;
#X obj -39 404 s MasterClock;
#X floatatom 152 191 5 0 0 0 - - -;
#X floatatom 152 127 5 0 200 2 BPM - -;
#X obj 152 167 expr 60000/$f1/4;
#X obj 108 168 / 127;
#X obj 108 192 * 250;
#X obj 108 52 loadbang;
#X msg 108 73 61;
#X obj 108 110 knob 32 32 0 127 0 0 empty empty empty 0 -8 0 8 -262144
-1 -1 2189 1;
#X obj 108 214 i;
#X obj 51 285 counter 0 15;
#X obj 51 311 / 2;
#X obj 51 334 div 1;
#X text 98 318 monome用にキャスト;
#X connect 0 0 1 0;
#X connect 1 0 16 0;
#X connect 2 0 0 0;
#X connect 3 0 5 0;
#X connect 5 0 4 0;
#X connect 7 0 1 1;
#X connect 8 0 9 0;
#X connect 9 0 7 0;
#X connect 10 0 11 0;
#X connect 11 0 15 0;
#X connect 12 0 13 0;
#X connect 13 0 14 0;
#X connect 14 0 10 0;
#X connect 15 0 8 0;
#X connect 16 0 6 0;
#X connect 16 0 17 0;
#X connect 17 0 18 0;
#X connect 18 0 3 0;
#X coords 0 -1 1 1 90 50 2 100 100;
#X restore 491 176 pd BPM;
#X obj 4 280 mixer;
#X obj 332 280 master;
#X obj 586 176 monome;
#X obj 4 26 nsequencer 4;
#X obj 4 215 nsequencer 7;
#X obj 4 89 nsequencer 5;
#X obj 4 152 nsequencer 6;
#N canvas 642 22 642 550 preset 1;
#X msg 105 187 \; nseq4 4 1 0 0 1 0 0 1 0 0 1 0 0 1 0 0 1 \; nseq5
5 0 1 1 0 1 0 0 1 1 0 0 0 0 1 0 1 \; nseq6 6 0 0 0 1 0 0 1 0 0 0 1
0 1 0 1 0 \; nseq7 7 0 1 0 0 1 0 1 0 0 1 0 1 1 0 0 1 \;;
#X msg 120 275 \; nseq4 4 1 0 0 1 0 0 1 0 0 1 0 0 1 0 0 1 \; nseq5
5 0 1 1 0 1 0 0 1 1 0 0 0 0 1 0 1 \; nseq6 6 1 1 1 1 0 1 0 0 1 0 1
0 0 0 1 0 \; nseq7 7 0 1 1 0 0 1 1 0 1 1 0 0 1 1 1 1 \;;
#X obj 105 124 hradio 15 1 0 8 empty empty empty 0 -8 0 10 -262144
-1 -1 2;
#X obj 105 154 route 0 1 2 3 4 5 6 7;
#X obj 132 -29 unpack f f f;
#X obj 105 25 spigot;
#X obj 105 -53 t l l;
#X obj 105 50 unpack f f f;
#X obj 105 -80 r fromMonome;
#X obj 166 -5 == 5;
#X floatatom 105 75 5 0 0 0 - - -;
#X obj 201 -5 == 1;
#X obj 166 20 &&;
#N canvas 577 184 432 461 radiobuttonmode_h 0;
#X floatatom 49 251 5 0 0 0 - - -;
#X obj 136 179 hradio 15 1 0 8 empty empty empty 0 -8 0 10 -262144
-1 -1 2;
#X obj 49 202 until;
#X obj 49 227 counter 0 7;
#X msg 49 179 8;
#X obj 68 152 t b b f;
#X text 134 360 押下したボタンはon それ以外はoff;
#X text -16 250 0~7でループ;
#X obj 68 52 inlet;
#X obj 23 433 outlet;
#X text 20 27 radio button モード;
#X text 110 52 0 0 0;
#X text 71 432 0 0 0;
#X obj 92 314 ==;
#X text 66 103 row;
#X obj 23 406 pack f f f;
#X obj 68 122 unpack f f;
#X obj 49 274 t f f;
#X connect 0 0 17 0;
#X connect 2 0 3 0;
#X connect 3 0 0 0;
#X connect 4 0 2 0;
#X connect 5 0 4 0;
#X connect 5 2 1 0;
#X connect 5 2 13 1;
#X connect 8 0 16 0;
#X connect 13 0 15 2;
#X connect 15 0 9 0;
#X connect 16 0 5 0;
#X connect 16 1 15 1;
#X connect 17 0 15 0;
#X connect 17 1 13 0;
#X restore 250 137 pd radiobuttonmode_h;
#X obj 250 161 s toMonome;
#X obj 250 112 pack f 5 1;
#X msg 135 356 \; nseq4 4 1 0 0 1 0 0 1 0 0 1 0 0 1 0 0 1 \; nseq5
5 0 1 0 0 1 0 0 0 1 0 1 0 0 1 1 0 \; nseq6 6 0 1 1 0 0 1 1 0 0 0 1
1 0 0 1 0 \; nseq7 7 1 1 0 1 0 1 0 0 1 0 0 1 0 0 0 1 \;;
#X msg 370 185 \; nseq4 4 1 0 0 1 0 0 1 0 0 1 0 0 1 0 0 1 \; nseq5
5 0 1 0 0 1 0 0 0 1 0 1 0 0 1 1 0 \; nseq6 6 0 1 1 0 0 1 1 0 0 0 1
1 0 0 1 0 \; nseq7 7 1 0 1 0 1 0 1 0 1 0 1 0 1 0 1 0 \;;
#X text 370 166 BPM 176;
#X connect 2 0 3 0;
#X connect 3 0 0 0;
#X connect 3 1 1 0;
#X connect 3 2 16 0;
#X connect 3 3 17 0;
#X connect 4 1 9 0;
#X connect 4 2 11 0;
#X connect 5 0 7 0;
#X connect 6 0 5 0;
#X connect 6 1 4 0;
#X connect 7 0 10 0;
#X connect 8 0 6 0;
#X connect 9 0 12 0;
#X connect 10 0 2 0;
#X connect 10 0 15 0;
#X connect 11 0 12 1;
#X connect 12 0 5 1;
#X connect 13 0 14 0;
#X connect 15 0 13 0;
#X coords 0 -1 1 1 135 45 1 100 100;
#X restore 491 229 pd preset;
#X obj 58 -37 inlet~;
#X connect 1 0 2 0;
#X connect 1 1 2 1;
#X connect 1 2 2 0;
#X connect 1 3 2 1;
#X connect 1 4 2 0;
#X connect 1 5 2 1;
#X connect 1 6 2 0;
#X connect 1 7 2 1;
#X connect 4 0 1 0;
#X connect 4 0 1 1;
#X connect 5 0 1 6;
#X connect 5 0 1 7;
#X connect 6 0 1 2;
#X connect 6 0 1 3;
#X connect 7 0 1 4;
#X connect 7 0 1 5;
#X connect 9 0 4 0;
#X connect 9 0 5 0;
#X connect 9 0 6 0;
#X connect 9 0 7 0;
#X coords 0 -1 1 1 635 435 1 0 0;
