#N canvas 5 26 1350 631 10;
#X declare -lib flatgui;
#X declare -lib mrpeach;
#X declare -lib flatgui;
#X declare -lib flatgui;
#X declare -lib flatgui;
#X declare -lib flatgui;
#X declare -lib flatgui;
#X declare -lib flatgui;
#X declare -lib flatgui;
#X declare -lib flatgui;
#X obj 2 4 lrp4;
#X obj 335 4 nbb4;
#X obj 1238 496 pack f f;
#X obj 1238 522 s master;
#X obj 1119 461 nano2 16;
#X obj 1178 461 nano2 17;
#X obj 1119 505 pack f f;
#X obj 1137 484 t b f;
#X obj 1119 532 s filter;
#X obj 1238 462 nano2 7;
#X connect 0 0 1 0;
#X connect 0 1 1 0;
#X connect 4 0 6 0;
#X connect 5 0 7 0;
#X connect 7 0 6 0;
#X connect 7 1 6 1;
#X connect 9 0 2 1;
#X connect 9 0 2 0;
#X coords 0 -1 1 1 1100 610 2 0 0;
