#N canvas 340 136 447 495 10;
#X declare -lib flatgui;
#X obj 105 370 vd~ chorus;
#X floatatom 144 230 5 0 0 2 depth - -;
#X obj 105 324 *~ 2;
#X obj 105 347 +~ 10;
#X obj 144 174 / 127;
#X obj 144 197 * 10;
#X obj -32 103 inlet~;
#X obj 49 463 outlet~;
#X obj -32 129 delwrite~ chorus 30;
#X floatatom 105 230 5 0 0 2 vib - -;
#X obj 105 174 / 127;
#X obj 49 415 +~;
#X obj 177 371 vd~ chorus;
#X obj 177 325 *~ 2;
#X obj 177 348 +~ 10;
#X obj 261 371 vd~ chorus;
#X obj 261 325 *~ 2;
#X obj 261 348 +~ 10;
#X obj 177 267 * 1.2;
#X obj 261 267 * 0.8;
#X obj 306 290 * 0.8;
#X obj 49 439 *~ 0.3;
#X obj 105 197 * 5;
#X obj 105 290 osc~;
#X obj 177 290 osc~;
#X obj 261 290 osc~;
#X obj 222 290 * 1.2;
#X obj -20 21 import flatgui;
#X obj 120 140 knob 18 18 0 127 0 0 empty empty VIBRATO -10 -8 0 10
-262144 -1 -1 0 1;
#X obj 173 140 knob 18 18 0 127 0 0 empty empty DEPTH -5 -8 0 10 -262144
-1 -1 0 1;
#X obj 20 103 inlet~;
#X obj 108 463 outlet~;
#X obj 108 415 +~;
#X obj 108 439 *~ 0.3;
#X connect 0 0 11 1;
#X connect 0 0 32 1;
#X connect 1 0 2 1;
#X connect 1 0 20 0;
#X connect 1 0 26 0;
#X connect 2 0 3 0;
#X connect 3 0 0 0;
#X connect 4 0 5 0;
#X connect 5 0 1 0;
#X connect 6 0 8 0;
#X connect 6 0 11 0;
#X connect 9 0 18 0;
#X connect 9 0 19 0;
#X connect 9 0 23 0;
#X connect 10 0 22 0;
#X connect 11 0 21 0;
#X connect 12 0 11 1;
#X connect 12 0 32 1;
#X connect 13 0 14 0;
#X connect 14 0 12 0;
#X connect 15 0 11 1;
#X connect 15 0 32 1;
#X connect 16 0 17 0;
#X connect 17 0 15 0;
#X connect 18 0 24 0;
#X connect 19 0 25 0;
#X connect 20 0 16 1;
#X connect 21 0 7 0;
#X connect 22 0 9 0;
#X connect 23 0 2 0;
#X connect 24 0 13 0;
#X connect 25 0 16 0;
#X connect 26 0 13 1;
#X connect 28 0 10 0;
#X connect 29 0 4 0;
#X connect 30 0 32 0;
#X connect 32 0 33 0;
#X connect 33 0 31 0;
#X coords 0 -1 1 1 110 65 1 100 100;
