#N canvas 197 185 637 424 10;
#X declare -lib flatgui;
#X obj 2 161 inlet~;
#X obj 105 226 / 127;
#X obj 148 227 / 127;
#X obj 78 297 *~ 20;
#X obj 78 325 clip~ -0.7 0.7;
#X obj 78 394 outlet~;
#X obj 78 349 lop~ 1000;
#X obj 199 227 / 127;
#X obj 199 250 * 2;
#X obj 78 372 *~ 1;
#X obj 105 77 line;
#X obj 160 77 line;
#X obj 105 52 pack f f;
#X obj 160 52 pack f f;
#X obj 105 29 unpack 0 0 0 0;
#X obj 215 77 line;
#X obj 215 52 pack f f;
#X obj -50 20 import flatgui;
#X obj 105 139 knob 18 18 0 127 0 0 empty empty GAIN 0 -8 0 10 -262144
-1 -1 0 1;
#X obj 141 139 knob 18 18 0 127 0 0 empty empty FILTER -5 -8 0 10 -262144
-1 -1 300 1;
#X obj 179 139 knob 18 18 0 127 0 0 empty empty LEVEL 0 -8 0 10 -262144
-1 -1 700 1;
#X obj 187 295 *~ 20;
#X obj 187 323 clip~ -0.7 0.7;
#X obj 187 392 outlet~;
#X obj 187 347 lop~ 1000;
#X obj 187 370 *~ 1;
#X obj 48 161 inlet~;
#X obj 105 250 * 500;
#X obj 148 250 * 7000;
#X floatatom 335 227 5 0 0 0 - - -;
#X floatatom 372 227 5 0 0 0 - - -;
#X floatatom 409 227 5 0 0 0 - - -;
#X obj 105 4 r distortion;
#X msg 320 294 set \, addsemi \, add distortion \$1 \$2 \$3;
#X obj 320 272 pack f f f;
#X obj 320 250 f;
#X obj 320 164 r store;
#X msg 320 339 \; distortion 0 22.4118 52.2941 \;;
#X obj 331 316 r restore;
#X connect 0 0 3 0;
#X connect 1 0 27 0;
#X connect 2 0 28 0;
#X connect 3 0 4 0;
#X connect 4 0 6 0;
#X connect 6 0 9 0;
#X connect 7 0 8 0;
#X connect 8 0 9 1;
#X connect 8 0 25 1;
#X connect 9 0 5 0;
#X connect 10 0 18 0;
#X connect 11 0 19 0;
#X connect 12 0 10 0;
#X connect 13 0 11 0;
#X connect 14 0 12 0;
#X connect 14 1 13 0;
#X connect 14 2 16 0;
#X connect 14 3 12 1;
#X connect 14 3 13 1;
#X connect 14 3 16 1;
#X connect 15 0 20 0;
#X connect 16 0 15 0;
#X connect 18 0 1 0;
#X connect 18 0 29 0;
#X connect 19 0 2 0;
#X connect 19 0 30 0;
#X connect 20 0 7 0;
#X connect 20 0 31 0;
#X connect 21 0 22 0;
#X connect 22 0 24 0;
#X connect 24 0 25 0;
#X connect 25 0 23 0;
#X connect 26 0 21 0;
#X connect 27 0 3 1;
#X connect 27 0 21 1;
#X connect 28 0 6 1;
#X connect 28 0 24 1;
#X connect 29 0 35 1;
#X connect 30 0 34 1;
#X connect 31 0 34 2;
#X connect 32 0 14 0;
#X connect 33 0 37 0;
#X connect 34 0 33 0;
#X connect 35 0 34 0;
#X connect 36 0 35 0;
#X connect 38 0 37 0;
#X coords 0 -1 1 1 110 65 1 100 100;
