#N canvas 197 185 637 424 10;
#X declare -lib flatgui;
#X obj 2 161 inlet~;
#X obj 105 226 / 127;
#X obj 148 227 / 127;
#X obj 78 297 *~ 20;
#X obj 78 325 clip~ -0.7 0.7;
#X obj 78 394 outlet~;
#X obj -60 201 loadbang;
#X obj -60 223 metro 12;
#X obj 78 349 lop~ 1000;
#X obj 199 227 / 127;
#X obj 199 250 * 2;
#N canvas 0 22 450 278 (subpatch) 0;
#X array \$0_source 128 float 1;
#A 0 0 0 0 0 0 0 0 0 0 0 0 0 0 0 0 0 0 0 0 0 0 0 0 0 0 0 0 0 0 0 0
0 0 0 0 0 0 0 0 0 0 0 0 0 0 0 0 0 0 0 0 0 0 0 0 0 0 0 0 0 0 0 0 0 0
0 0 0 0 0 0 0 0 0 0 0 0 0 0 0 0 0 0 0 0 0 0 0 0 0 0 0 0 0 0 0 0 0 0
0 0 0 0 0 0 0 0 0 0 0 0 0 0 0 0 0 0 0 0 0 0 0 0 0 0 0 0 0;
#X coords 0 278 1 277 40 28 0;
#X restore 31 87 graph;
#N canvas 0 22 450 278 (subpatch) 0;
#X array \$0_effected 128 float 1;
#A 0 0 0 0 0 0 0 0 0 0 0 0 0 0 0 0 0 0 0 0 0 0 0 0 0 0 0 0 0 0 0 0
0 0 0 0 0 0 0 0 0 0 0 0 0 0 0 0 0 0 0 0 0 0 0 0 0 0 0 0 0 0 0 0 0 0
0 0 0 0 0 0 0 0 0 0 0 0 0 0 0 0 0 0 0 0 0 0 0 0 0 0 0 0 0 0 0 0 0 0
0 0 0 0 0 0 0 0 0 0 0 0 0 0 0 0 0 0 0 0 0 0 0 0 0 0 0 0 0;
#X coords 0 278 1 277 40 28 0;
#X restore 31 111 graph;
#X obj -60 250 tabwrite~ \$0_source;
#X obj -60 372 tabwrite~ \$0_effected;
#X obj 78 372 *~ 1;
#X obj 105 77 line;
#X obj 160 77 line;
#X obj 105 52 pack f f;
#X obj 160 52 pack f f;
#X obj 105 29 unpack 0 0 0 0;
#X obj 215 77 line;
#X obj 215 52 pack f f;
#X obj -50 20 import flatgui;
#X obj 105 139 knob 18 18 0 127 0 0 empty empty GAIN 0 -8 0 10 -262144
-1 -1 1205 1;
#X obj 141 139 knob 18 18 0 127 0 0 empty empty FILTER -5 -8 0 10 -262144
-1 -1 1205 1;
#X obj 179 139 knob 18 18 0 127 0 0 empty empty LEVEL 0 -8 0 10 -262144
-1 -1 602 1;
#X obj 187 295 *~ 20;
#X obj 187 323 clip~ -0.7 0.7;
#X obj 187 392 outlet~;
#X obj 187 347 lop~ 1000;
#X obj 187 370 *~ 1;
#X obj 48 161 inlet~;
#X obj 105 250 * 500;
#X obj 148 250 * 7000;
#X floatatom 335 227 5 0 0 0 - - -;
#X floatatom 372 227 5 0 0 0 - - -;
#X floatatom 409 227 5 0 0 0 - - -;
#X obj 105 4 r distortion;
#X msg 320 294 set \, addsemi \, add distortion \$1 \$2 \$3;
#X obj 320 272 pack f f f;
#X obj 320 250 f;
#X obj 320 164 r store;
#X msg 320 339 \; distortion 0 22.4118 52.2941 \;;
#X obj 331 316 r restore;
#X connect 0 0 3 0;
#X connect 0 0 13 0;
#X connect 1 0 33 0;
#X connect 2 0 34 0;
#X connect 3 0 4 0;
#X connect 4 0 8 0;
#X connect 6 0 7 0;
#X connect 7 0 13 0;
#X connect 7 0 14 0;
#X connect 8 0 15 0;
#X connect 9 0 10 0;
#X connect 10 0 15 1;
#X connect 10 0 31 1;
#X connect 15 0 5 0;
#X connect 15 0 14 0;
#X connect 16 0 24 0;
#X connect 17 0 25 0;
#X connect 18 0 16 0;
#X connect 19 0 17 0;
#X connect 20 0 18 0;
#X connect 20 1 19 0;
#X connect 20 2 22 0;
#X connect 20 3 18 1;
#X connect 20 3 19 1;
#X connect 20 3 22 1;
#X connect 21 0 26 0;
#X connect 22 0 21 0;
#X connect 24 0 1 0;
#X connect 24 0 35 0;
#X connect 25 0 2 0;
#X connect 25 0 36 0;
#X connect 26 0 9 0;
#X connect 26 0 37 0;
#X connect 27 0 28 0;
#X connect 28 0 30 0;
#X connect 30 0 31 0;
#X connect 31 0 29 0;
#X connect 32 0 27 0;
#X connect 33 0 3 1;
#X connect 33 0 27 1;
#X connect 34 0 8 1;
#X connect 34 0 30 1;
#X connect 35 0 41 1;
#X connect 36 0 40 1;
#X connect 37 0 40 2;
#X connect 38 0 20 0;
#X connect 39 0 43 0;
#X connect 40 0 39 0;
#X connect 41 0 40 0;
#X connect 42 0 41 0;
#X connect 44 0 43 0;
#X coords 0 -1 1 1 110 65 1 100 100;
