#N canvas 133 22 741 666 10;
#X declare -lib flatgui;
#X declare -lib flatgui;
#X declare -lib flatgui;
#X obj -2 335 mixer;
#N canvas 885 56 465 541 preset 0;
#X text 1 67 reset;
#X obj 2 18 hradio 15 1 0 13 empty empty empty 0 -8 0 10 -262144 -1
-1 7;
#X msg 2 87 \;;
#X text 34 130 driving;
#X obj 2 43 route 0 1 2 3 4 5 6 7 8 9 10 11 12 13;
#X obj 221 5 inlet;
#X msg 27 150 \; distortion 90 90 45 \; filter 90.0363 23.3947 0 \;
delay 30 50 60 1000 \; master 50 100 1000 \; reverb 0.186441 0.80339
0.474576 0.80339 0.288136 \; track1 108.754 0 \; track2 55.237 0 \;
track3 118.801 0 \; VEQ1 0 0.633333 0.333333 0.633333 0.366666 0.533333
0.433333 0.3 0.233333 0.0999999 \;;
#X msg 66 333 \; distortion 104.588 90.0206 67.3847 \; filter 56.6153
10.0263 0 \; delay 50.0647 83.4189 73.5263 0 \; reverb 0.186441 0.80339
0.661017 0.430508 0.288136 0 \; master 35.0371 100.031 0 \; track1
60.5903 0 \; track2 35.2546 0 \; track3 69.7696 0 \;;
#X connect 1 0 4 0;
#X connect 4 0 2 0;
#X connect 4 7 6 0;
#X connect 4 8 7 0;
#X connect 5 0 1 0;
#X coords 0 -1 1 1 200 40 1 0 0;
#X restore 306 504 pd preset;
#X obj 180 153 distortion;
#X obj 306 571 bng 15 250 50 0 empty empty empty 17 7 0 10 -262144
-1 -1;
#X obj 306 595 s store;
#X obj 357 571 bng 15 250 50 0 empty empty empty 17 7 0 10 -262144
-1 -1;
#X obj 357 595 s restore;
#X obj -2 500 master;
#X obj 350 402 s track1;
#X obj 369 425 s track2;
#X obj 387 448 s track3;
#X obj 332 347 arduino_uno 4;
#N canvas 348 105 293 329 get_digital_in 0;
#X obj 13 16 inlet;
#X obj 13 72 sel 1;
#X obj 28 96 sel 1;
#X obj 43 120 sel 1;
#X obj 59 72 sel 1;
#X obj 74 96 sel 1;
#X obj 90 120 sel 1;
#X obj 105 72 sel 1;
#X obj 121 96 sel 1;
#X obj 136 120 sel 1;
#X obj 152 72 sel 1;
#X obj 167 96 sel 1;
#X msg 13 146 0;
#X msg 28 168 1;
#X msg 43 190 2;
#X msg 59 146 3;
#X msg 74 168 4;
#X msg 90 190 5;
#X msg 105 146 6;
#X msg 121 168 7;
#X msg 136 190 8;
#X msg 152 146 9;
#X msg 167 168 10;
#X msg 183 190 11;
#X msg 198 146 12;
#X msg 214 168 13;
#X obj 13 49 unpack f f f f f f f f f f f f f f;
#X obj 183 120 sel 1;
#X obj 198 72 sel 1;
#X obj 214 96 sel 1;
#X obj 13 246 hradio 15 1 0 13 empty empty empty 0 -8 0 10 -262144
-1 -1 7;
#X obj 13 276 outlet;
#X connect 0 0 26 0;
#X connect 1 0 12 0;
#X connect 2 0 13 0;
#X connect 3 0 14 0;
#X connect 4 0 15 0;
#X connect 5 0 16 0;
#X connect 6 0 17 0;
#X connect 7 0 18 0;
#X connect 8 0 19 0;
#X connect 9 0 20 0;
#X connect 10 0 21 0;
#X connect 11 0 22 0;
#X connect 12 0 30 0;
#X connect 13 0 30 0;
#X connect 14 0 30 0;
#X connect 15 0 30 0;
#X connect 16 0 30 0;
#X connect 17 0 30 0;
#X connect 18 0 30 0;
#X connect 19 0 30 0;
#X connect 20 0 30 0;
#X connect 21 0 30 0;
#X connect 22 0 30 0;
#X connect 23 0 30 0;
#X connect 24 0 30 0;
#X connect 25 0 30 0;
#X connect 26 0 1 0;
#X connect 26 1 2 0;
#X connect 26 2 3 0;
#X connect 26 3 4 0;
#X connect 26 4 5 0;
#X connect 26 5 6 0;
#X connect 26 6 7 0;
#X connect 26 7 8 0;
#X connect 26 8 9 0;
#X connect 26 9 10 0;
#X connect 26 10 11 0;
#X connect 26 11 27 0;
#X connect 26 12 28 0;
#X connect 26 13 29 0;
#X connect 27 0 23 0;
#X connect 28 0 24 0;
#X connect 29 0 25 0;
#X connect 30 0 31 0;
#X restore 438 375 pd get_digital_in;
#N canvas 668 338 295 139 get_analog_in 0;
#X obj 18 43 unpack 0 1 2 3 4 5;
#X obj 18 73 * 127;
#X obj 60 73 * 127;
#X obj 102 73 * 127;
#X obj 18 18 inlet;
#X obj 146 73 * 127;
#X obj 188 73 * 127;
#X obj 230 73 * 127;
#X obj 18 100 outlet;
#X obj 60 100 outlet;
#X obj 102 100 outlet;
#X obj 146 100 outlet;
#X obj 188 100 outlet;
#X obj 230 100 outlet;
#X connect 0 0 1 0;
#X connect 0 1 2 0;
#X connect 0 2 3 0;
#X connect 0 3 5 0;
#X connect 0 4 6 0;
#X connect 0 5 7 0;
#X connect 1 0 8 0;
#X connect 2 0 9 0;
#X connect 3 0 10 0;
#X connect 4 0 0 0;
#X connect 5 0 11 0;
#X connect 6 0 12 0;
#X connect 7 0 13 0;
#X restore 332 376 pd get_analog_in;
#X obj 7 17 deck;
#X obj 216 66 ad_in;
#X obj 535 134 VEQ 3;
#X text 372 263 0~2700Hz;
#X obj 446 134 VEQ 2;
#X obj -2 229 EQ 0;
#X obj 156 232 EQ 1;
#X connect 0 0 7 0;
#X connect 0 1 7 1;
#X connect 0 2 7 0;
#X connect 0 3 7 1;
#X connect 0 4 7 0;
#X connect 0 5 7 1;
#X connect 0 6 7 0;
#X connect 0 7 7 1;
#X connect 2 0 20 0;
#X connect 2 1 20 1;
#X connect 3 0 4 0;
#X connect 5 0 6 0;
#X connect 11 0 13 0;
#X connect 11 1 12 0;
#X connect 12 0 1 0;
#X connect 13 1 8 0;
#X connect 13 2 9 0;
#X connect 13 3 10 0;
#X connect 15 0 2 0;
#X connect 15 0 19 0;
#X connect 15 0 0 4;
#X connect 15 1 2 1;
#X connect 15 1 19 1;
#X connect 15 1 0 5;
#X connect 19 0 0 0;
#X connect 19 1 0 1;
#X connect 20 0 0 2;
#X connect 20 1 0 3;
