#N canvas 251 54 618 585 10;
#X declare -lib flatgui;
#X declare -lib flatgui;
#X obj -22 228 mixer;
#X obj 95 12 adc~;
#X obj -22 126 EQ;
#X obj 129 127 EQ;
#N canvas 777 131 382 467 preset 0;
#X text 5 67 reset;
#X obj 6 18 hradio 15 1 0 8 empty empty empty 0 -8 0 10 -262144 -1
-1 1;
#X obj 6 43 route 0 1 2 3 4 5 6 7;
#X msg 6 87 \;;
#X text 38 130 driving;
#X msg 31 150 \; distortion 90 90 45 \; filter 70 10 1000 \; delay
30 50 60 1000 \; master 50 100 1000 \; reverb 0.186441 0.80339 0.474576
0.80339 0.288136 \; track1 64.3038 0 \; track2 30.5443 0 \;;
#X connect 1 0 2 0;
#X connect 2 0 3 0;
#X connect 2 1 5 0;
#X coords 0 -1 1 1 150 40 1 0 0;
#X restore 286 397 pd preset;
#X obj 129 58 distortion;
#X obj 286 464 bng 15 250 50 0 empty empty empty 17 7 0 10 -262144
-1 -1;
#X obj 286 488 s store;
#X obj 337 464 bng 15 250 50 0 empty empty empty 17 7 0 10 -262144
-1 -1;
#X obj 337 488 s restore;
#X obj -22 393 master;
#X obj 328 56 fhp;
#X obj 309 144 feedback;
#X connect 0 0 10 0;
#X connect 0 1 10 1;
#X connect 0 2 10 0;
#X connect 0 3 10 1;
#X connect 0 4 10 0;
#X connect 0 5 10 1;
#X connect 0 6 10 0;
#X connect 0 7 10 1;
#X connect 1 0 2 0;
#X connect 1 0 5 0;
#X connect 1 0 11 0;
#X connect 1 1 2 1;
#X connect 1 1 5 1;
#X connect 1 1 11 0;
#X connect 2 0 0 0;
#X connect 2 1 0 1;
#X connect 3 0 0 2;
#X connect 3 1 0 3;
#X connect 5 0 3 0;
#X connect 5 1 3 1;
#X connect 6 0 7 0;
#X connect 8 0 9 0;
#X connect 11 0 12 0;
#X connect 11 0 12 1;
#X connect 12 0 0 4;
#X connect 12 1 0 5;
