#N canvas 208 136 592 415 10;
#X obj 153 285 timer;
#X obj 108 124 bng 30 250 50 0 empty empty empty 0 -8 0 10 -262144
-1 -1;
#X obj 205 289 f;
#X obj 225 312 + 1;
#X obj 109 244 select;
#X msg 160 228 1;
#X obj 163 260 bng 15 250 50 0 empty empty empty 17 7 0 10 -262144
-1 -1;
#X floatatom 153 319 5 0 0 0 - - -;
#N canvas 0 22 454 304 (subpatch) 0;
#X array BPMlist 4 float 0;
#X coords 0 304 1 303 50 50 0;
#X restore 198 122 graph;
#X obj 154 358 tabwrite BPMlist;
#X obj 108 169 f;
#X obj 120 191 + 1;
#X floatatom 109 214 5 0 0 0 - - -;
#X obj 152 181 % 2;
#X floatatom 205 333 5 0 0 0 - - -;
#X obj 267 313 % 4;
#X obj 238 234 tabread BPMlist;
#X obj 238 259 tabread BPMlist;
#X obj 239 182 tabread BPMlist;
#X obj 239 207 tabread BPMlist;
#X msg 198 182 0;
#X msg 197 208 1;
#X msg 198 234 2;
#X msg 197 259 3;
#X floatatom 359 184 5 0 0 0 - - -;
#X floatatom 359 210 5 0 0 0 - - -;
#X floatatom 359 236 5 0 0 0 - - -;
#X floatatom 359 261 5 0 0 0 - - -;
#X obj 405 184 +;
#X obj 405 233 +;
#X obj 438 211 +;
#X obj 438 243 / 4;
#X floatatom 438 279 5 0 0 0 - - -;
#X obj 436 332 /;
#X floatatom 333 348 5 0 0 2 BPM - -;
#X msg 437 304 60000;
#X obj 106 285 timer;
#X floatatom 105 319 5 0 0 0 - - -;
#X obj 333 374 outlet;
#X obj 108 74 inlet;
#X connect 0 0 7 0;
#X connect 1 0 10 0;
#X connect 1 0 2 0;
#X connect 1 0 20 0;
#X connect 1 0 21 0;
#X connect 1 0 22 0;
#X connect 1 0 23 0;
#X connect 2 0 3 0;
#X connect 2 0 14 0;
#X connect 3 0 15 0;
#X connect 4 0 0 0;
#X connect 4 0 36 1;
#X connect 4 1 6 0;
#X connect 5 0 4 1;
#X connect 6 0 0 1;
#X connect 6 0 36 0;
#X connect 7 0 9 0;
#X connect 10 0 11 0;
#X connect 10 0 12 0;
#X connect 11 0 13 0;
#X connect 12 0 4 0;
#X connect 13 0 10 1;
#X connect 14 0 9 1;
#X connect 15 0 2 1;
#X connect 16 0 26 0;
#X connect 17 0 27 0;
#X connect 18 0 24 0;
#X connect 19 0 25 0;
#X connect 20 0 18 0;
#X connect 21 0 19 0;
#X connect 22 0 16 0;
#X connect 23 0 17 0;
#X connect 24 0 28 0;
#X connect 25 0 28 1;
#X connect 26 0 29 0;
#X connect 27 0 29 1;
#X connect 28 0 30 0;
#X connect 29 0 30 1;
#X connect 30 0 31 0;
#X connect 31 0 32 0;
#X connect 32 0 35 0;
#X connect 32 0 33 1;
#X connect 33 0 34 0;
#X connect 34 0 38 0;
#X connect 35 0 33 0;
#X connect 36 0 37 0;
#X connect 37 0 9 0;
#X connect 39 0 1 0;
#X coords 0 -1 1 1 50 60 1 100 100;
