#N canvas 0 22 245 388 10;
#X obj 34 44 gemhead;
#X obj 34 69 world_light;
#X obj 34 328 sphere 0.2 40;
#X obj 104 190 inlet;
#N canvas 619 112 158 187 prm 0;
#X obj 30 27 inlet;
#X obj 30 67 sin;
#X obj 58 67 cos;
#X obj 30 92 * 2;
#X obj 58 92 * 2;
#X obj 30 120 abs;
#X obj 30 147 outlet;
#X obj 74 147 outlet;
#X connect 0 0 1 0;
#X connect 0 0 2 0;
#X connect 1 0 3 0;
#X connect 2 0 4 0;
#X connect 3 0 5 0;
#X connect 4 0 7 0;
#X connect 5 0 6 0;
#X restore 104 215 pd prm;
#X obj 67 117 r x;
#X obj 100 117 r y;
#X obj 133 117 r z;
#X obj 34 94 translateXYZ 0 0 -2;
#X obj 34 268 diffuseRGB 0.15 0.15 0.17;
#X obj 34 295 ambientRGB 0.5 0.5 0.5;
#X obj 69 191 \$1;
#X obj 69 167 loadbang;
#X obj 34 243 translateXYZ 0 0 0;
#X obj 34 141 rotateXYZ 20 45 0;
#X connect 0 0 1 0;
#X connect 1 0 8 0;
#X connect 3 0 4 0;
#X connect 4 0 13 2;
#X connect 4 1 13 3;
#X connect 5 0 14 1;
#X connect 6 0 14 2;
#X connect 7 0 14 3;
#X connect 8 0 14 0;
#X connect 9 0 10 0;
#X connect 10 0 2 0;
#X connect 11 0 13 1;
#X connect 12 0 11 0;
#X connect 13 0 9 0;
#X connect 14 0 13 0;
