#N canvas 761 313 120 216 10;
#X obj 62 125 pi;
#X obj 35 100 t f b;
#X obj 35 48 inlet;
#X obj 35 171 outlet;
#X obj 35 74 * 180;
#X obj 35 147 /;
#X connect 0 0 5 1;
#X connect 1 0 5 0;
#X connect 1 1 0 0;
#X connect 2 0 4 0;
#X connect 4 0 1 0;
#X connect 5 0 3 0;
