#N canvas 68 55 887 590 10;
#X declare -lib flatgui;
#X declare -lib flatgui;
#X obj 302 -246 loadbang;
#X obj 125 -107 kuramoto 0;
#X obj 125 -167 + 1;
#X floatatom 125 -130 5 0 0 2 固有振動数 - -;
#X obj 193 -167 + 1;
#X obj 262 -167 + 1;
#X obj 331 -167 + 1;
#X obj 401 -167 + 1;
#X obj 470 -167 + 1;
#X obj 302 -265 bng 15 250 50 0 empty empty empty 17 7 0 10 -262144
-1 -1;
#X obj 193 -189 random 8;
#X obj 262 -189 random 8;
#X obj 331 -189 random 8;
#X obj 401 -189 random 8;
#X obj 470 -189 random 8;
#N canvas 390 68 318 277 UI 0;
#X obj 105 124 tgl 30 0 empty empty empty 17 7 0 10 -262144 -1 -1 0
1;
#X obj 101 37 import flatgui;
#X obj 144 119 knob 32 32 0 127 0 0 empty empty 結合強度(K) 0 -8
1 10 -262144 -1 -1 0 1;
#X obj 167 171 / 127;
#N canvas 0 22 450 278 (subpatch) 0;
#X array obj_phase 8 float 2;
#X coords 0 278 1 277 100 70 0;
#X restore 202 37 graph;
#X msg 105 191 1;
#X obj 105 213 s clock;
#X obj 167 214 s K;
#X obj 144 67 r con;
#X obj 105 170 metro 50;
#X obj 167 192 * 0.5;
#X connect 0 0 9 0;
#X connect 2 0 3 0;
#X connect 3 0 10 0;
#X connect 5 0 6 0;
#X connect 8 0 2 0;
#X connect 9 0 5 0;
#X connect 10 0 7 0;
#X coords 0 -1 1 1 100 60 1 100 100;
#X restore 20 171 pd UI;
#X obj 125 83 mixer;
#X obj 458 83 master;
#X obj 125 -189 random 8;
#X obj 125 35 snd 500;
#X obj 194 -59 gemgraph_oooooo;
#X obj 538 -167 + 1;
#X obj 538 -189 random 8;
#X obj 608 -167 + 1;
#X obj 608 -189 random 8;
#X obj 262 -107 kuramoto 2;
#X obj 193 -107 kuramoto 1;
#X obj 331 -107 kuramoto 3;
#X obj 401 -107 kuramoto 4;
#X obj 470 -107 kuramoto 5;
#X obj 538 -107 kuramoto 6;
#X obj 608 -107 kuramoto 7;
#X obj 62 85 bpm_count;
#X floatatom 62 148 5 0 0 0 BPM - -;
#N canvas 635 117 311 387 shot 0;
#X floatatom 105 -23 5 0 0 0 - - -;
#X obj 105 27 f;
#X obj 105 74 change;
#X obj 105 120 bng 15 250 50 0 empty empty empty 17 7 0 10 -262144
-1 -1;
#X obj 105 -84 inlet;
#X obj 105 147 outlet;
#X obj 105 51 < 0;
#X obj 105 -46 sin;
#X obj 105 0 t f b;
#X connect 0 0 8 0;
#X connect 1 0 6 0;
#X connect 2 0 3 0;
#X connect 3 0 5 0;
#X connect 4 0 7 0;
#X connect 6 0 2 0;
#X connect 7 0 0 0;
#X connect 8 0 1 1;
#X connect 8 1 1 0;
#X coords 0 -1 1 1 25 40 1 100 100;
#X restore 125 -19 pd shot;
#X obj 193 35 snd 400;
#X obj 262 35 snd 560;
#X obj 331 35 snd 620;
#X obj 401 35 snd 340;
#X obj 470 35 snd 520;
#X obj 538 35 snd 200;
#X obj 608 35 snd 260;
#X text 663 -21 ボールがバウンドする瞬間に bangを出力
;
#N canvas 635 117 311 387 shot 0;
#X floatatom 105 -23 5 0 0 0 - - -;
#X obj 105 27 f;
#X obj 105 74 change;
#X obj 105 120 bng 15 250 50 0 empty empty empty 17 7 0 10 -262144
-1 -1;
#X obj 105 -84 inlet;
#X obj 105 147 outlet;
#X obj 105 51 < 0;
#X obj 105 -46 sin;
#X obj 105 0 t f b;
#X connect 0 0 8 0;
#X connect 1 0 6 0;
#X connect 2 0 3 0;
#X connect 3 0 5 0;
#X connect 4 0 7 0;
#X connect 6 0 2 0;
#X connect 7 0 0 0;
#X connect 8 0 1 1;
#X connect 8 1 1 0;
#X coords 0 -1 1 1 25 40 1 100 100;
#X restore 193 -19 pd shot;
#N canvas 635 117 311 387 shot 0;
#X floatatom 105 -23 5 0 0 0 - - -;
#X obj 105 27 f;
#X obj 105 74 change;
#X obj 105 120 bng 15 250 50 0 empty empty empty 17 7 0 10 -262144
-1 -1;
#X obj 105 -84 inlet;
#X obj 105 147 outlet;
#X obj 105 51 < 0;
#X obj 105 -46 sin;
#X obj 105 0 t f b;
#X connect 0 0 8 0;
#X connect 1 0 6 0;
#X connect 2 0 3 0;
#X connect 3 0 5 0;
#X connect 4 0 7 0;
#X connect 6 0 2 0;
#X connect 7 0 0 0;
#X connect 8 0 1 1;
#X connect 8 1 1 0;
#X coords 0 -1 1 1 25 40 1 100 100;
#X restore 262 -19 pd shot;
#N canvas 635 117 311 387 shot 0;
#X floatatom 105 -23 5 0 0 0 - - -;
#X obj 105 27 f;
#X obj 105 74 change;
#X obj 105 120 bng 15 250 50 0 empty empty empty 17 7 0 10 -262144
-1 -1;
#X obj 105 -84 inlet;
#X obj 105 147 outlet;
#X obj 105 51 < 0;
#X obj 105 -46 sin;
#X obj 105 0 t f b;
#X connect 0 0 8 0;
#X connect 1 0 6 0;
#X connect 2 0 3 0;
#X connect 3 0 5 0;
#X connect 4 0 7 0;
#X connect 6 0 2 0;
#X connect 7 0 0 0;
#X connect 8 0 1 1;
#X connect 8 1 1 0;
#X coords 0 -1 1 1 25 40 1 100 100;
#X restore 331 -19 pd shot;
#N canvas 635 117 311 387 shot 0;
#X floatatom 105 -23 5 0 0 0 - - -;
#X obj 105 27 f;
#X obj 105 74 change;
#X obj 105 120 bng 15 250 50 0 empty empty empty 17 7 0 10 -262144
-1 -1;
#X obj 105 -84 inlet;
#X obj 105 147 outlet;
#X obj 105 51 < 0;
#X obj 105 -46 sin;
#X obj 105 0 t f b;
#X connect 0 0 8 0;
#X connect 1 0 6 0;
#X connect 2 0 3 0;
#X connect 3 0 5 0;
#X connect 4 0 7 0;
#X connect 6 0 2 0;
#X connect 7 0 0 0;
#X connect 8 0 1 1;
#X connect 8 1 1 0;
#X coords 0 -1 1 1 25 40 1 100 100;
#X restore 401 -19 pd shot;
#N canvas 635 117 311 387 shot 0;
#X floatatom 105 -23 5 0 0 0 - - -;
#X obj 105 27 f;
#X obj 105 74 change;
#X obj 105 120 bng 15 250 50 0 empty empty empty 17 7 0 10 -262144
-1 -1;
#X obj 105 -84 inlet;
#X obj 105 147 outlet;
#X obj 105 51 < 0;
#X obj 105 -46 sin;
#X obj 105 0 t f b;
#X connect 0 0 8 0;
#X connect 1 0 6 0;
#X connect 2 0 3 0;
#X connect 3 0 5 0;
#X connect 4 0 7 0;
#X connect 6 0 2 0;
#X connect 7 0 0 0;
#X connect 8 0 1 1;
#X connect 8 1 1 0;
#X coords 0 -1 1 1 25 40 1 100 100;
#X restore 470 -19 pd shot;
#N canvas 635 117 311 387 shot 0;
#X floatatom 105 -23 5 0 0 0 - - -;
#X obj 105 27 f;
#X obj 105 74 change;
#X obj 105 120 bng 15 250 50 0 empty empty empty 17 7 0 10 -262144
-1 -1;
#X obj 105 -84 inlet;
#X obj 105 147 outlet;
#X obj 105 51 < 0;
#X obj 105 -46 sin;
#X obj 105 0 t f b;
#X connect 0 0 8 0;
#X connect 1 0 6 0;
#X connect 2 0 3 0;
#X connect 3 0 5 0;
#X connect 4 0 7 0;
#X connect 6 0 2 0;
#X connect 7 0 0 0;
#X connect 8 0 1 1;
#X connect 8 1 1 0;
#X coords 0 -1 1 1 25 40 1 100 100;
#X restore 538 -19 pd shot;
#N canvas 635 117 311 387 shot 0;
#X floatatom 105 -23 5 0 0 0 - - -;
#X obj 105 27 f;
#X obj 105 74 change;
#X obj 105 120 bng 15 250 50 0 empty empty empty 17 7 0 10 -262144
-1 -1;
#X obj 105 -84 inlet;
#X obj 105 147 outlet;
#X obj 105 51 < 0;
#X obj 105 -46 sin;
#X obj 105 0 t f b;
#X connect 0 0 8 0;
#X connect 1 0 6 0;
#X connect 2 0 3 0;
#X connect 3 0 5 0;
#X connect 4 0 7 0;
#X connect 6 0 2 0;
#X connect 7 0 0 0;
#X connect 8 0 1 1;
#X connect 8 1 1 0;
#X coords 0 -1 1 1 25 40 1 100 100;
#X restore 608 -19 pd shot;
#X text 681 -109 蔵本モデルによる引き込み処理;
#X text 680 -92 引数でオブジェクトのIDを指定;
#X text 297 -60 オブジェクトの描画(GEM);
#X floatatom 193 -130 5 0 0 2 固有振動数 - -;
#X floatatom 262 -130 5 0 0 2 固有振動数 - -;
#X floatatom 331 -130 5 0 0 2 固有振動数 - -;
#X floatatom 401 -130 5 0 0 2 固有振動数 - -;
#X floatatom 470 -130 5 0 0 2 固有振動数 - -;
#X floatatom 538 -130 5 0 0 2 固有振動数 - -;
#X floatatom 608 -130 5 0 0 2 固有振動数 - -;
#X text 363 -249 ランダムな固有振動数をセット;
#X text 22 40 ひとつの要素から;
#X text 23 54 BPMを計測;
#X text 659 33 引数で指定した周波数のサイン波を出力
;
#X text 658 49 持続時間は100ミリ秒;
#X connect 0 0 10 0;
#X connect 0 0 11 0;
#X connect 0 0 12 0;
#X connect 0 0 13 0;
#X connect 0 0 14 0;
#X connect 0 0 18 0;
#X connect 0 0 22 0;
#X connect 0 0 24 0;
#X connect 1 0 34 0;
#X connect 1 0 20 0;
#X connect 2 0 3 0;
#X connect 3 0 1 0;
#X connect 4 0 53 0;
#X connect 5 0 54 0;
#X connect 6 0 55 0;
#X connect 7 0 56 0;
#X connect 8 0 57 0;
#X connect 9 0 0 0;
#X connect 10 0 4 0;
#X connect 11 0 5 0;
#X connect 12 0 6 0;
#X connect 13 0 7 0;
#X connect 14 0 8 0;
#X connect 16 0 17 0;
#X connect 16 1 17 1;
#X connect 16 2 17 0;
#X connect 16 3 17 1;
#X connect 16 4 17 0;
#X connect 16 5 17 1;
#X connect 16 6 17 0;
#X connect 16 7 17 1;
#X connect 18 0 2 0;
#X connect 19 0 16 0;
#X connect 19 0 16 1;
#X connect 21 0 58 0;
#X connect 22 0 21 0;
#X connect 23 0 59 0;
#X connect 24 0 23 0;
#X connect 25 0 20 2;
#X connect 25 0 44 0;
#X connect 26 0 20 1;
#X connect 26 0 43 0;
#X connect 27 0 20 3;
#X connect 27 0 45 0;
#X connect 28 0 20 4;
#X connect 28 0 46 0;
#X connect 29 0 20 5;
#X connect 29 0 47 0;
#X connect 30 0 48 0;
#X connect 31 0 49 0;
#X connect 32 0 33 0;
#X connect 34 0 19 0;
#X connect 34 0 32 0;
#X connect 35 0 16 0;
#X connect 35 0 16 1;
#X connect 36 0 16 2;
#X connect 36 0 16 3;
#X connect 37 0 16 2;
#X connect 37 0 16 3;
#X connect 38 0 16 4;
#X connect 38 0 16 5;
#X connect 39 0 16 4;
#X connect 39 0 16 5;
#X connect 40 0 16 6;
#X connect 40 0 16 7;
#X connect 41 0 16 6;
#X connect 41 0 16 7;
#X connect 43 0 35 0;
#X connect 44 0 36 0;
#X connect 45 0 37 0;
#X connect 46 0 38 0;
#X connect 47 0 39 0;
#X connect 48 0 40 0;
#X connect 49 0 41 0;
#X connect 53 0 26 0;
#X connect 54 0 25 0;
#X connect 55 0 27 0;
#X connect 56 0 28 0;
#X connect 57 0 29 0;
#X connect 58 0 30 0;
#X connect 59 0 31 0;
#X coords 0 590 1 589 85 60 0;
