#N canvas 395 102 675 518 10;
#X declare -lib flatgui;
#X declare -lib mrpeach;
#X obj 638 154 vradio 15 1 0 10 empty empty empty 0 -8 0 10 -262144
-1 -1 0;
#X obj 2 156 mixer;
#X obj 332 155 master;
#X obj 580 260 monome;
#X obj 89 341 analog_in 4;
#X obj 89 369 unpack 0 1 2 3 4 5;
#X floatatom 110 397 5 0 0 0 - - -;
#X floatatom 152 397 5 0 0 0 - - -;
#X floatatom 194 397 5 0 0 0 - - -;
#X obj 110 422 * 127;
#X obj 152 422 * 127;
#X obj 194 422 * 127;
#X obj 110 448 s track1;
#X obj 169 449 s track2;
#X obj 230 449 s track3;
#X obj 173 536 s deck1;
#X obj 173 485 t b f;
#X obj 257 486 t b f;
#X obj 173 510 pack 20 f 80;
#X obj 257 511 pack 20 f 60;
#X obj 257 537 s deck2;
#X obj 167 19 deck 2;
#X obj 2 19 deck 1;
#X obj 332 19 deck 3;
#X obj 497 19 deck 4;
#X obj 379 360 sel 1;
#X obj 395 379 sel 1;
#X obj 412 399 sel 1;
#X obj 428 359 sel 1;
#X obj 445 378 sel 1;
#X obj 461 398 sel 1;
#X obj 478 359 sel 1;
#X obj 494 378 sel 1;
#X obj 511 398 sel 1;
#X obj 527 358 sel 1;
#X obj 544 377 sel 1;
#X msg 380 423 0;
#X msg 390 433 1;
#X msg 400 443 2;
#X msg 420 423 3;
#X msg 430 433 4;
#X msg 440 443 5;
#X msg 465 423 6;
#X msg 475 433 7;
#X msg 485 443 8;
#X msg 508 420 9;
#X msg 518 430 10;
#X msg 528 440 11;
#X msg 553 419 12;
#X msg 563 429 13;
#X obj 379 337 unpack f f f f f f f f f f f f f f;
#X obj 556 397 sel 1;
#X obj 569 358 sel 1;
#X obj 586 377 sel 1;
#X obj 386 476 hradio 15 1 0 13 empty empty empty 0 -8 0 10 -262144
-1 -1 7;
#X connect 1 0 2 0;
#X connect 1 1 2 1;
#X connect 1 2 2 0;
#X connect 1 3 2 1;
#X connect 1 4 2 0;
#X connect 1 5 2 1;
#X connect 1 6 2 0;
#X connect 1 7 2 1;
#X connect 4 0 5 0;
#X connect 4 1 50 0;
#X connect 5 1 6 0;
#X connect 5 2 7 0;
#X connect 5 3 8 0;
#X connect 6 0 9 0;
#X connect 7 0 10 0;
#X connect 8 0 11 0;
#X connect 9 0 12 0;
#X connect 9 0 13 0;
#X connect 10 0 16 0;
#X connect 11 0 17 0;
#X connect 16 0 18 0;
#X connect 16 1 18 1;
#X connect 17 0 19 0;
#X connect 17 1 19 1;
#X connect 18 0 15 0;
#X connect 19 0 20 0;
#X connect 21 0 1 2;
#X connect 21 1 1 3;
#X connect 22 0 1 0;
#X connect 22 1 1 1;
#X connect 23 0 1 4;
#X connect 23 1 1 5;
#X connect 24 0 1 6;
#X connect 24 1 1 7;
#X connect 25 0 36 0;
#X connect 26 0 37 0;
#X connect 27 0 38 0;
#X connect 28 0 39 0;
#X connect 29 0 40 0;
#X connect 30 0 41 0;
#X connect 31 0 42 0;
#X connect 32 0 43 0;
#X connect 33 0 44 0;
#X connect 34 0 45 0;
#X connect 35 0 46 0;
#X connect 36 0 54 0;
#X connect 37 0 54 0;
#X connect 38 0 54 0;
#X connect 39 0 54 0;
#X connect 40 0 54 0;
#X connect 41 0 54 0;
#X connect 42 0 54 0;
#X connect 43 0 54 0;
#X connect 44 0 54 0;
#X connect 45 0 54 0;
#X connect 46 0 54 0;
#X connect 47 0 54 0;
#X connect 48 0 54 0;
#X connect 49 0 54 0;
#X connect 50 0 25 0;
#X connect 50 1 26 0;
#X connect 50 2 27 0;
#X connect 50 3 28 0;
#X connect 50 4 29 0;
#X connect 50 5 30 0;
#X connect 50 6 31 0;
#X connect 50 7 32 0;
#X connect 50 8 33 0;
#X connect 50 9 34 0;
#X connect 50 10 35 0;
#X connect 50 11 51 0;
#X connect 50 12 52 0;
#X connect 50 13 53 0;
#X connect 51 0 47 0;
#X connect 52 0 48 0;
#X connect 53 0 49 0;
#X coords 0 -1 1 1 660 308 1 0 0;
