#N canvas 168 147 449 363 10;
#X floatatom 39 224 5 0 0 0 - - -;
#X obj 39 200 map -1 1 0 127;
#X obj 39 61 tgl 15 0 empty empty empty 17 7 0 10 -262144 -1 -1 1 1
;
#X obj 39 83 metro 100;
#X msg 39 107 1;
#X obj 39 130 +;
#X floatatom 68 131 5 0 0 0 - - -;
#X obj 39 153 sin;
#X floatatom 39 176 5 0 0 0 - - -;
#X obj 39 248 vsl 8 64 0 127 0 0 empty empty empty 0 -9 0 10 -262144
-1 -1 2297 1;
#X text 146 189 入力値を任意の範囲の値に変換する;
#X text 148 207 ex. -1 ~ 1 の値を 0 ~ 127 に変換;
#X connect 0 0 9 0;
#X connect 1 0 0 0;
#X connect 2 0 3 0;
#X connect 3 0 4 0;
#X connect 4 0 5 0;
#X connect 5 0 6 0;
#X connect 5 0 7 0;
#X connect 6 0 5 1;
#X connect 7 0 8 0;
#X connect 8 0 1 0;
