#N canvas 483 198 295 228 10;
#X obj 24 61 inlet;
#X obj 66 61 inlet;
#X obj 107 61 inlet;
#X obj 149 61 inlet;
#X obj 190 61 inlet;
#X text 24 37 val;
#X text 64 37 minv;
#X text 107 37 maxv;
#X text 146 37 minr;
#X text 188 37 maxr;
#X obj 66 111 \$1;
#X obj 107 111 \$2;
#X obj 149 111 \$3;
#X obj 190 111 \$4;
#X obj 24 152 expr (($f1-$f2)*($f3-$f4)/($f5-$f2))+$f4;
#X obj 24 182 outlet;
#X obj 24 86 t f b;
#X text 23 10 入力値を任意の範囲の値に変換する;
#X connect 0 0 16 0;
#X connect 1 0 10 0;
#X connect 2 0 11 0;
#X connect 3 0 12 0;
#X connect 4 0 13 0;
#X connect 10 0 14 1;
#X connect 11 0 14 4;
#X connect 12 0 14 3;
#X connect 13 0 14 2;
#X connect 14 0 15 0;
#X connect 16 0 14 0;
#X connect 16 1 10 0;
#X connect 16 1 11 0;
#X connect 16 1 12 0;
#X connect 16 1 13 0;
