#N canvas 87 22 1190 592 10;
#X msg 123 271 devices;
#X msg 183 271 open \$1;
#X msg 210 247 close;
#X obj 183 224 t f b;
#X msg 123 297 close;
#X obj 183 356 route analog;
#X obj 183 124 loadbang;
#X obj 183 384 route 0 1 2 3 4 5;
#X obj 183 329 arduino 2;
#X obj 183 535 outlet;
#X obj 199 411 t b f;
#X obj 216 434 t b f;
#X obj 232 456 t b f;
#X obj 249 411 t b f;
#X obj 265 434 t b f;
#X obj 183 512 pack 0 0 0 0 0 0;
#X obj 183 489 0;
#X obj 183 173 \$1;
#X floatatom 183 198 5 0 0 0 port - -;
#X obj 315 352 route digital;
#X obj 315 561 outlet;
#X obj 330 409 t b f;
#X obj 346 432 t b f;
#X obj 361 454 t b f;
#X obj 377 476 t b f;
#X obj 393 409 t b f;
#X obj 408 432 t b f;
#X obj 315 515 0;
#X obj 424 454 t b f;
#X obj 440 476 t b f;
#X obj 315 382 route 0 1 2 3 4 5 6 7 8 9 10 11 12 13;
#X obj 455 409 t b f;
#X obj 471 432 t b f;
#X obj 487 454 t b f;
#X obj 502 476 t b f;
#X obj 518 409 t b f;
#X obj 315 538 pack f f f f f f f f f f f f f f;
#X msg 276 151 pinMode 11 3;
#X text 369 151 pin 11 -> PWM(3);
#X msg 614 171 pwm 11 \$1;
#X floatatom 614 122 5 0 0 0 - - -;
#X obj 614 96 inlet;
#X obj 183 102 bng 15 250 50 0 empty empty empty 17 7 0 10 -262144
-1 -1;
#X floatatom 685 123 5 0 0 0 - - -;
#X obj 685 97 inlet;
#X msg 685 172 pwm 10 \$1;
#X msg 276 176 pinMode 10 3;
#X text 369 175 pin 10 -> PWM(3);
#X obj 614 147 clip 0 1;
#X obj 685 149 clip 0 1;
#X floatatom 753 123 5 0 0 0 - - -;
#X obj 753 97 inlet;
#X floatatom 824 124 5 0 0 0 - - -;
#X obj 824 98 inlet;
#X obj 753 148 clip 0 1;
#X obj 824 150 clip 0 1;
#X floatatom 894 123 5 0 0 0 - - -;
#X obj 894 97 inlet;
#X floatatom 965 124 5 0 0 0 - - -;
#X obj 965 98 inlet;
#X obj 894 148 clip 0 1;
#X obj 965 150 clip 0 1;
#X msg 753 172 pwm 9 \$1;
#X msg 824 173 pwm 6 \$1;
#X msg 894 172 pwm 5 \$1;
#X msg 965 173 pwm 3 \$1;
#X msg 277 202 pinMode 9 3;
#X msg 277 227 pinMode 6 3;
#X msg 277 250 pinMode 5 3;
#X msg 277 275 pinMode 3 3;
#X obj 203 102 bng 15 250 50 0 empty empty empty 17 7 0 10 -262144
-1 -1;
#X msg 637 49 1;
#X text 635 27 break;
#X obj 222 102 bng 15 250 50 0 empty empty empty 17 7 0 10 -262144
-1 -1;
#X text 179 55 init;
#X text 203 74 set pin mode;
#X text 245 99 break;
#X msg 682 49 0;
#X connect 0 0 8 0;
#X connect 1 0 8 0;
#X connect 2 0 8 0;
#X connect 3 0 1 0;
#X connect 3 1 2 0;
#X connect 4 0 8 0;
#X connect 5 0 7 0;
#X connect 6 0 17 0;
#X connect 7 0 16 0;
#X connect 7 1 10 0;
#X connect 7 2 11 0;
#X connect 7 3 12 0;
#X connect 7 4 13 0;
#X connect 7 5 14 0;
#X connect 8 0 5 0;
#X connect 8 0 19 0;
#X connect 10 0 16 0;
#X connect 10 1 15 1;
#X connect 11 0 16 0;
#X connect 11 1 15 2;
#X connect 12 0 16 0;
#X connect 12 1 15 3;
#X connect 13 0 16 0;
#X connect 13 1 15 4;
#X connect 14 0 16 0;
#X connect 14 1 15 5;
#X connect 15 0 9 0;
#X connect 16 0 15 0;
#X connect 17 0 18 0;
#X connect 18 0 3 0;
#X connect 19 0 30 0;
#X connect 21 0 27 0;
#X connect 21 1 36 1;
#X connect 22 0 27 0;
#X connect 22 1 36 2;
#X connect 23 0 27 0;
#X connect 23 1 36 3;
#X connect 24 0 27 0;
#X connect 24 1 36 4;
#X connect 25 0 27 0;
#X connect 25 1 36 5;
#X connect 26 0 27 0;
#X connect 26 1 36 6;
#X connect 27 0 36 0;
#X connect 28 0 27 0;
#X connect 28 1 36 7;
#X connect 29 0 27 0;
#X connect 29 1 36 8;
#X connect 30 0 27 0;
#X connect 30 1 21 0;
#X connect 30 2 22 0;
#X connect 30 3 23 0;
#X connect 30 4 24 0;
#X connect 30 5 25 0;
#X connect 30 6 26 0;
#X connect 30 7 28 0;
#X connect 30 8 29 0;
#X connect 30 9 31 0;
#X connect 30 10 32 0;
#X connect 30 11 33 0;
#X connect 30 12 34 0;
#X connect 30 13 35 0;
#X connect 31 0 27 0;
#X connect 31 1 36 9;
#X connect 32 0 27 0;
#X connect 32 1 36 10;
#X connect 33 0 27 0;
#X connect 33 1 36 11;
#X connect 34 0 27 0;
#X connect 34 1 36 12;
#X connect 35 0 27 0;
#X connect 35 1 36 13;
#X connect 36 0 20 0;
#X connect 37 0 8 0;
#X connect 39 0 8 0;
#X connect 40 0 48 0;
#X connect 41 0 40 0;
#X connect 42 0 6 0;
#X connect 43 0 49 0;
#X connect 44 0 43 0;
#X connect 45 0 8 0;
#X connect 46 0 8 0;
#X connect 48 0 39 0;
#X connect 49 0 45 0;
#X connect 50 0 54 0;
#X connect 51 0 50 0;
#X connect 52 0 55 0;
#X connect 53 0 52 0;
#X connect 54 0 62 0;
#X connect 55 0 63 0;
#X connect 56 0 60 0;
#X connect 57 0 56 0;
#X connect 58 0 61 0;
#X connect 59 0 58 0;
#X connect 60 0 64 0;
#X connect 61 0 65 0;
#X connect 62 0 8 0;
#X connect 63 0 8 0;
#X connect 64 0 8 0;
#X connect 65 0 8 0;
#X connect 66 0 8 0;
#X connect 67 0 8 0;
#X connect 68 0 8 0;
#X connect 69 0 8 0;
#X connect 70 0 37 0;
#X connect 70 0 46 0;
#X connect 70 0 66 0;
#X connect 70 0 67 0;
#X connect 70 0 68 0;
#X connect 70 0 69 0;
#X connect 71 0 43 0;
#X connect 71 0 40 0;
#X connect 71 0 50 0;
#X connect 71 0 52 0;
#X connect 71 0 56 0;
#X connect 71 0 58 0;
#X connect 73 0 77 0;
#X connect 77 0 40 0;
#X connect 77 0 43 0;
#X connect 77 0 50 0;
#X connect 77 0 52 0;
#X connect 77 0 56 0;
#X connect 77 0 58 0;
#X coords 0 -1 1 1 140 20 1 100 100;
