#N canvas 461 111 670 561 10;
#X declare -lib mrpeach;
#N canvas 0 22 450 300 (subpatch) 0;
#X array \$0_pattern 35 float 1;
#A 0 53.8547 93.031 48.7715 41.8469 94.9297 58.0235 37.9575 94.9805
60.373 36.4811 93.5295 67.2754 35.6461 89.729 66.8754 26.048 82.1281
82.979 31.8551 70.025 26.0487 39.3354 51.3719 93.6311 52.6228 36.9193
84.3791 69.6535 34.6682 79.1277 84.0235 33.4172 68.6756 93.72 56.3217
;
#X coords 0 127 34 0 100 40 2 0 0;
#X restore 103 128 graph;
#X obj 209 129 vsl 8 37 0 127 0 0 empty \$0_val empty 0 -9 0 10 -262144
-1 -1 983 1;
#X obj 462 406 list split;
#X obj 462 380 l;
#X floatatom 490 428 5 0 0 0 - - -;
#X obj 450 338 t b f f;
#X obj 450 249 t b l;
#X obj 450 295 until;
#X obj 317 90 unpackOSC;
#X obj 98 72 import mrpeach;
#X text 96 53 import OSC library;
#X msg 450 272 35;
#X obj 450 316 counter 0 35;
#X obj 490 457 tabwrite \$0_pattern;
#X obj 317 117 routeOSC /prefix1 /prefix2 /prefix3 /prefix4;
#X obj 317 212 spigot;
#X obj 350 188 == \$1;
#X obj 385 213 spigot;
#X obj 418 189 == \$1;
#X obj 450 214 spigot;
#X obj 483 190 == \$1;
#X obj 518 215 spigot;
#X obj 551 191 == \$1;
#X msg 350 165 1;
#X msg 418 166 2;
#X msg 483 167 3;
#X msg 551 168 4;
#X obj 317 141 t l b;
#X obj 385 142 t l b;
#X obj 450 143 t l b;
#X obj 518 144 t l b;
#X obj 99 308 counter 0 35;
#X obj 130 337 tabread \$0_pattern;
#X floatatom 130 406 10 0 0 0 - - -;
#X obj 130 429 s \$0_val;
#X obj 99 203 loadbang;
#X msg 99 263 1;
#X obj 106 169 hsl 95 8 0 34 0 0 empty \$0_mark empty -2 -8 0 10 -1
-262144 -1 7741 1;
#X obj 209 239 outlet;
#X obj 58 429 s \$0_mark;
#X obj 317 64 inlet;
#X obj 130 383 line;
#X obj 99 286 metro 1000;
#X obj 130 360 pack f 1000;
#X obj 175 263 \$2;
#X obj 99 234 t b b;
#X obj 257 64 r Xively;
#X floatatom 202 407 5 0 0 0 - - -;
#X obj 209 170 bng 8 250 50 0 empty empty empty 17 7 0 10 -262144 -1
-1;
#X msg 159 204 reset;
#X connect 1 0 38 0;
#X connect 2 1 4 0;
#X connect 3 0 2 0;
#X connect 4 0 13 0;
#X connect 5 0 3 0;
#X connect 5 1 2 1;
#X connect 5 2 13 1;
#X connect 6 0 11 0;
#X connect 6 1 3 1;
#X connect 7 0 12 0;
#X connect 8 0 14 0;
#X connect 11 0 7 0;
#X connect 12 0 5 0;
#X connect 14 0 27 0;
#X connect 14 1 28 0;
#X connect 14 2 29 0;
#X connect 14 3 30 0;
#X connect 15 0 6 0;
#X connect 16 0 15 1;
#X connect 17 0 6 0;
#X connect 18 0 17 1;
#X connect 19 0 6 0;
#X connect 20 0 19 1;
#X connect 21 0 6 0;
#X connect 22 0 21 1;
#X connect 23 0 16 0;
#X connect 24 0 18 0;
#X connect 25 0 20 0;
#X connect 26 0 22 0;
#X connect 27 0 15 0;
#X connect 27 1 23 0;
#X connect 28 0 17 0;
#X connect 28 1 24 0;
#X connect 29 0 19 0;
#X connect 29 1 25 0;
#X connect 30 0 21 0;
#X connect 30 1 26 0;
#X connect 31 0 32 0;
#X connect 31 0 39 0;
#X connect 32 0 43 0;
#X connect 35 0 45 0;
#X connect 36 0 42 0;
#X connect 40 0 8 0;
#X connect 41 0 33 0;
#X connect 42 0 31 0;
#X connect 43 0 41 0;
#X connect 43 0 47 0;
#X connect 44 0 42 1;
#X connect 44 0 43 1;
#X connect 45 0 36 0;
#X connect 45 1 44 0;
#X connect 46 0 48 0;
#X connect 46 0 8 0;
#X connect 47 0 34 0;
#X connect 48 0 49 0;
#X connect 49 0 31 0;
#X coords 0 -1 1 1 120 80 1 100 100;
