#N canvas 80 22 1061 604 10;
#X declare -lib mrpeach;
#X declare -lib flatgui;
#X declare -lib mrpeach;
#X declare -lib mrpeach;
#X declare -lib mrpeach;
#X declare -lib mrpeach;
#X declare -lib mrpeach;
#X declare -lib mrpeach;
#X obj 15 -85 import mrpeach;
#X floatatom 264 84 5 0 0 0 - - -;
#X floatatom 393 84 5 0 0 0 - - -;
#X obj 265 -61 udpreceive 7703;
#X text 265 -81 OSC receive from Processing;
#X floatatom 521 84 5 0 0 0 - - -;
#X floatatom 650 84 5 0 0 0 - - -;
#X floatatom 780 84 5 0 0 0 - - -;
#X floatatom 909 84 5 0 0 0 - - -;
#X obj 20 162 arduino_uno 2;
#X obj 265 -35 s Xively;
#N canvas 390 68 318 277 UI 0;
#X obj 105 124 tgl 30 0 empty empty empty 17 7 0 10 -262144 -1 -1 1
1;
#X obj 101 37 import flatgui;
#X obj 144 119 knob 32 32 0 127 0 0 empty empty 結合強度(K) 0 -8
1 10 -262144 -1 -1 0 1;
#X obj 167 171 / 127;
#N canvas 0 22 450 278 (subpatch) 0;
#X array obj_phase 8 float 2;
#X coords 0 278 1 277 100 70 0;
#X restore 202 37 graph;
#X msg 105 191 1;
#X obj 105 213 s clock;
#X obj 167 214 s K;
#X obj 144 67 r con;
#X obj 167 192 * 0.3;
#X obj 105 170 metro 5;
#X connect 0 0 10 0;
#X connect 2 0 3 0;
#X connect 3 0 9 0;
#X connect 5 0 6 0;
#X connect 8 0 2 0;
#X connect 9 0 7 0;
#X connect 10 0 5 0;
#X coords 0 -1 1 1 100 60 1 100 100;
#X restore 13 -55 pd UI;
#X obj 264 197 sin;
#X obj 264 221 vsl 8 64 -1 1 0 0 empty empty empty 0 -9 0 10 -262144
-1 -1 5570 1;
#X floatatom 264 130 5 0 0 0 frequency - -;
#X floatatom 264 176 10 0 0 0 phase - -;
#N canvas 682 263 307 178 cast_to_frequency 0;
#X obj 24 61 / 127;
#X obj 24 85 * 10;
#X obj 24 110 i;
#X obj 24 34 inlet;
#X obj 24 135 outlet;
#X connect 0 0 1 0;
#X connect 1 0 2 0;
#X connect 2 0 4 0;
#X connect 3 0 0 0;
#X restore 264 107 pd cast_to_frequency;
#X obj 393 197 sin;
#X obj 393 221 vsl 8 64 -1 1 0 0 empty empty empty 0 -9 0 10 -262144
-1 -1 1404 1;
#X floatatom 393 130 5 0 0 0 frequency - -;
#X floatatom 393 176 10 0 0 0 phase - -;
#N canvas 682 263 307 178 cast_to_frequency 0;
#X obj 24 61 / 127;
#X obj 24 85 * 10;
#X obj 24 110 i;
#X obj 24 34 inlet;
#X obj 24 135 outlet;
#X connect 0 0 1 0;
#X connect 1 0 2 0;
#X connect 2 0 4 0;
#X connect 3 0 0 0;
#X restore 393 107 pd cast_to_frequency;
#X obj 521 197 sin;
#X obj 521 221 vsl 8 64 -1 1 0 0 empty empty empty 0 -9 0 10 -262144
-1 -1 29 1;
#X floatatom 521 130 5 0 0 0 frequency - -;
#X floatatom 521 176 10 0 0 0 phase - -;
#N canvas 682 263 307 178 cast_to_frequency 0;
#X obj 24 61 / 127;
#X obj 24 85 * 10;
#X obj 24 110 i;
#X obj 24 34 inlet;
#X obj 24 135 outlet;
#X connect 0 0 1 0;
#X connect 1 0 2 0;
#X connect 2 0 4 0;
#X connect 3 0 0 0;
#X restore 521 107 pd cast_to_frequency;
#X obj 650 197 sin;
#X obj 650 221 vsl 8 64 -1 1 0 0 empty empty empty 0 -9 0 10 -262144
-1 -1 3499 1;
#X floatatom 650 130 5 0 0 0 frequency - -;
#X floatatom 650 176 10 0 0 0 phase - -;
#N canvas 682 263 307 178 cast_to_frequency 0;
#X obj 24 61 / 127;
#X obj 24 85 * 10;
#X obj 24 110 i;
#X obj 24 34 inlet;
#X obj 24 135 outlet;
#X connect 0 0 1 0;
#X connect 1 0 2 0;
#X connect 2 0 4 0;
#X connect 3 0 0 0;
#X restore 650 107 pd cast_to_frequency;
#X obj 780 197 sin;
#X obj 780 221 vsl 8 64 -1 1 0 0 empty empty empty 0 -9 0 10 -262144
-1 -1 3596 1;
#X floatatom 780 130 5 0 0 0 frequency - -;
#X floatatom 780 176 10 0 0 0 phase - -;
#N canvas 682 263 307 178 cast_to_frequency 0;
#X obj 24 61 / 127;
#X obj 24 85 * 10;
#X obj 24 110 i;
#X obj 24 34 inlet;
#X obj 24 135 outlet;
#X connect 0 0 1 0;
#X connect 1 0 2 0;
#X connect 2 0 4 0;
#X connect 3 0 0 0;
#X restore 780 107 pd cast_to_frequency;
#X obj 909 197 sin;
#X obj 909 221 vsl 8 64 -1 1 0 0 empty empty empty 0 -9 0 10 -262144
-1 -1 3117 1;
#X floatatom 909 130 5 0 0 0 frequency - -;
#X floatatom 909 176 10 0 0 0 phase - -;
#N canvas 682 263 307 178 cast_to_frequency 0;
#X obj 24 61 / 127;
#X obj 24 85 * 10;
#X obj 24 110 i;
#X obj 24 34 inlet;
#X obj 24 135 outlet;
#X connect 0 0 1 0;
#X connect 1 0 2 0;
#X connect 2 0 4 0;
#X connect 3 0 0 0;
#X restore 909 107 pd cast_to_frequency;
#X text 217 241 -1 ~ 1;
#X obj 393 152 kuramoto 1;
#X obj 264 152 kuramoto 0;
#X obj 521 152 kuramoto 2;
#X obj 650 152 kuramoto 3;
#X obj 780 152 kuramoto 4;
#X obj 909 152 kuramoto 5;
#N canvas 411 195 359 305 get_state 0;
#X floatatom 27 127 5 0 0 0 - - -;
#X obj 27 170 expr if($f1>0 \, $f1 \, 0);
#X obj 176 170 expr if($f1<0 \, $f1*-1 \, 0);
#X floatatom 176 196 5 0 0 0 - - -;
#X floatatom 27 196 5 0 0 0 - - -;
#X obj 27 21 inlet;
#X obj 27 222 outlet;
#X obj 176 222 outlet;
#X text 38 148 正転;
#X text 181 148 逆転;
#X text 76 20 -1<n<1 の値を正転、逆転に変換;
#X obj 27 47 clip -1 1;
#X obj 54 70 r range;
#X obj 27 95 * 1;
#X connect 0 0 1 0;
#X connect 0 0 2 0;
#X connect 1 0 4 0;
#X connect 2 0 3 0;
#X connect 3 0 7 0;
#X connect 4 0 6 0;
#X connect 5 0 11 0;
#X connect 11 0 13 0;
#X connect 12 0 13 1;
#X connect 13 0 0 0;
#X restore 264 402 pd get_state;
#X obj 264 427 s v00;
#X obj 333 427 s v01;
#X obj 393 427 s v02;
#X obj 462 427 s v03;
#X obj 521 427 s v04;
#X obj 590 427 s v05;
#X obj 20 94 r v00;
#X obj 46 115 r v01;
#X obj 73 136 r v02;
#X obj 99 94 r v03;
#X obj 126 115 r v04;
#X obj 153 136 r v05;
#X obj 276 295 s v00;
#X obj 405 295 s v01;
#X obj 533 295 s v02;
#X obj 662 295 s v03;
#X obj 792 295 s v04;
#X obj 921 295 s v05;
#X obj 58 63 s range;
#X obj 58 20 knob 32 32 0 1 0 0 empty empty empty 0 -8 0 8 -262144
-1 -1 2500 1;
#N canvas 411 195 359 305 get_state 0;
#X floatatom 27 127 5 0 0 0 - - -;
#X obj 27 170 expr if($f1>0 \, $f1 \, 0);
#X obj 176 170 expr if($f1<0 \, $f1*-1 \, 0);
#X floatatom 176 196 5 0 0 0 - - -;
#X floatatom 27 196 5 0 0 0 - - -;
#X obj 27 21 inlet;
#X obj 27 222 outlet;
#X obj 176 222 outlet;
#X text 38 148 正転;
#X text 181 148 逆転;
#X text 76 20 -1<n<1 の値を正転、逆転に変換;
#X obj 27 47 clip -1 1;
#X obj 54 70 r range;
#X obj 27 95 * 1;
#X connect 0 0 1 0;
#X connect 0 0 2 0;
#X connect 1 0 4 0;
#X connect 2 0 3 0;
#X connect 3 0 7 0;
#X connect 4 0 6 0;
#X connect 5 0 11 0;
#X connect 11 0 13 0;
#X connect 12 0 13 1;
#X connect 13 0 0 0;
#X restore 393 402 pd get_state;
#N canvas 411 195 359 305 get_state 0;
#X floatatom 27 127 5 0 0 0 - - -;
#X obj 27 170 expr if($f1>0 \, $f1 \, 0);
#X obj 176 170 expr if($f1<0 \, $f1*-1 \, 0);
#X floatatom 176 196 5 0 0 0 - - -;
#X floatatom 27 196 5 0 0 0 - - -;
#X obj 27 21 inlet;
#X obj 27 222 outlet;
#X obj 176 222 outlet;
#X text 38 148 正転;
#X text 181 148 逆転;
#X text 76 20 -1<n<1 の値を正転、逆転に変換;
#X obj 27 47 clip -1 1;
#X obj 54 70 r range;
#X obj 27 95 * 1;
#X connect 0 0 1 0;
#X connect 0 0 2 0;
#X connect 1 0 4 0;
#X connect 2 0 3 0;
#X connect 3 0 7 0;
#X connect 4 0 6 0;
#X connect 5 0 11 0;
#X connect 11 0 13 0;
#X connect 12 0 13 1;
#X connect 13 0 0 0;
#X restore 521 401 pd get_state;
#X obj 264 325 spigot;
#X floatatom 264 356 5 0 0 0 - - -;
#X obj 177 245 tgl 15 0 empty empty empty 17 7 0 10 -262144 -1 -1 1
1;
#X obj 177 223 bng 15 250 50 0 empty empty empty 17 7 0 10 -262144
-1 -1;
#X obj 177 292 sel 0;
#X obj 177 267 t f f;
#X msg 177 314 0;
#X obj 37 270 random 10;
#X obj 37 217 tgl 15 0 empty empty empty 17 7 0 10 -262144 -1 -1 1
1;
#X obj 37 241 metro 1000;
#X obj 112 274 bng 15 250 50 0 empty empty empty 17 7 0 10 -262144
-1 -1;
#X obj 37 297 sel 2 4;
#X obj 264 -3 readosc 0 5000;
#X obj 393 -3 readosc 1 5000;
#X obj 521 -3 readosc 2 5000;
#X obj 650 -3 readosc 3 5000;
#X obj 780 -3 readosc 4 5000;
#X obj 909 -3 readosc 5 5000;
#X connect 1 0 16 0;
#X connect 2 0 21 0;
#X connect 3 0 10 0;
#X connect 5 0 26 0;
#X connect 6 0 31 0;
#X connect 7 0 36 0;
#X connect 8 0 41 0;
#X connect 12 0 13 0;
#X connect 13 0 72 0;
#X connect 14 0 44 0;
#X connect 15 0 12 0;
#X connect 16 0 14 0;
#X connect 17 0 18 0;
#X connect 18 0 70 0;
#X connect 19 0 43 0;
#X connect 20 0 17 0;
#X connect 21 0 19 0;
#X connect 22 0 23 0;
#X connect 23 0 71 0;
#X connect 24 0 45 0;
#X connect 25 0 22 0;
#X connect 26 0 24 0;
#X connect 27 0 28 0;
#X connect 29 0 46 0;
#X connect 30 0 27 0;
#X connect 31 0 29 0;
#X connect 32 0 33 0;
#X connect 34 0 47 0;
#X connect 35 0 32 0;
#X connect 36 0 34 0;
#X connect 37 0 38 0;
#X connect 39 0 48 0;
#X connect 40 0 37 0;
#X connect 41 0 39 0;
#X connect 43 0 20 0;
#X connect 44 0 15 0;
#X connect 45 0 25 0;
#X connect 46 0 30 0;
#X connect 47 0 35 0;
#X connect 48 0 40 0;
#X connect 49 0 50 0;
#X connect 49 1 51 0;
#X connect 56 0 9 0;
#X connect 57 0 9 1;
#X connect 58 0 9 2;
#X connect 59 0 9 3;
#X connect 60 0 9 4;
#X connect 61 0 9 5;
#X connect 69 0 68 0;
#X connect 70 0 52 0;
#X connect 70 1 53 0;
#X connect 71 0 54 0;
#X connect 71 1 55 0;
#X connect 72 0 73 0;
#X connect 73 0 49 0;
#X connect 74 0 77 0;
#X connect 75 0 74 0;
#X connect 76 0 78 0;
#X connect 77 0 76 0;
#X connect 77 1 72 1;
#X connect 78 0 73 0;
#X connect 79 0 83 0;
#X connect 80 0 81 0;
#X connect 81 0 79 0;
#X connect 81 0 82 0;
#X connect 83 0 75 0;
#X connect 83 1 75 0;
#X connect 84 0 1 0;
#X connect 85 0 2 0;
#X connect 86 0 5 0;
#X connect 87 0 6 0;
#X connect 88 0 7 0;
#X connect 89 0 8 0;
