#N canvas 53 24 531 323 10;
#X obj 105 45 inlet~;
#X obj 186 45 inlet~;
#X obj 266 45 inlet~;
#X obj 346 45 inlet~;
#X obj 105 254 outlet~;
#X obj 173 254 outlet~;
#X obj 186 279 outlet~;
#X obj 254 279 outlet~;
#X obj 266 254 outlet~;
#X obj 334 254 outlet~;
#X obj 346 279 outlet~;
#X obj 414 279 outlet~;
#X obj 138 69 inlet~;
#X obj 218 69 inlet~;
#X obj 298 69 inlet~;
#X obj 385 69 inlet~;
#X obj 105 114 track 1;
#X obj 186 114 track 2;
#X obj 266 114 track 3;
#X obj 346 114 track 4;
#X connect 0 0 16 0;
#X connect 1 0 17 0;
#X connect 2 0 18 0;
#X connect 3 0 19 0;
#X connect 12 0 16 1;
#X connect 13 0 17 1;
#X connect 14 0 18 1;
#X connect 15 0 19 1;
#X connect 16 0 4 0;
#X connect 16 1 5 0;
#X connect 17 0 6 0;
#X connect 17 1 7 0;
#X connect 18 0 8 0;
#X connect 18 1 9 0;
#X connect 19 0 10 0;
#X connect 19 1 11 0;
#X coords 0 -1 1 1 325 149 1 100 100;
